<?xml version="1.0" encoding="utf-8"?>
<!-- Generator: Adobe Illustrator 20.0.0, SVG Export Plug-In . SVG Version: 6.00 Build 0)  -->
<svg version="1.1" id="Layer_1" xmlns="http://www.w3.org/2000/svg" xmlns:xlink="http://www.w3.org/1999/xlink" x="0px" y="0px"
	 viewBox="0 0 50 50" style="enable-background:new 0 0 50 50;" xml:space="preserve">
<style type="text/css">
	.st0{fill:#FFFFFF;}
</style>
<path class="st0" d="M47.4,4.3h-45C1,4.3,0,5.5,0,6.7V33c0,1.4,1.2,2.4,2.4,2.4h12.4v9.6c0,0.4,0.6,0.8,1,0.4l14.1-9.8h17.7
	c1.4,0,2.4-1.2,2.4-2.4V6.7C50,5.5,48.8,4.3,47.4,4.3z M14.9,23.2c-1.8,0-3.2-1.4-3.2-3.2s1.4-3.2,3.2-3.2s3.2,1.4,3.2,3.2
	S16.7,23.2,14.9,23.2z M24.9,23.2c-1.8,0-3.2-1.4-3.2-3.2s1.4-3.2,3.2-3.2s3.2,1.4,3.2,3.2S26.7,23.2,24.9,23.2z M34.9,23.2
	c-1.8,0-3.2-1.4-3.2-3.2s1.4-3.2,3.2-3.2s3.2,1.4,3.2,3.2S36.7,23.2,34.9,23.2z"/>
</svg>
