<?xml version="1.0" encoding="utf-8"?>
<!-- Generator: Adobe Illustrator 16.0.0, SVG Export Plug-In . SVG Version: 6.00 Build 0)  -->
<!DOCTYPE svg PUBLIC "-//W3C//DTD SVG 1.1//EN" "http://www.w3.org/Graphics/SVG/1.1/DTD/svg11.dtd">
<svg version="1.1" id="Layer_1" xmlns="http://www.w3.org/2000/svg" xmlns:xlink="http://www.w3.org/1999/xlink" x="0px" y="0px"
	 width="512px" height="512px" viewBox="0 0 512 512" enable-background="new 0 0 512 512" xml:space="preserve">
<g>
	<g id="XMLID_834_">
		<path id="XMLID_835_" fill="#FFFFFF" d="M175.174,275.835h39.79v163.806c0,3.234,2.621,5.854,5.854,5.854h67.465
			c3.233,0,5.855-2.62,5.855-5.854V276.605h45.738c2.975,0,5.479-2.232,5.816-5.187l6.95-60.304
			c0.189-1.661-0.337-3.322-1.447-4.565c-1.111-1.247-2.7-1.96-4.37-1.96h-52.687v-37.802c0-11.396,6.135-17.174,18.238-17.174
			c1.725,0,34.448,0,34.448,0c3.234,0,5.854-2.622,5.854-5.855V88.404c0-3.234-2.62-5.855-5.854-5.855h-47.475
			c-0.334-0.016-1.078-0.043-2.175-0.043c-8.237,0-36.871,1.617-59.488,22.425c-25.06,23.058-21.576,50.666-20.744,55.453v44.206
			h-41.771c-3.234,0-5.854,2.621-5.854,5.854v59.534C169.319,273.213,171.94,275.835,175.174,275.835z"/>
	</g>
</g>
</svg>
