<?xml version="1.0" encoding="utf-8"?>
<!-- Generator: Adobe Illustrator 20.0.0, SVG Export Plug-In . SVG Version: 6.00 Build 0)  -->
<svg version="1.1" id="Layer_1" xmlns="http://www.w3.org/2000/svg" xmlns:xlink="http://www.w3.org/1999/xlink" x="0px" y="0px"
	 viewBox="0 0 175 100" style="enable-background:new 0 0 175 100;" xml:space="preserve">
<style type="text/css">
	.st0{fill-rule:evenodd;clip-rule:evenodd;fill:#314A9E;}
	.st1{fill-rule:evenodd;clip-rule:evenodd;fill:#F49C00;}
</style>
<g>
	<path class="st0" d="M149.8,66.5c-0.2,2-0.6,3.9-1,5.7c-1.7-0.5-3.6-1.4-6.3-1.2c-1.6,0.1-3.5,0.7-3.6,2.2c0,1.6,2.6,2.6,4.1,3.3
		c2.7,1.3,5.5,3,5.8,6.5c0.2,2.7-1.1,5-2.5,6.4c-3.7,3.6-12,3.9-17.7,1.7c0.4-1.9,0.7-3.8,1-5.8c2.2,0.9,5.2,2.2,8.5,1.8
		c1.5-0.2,3.3-1.1,3.3-2.6c-0.1-1.9-3.6-3-5.3-4c-2.1-1.1-4.4-3-4.5-5.9c-0.1-1.9,0.7-3.7,1.6-5C136.2,65.8,143.7,64.5,149.8,66.5z"
		/>
	<polygon class="st0" points="82.7,29.5 90.2,29.5 85.6,59.1 78,59.1 82.7,29.5 	"/>
	<path class="st0" d="M56.5,29.5h11.6c7.4,0,9.3,4.3,8.5,9.4c-0.7,4.3-3.7,7.1-7.7,8.1l7.3,12.1h-9.5l-5.5-11.6l-1.8,11.6h-7.6
		L56.5,29.5L56.5,29.5z M63.1,35.4L62,42.8h2.2c2.1,0,4.1-1.7,4.5-3.7l0,0c0.3-2-1.1-3.7-3.3-3.7H63.1L63.1,35.4z"/>
	<polygon class="st0" points="117.2,29.5 124.7,29.5 120.1,59.1 112.5,59.1 117.2,29.5 	"/>
	<polygon class="st0" points="130.5,29.5 147.1,29.5 146,35.9 137,35.9 136.2,41 144.8,41 143.8,47.4 135.2,47.4 134.4,52.6 
		143.4,52.6 142.4,59.1 125.8,59.1 130.5,29.5 	"/>
	<polygon class="st0" points="35.4,29.5 52,29.5 51,35.9 42,35.9 41.2,41 49.8,41 48.7,47.4 40.2,47.4 39.3,52.6 48.4,52.6 
		47.4,59.1 30.8,59.1 35.4,29.5 	"/>
	<polygon class="st0" points="96,29.5 112.7,29.5 111.7,35.9 102.5,35.9 101.7,41 110.1,41 109.1,47.4 100.7,47.4 98.8,59.1 
		91.3,59.1 96,29.5 	"/>
	<path class="st0" d="M151.5,29.5h9.8c11.7,0,14.4,9,13.5,14.8c-1.3,8.4-8.7,14.8-18.1,14.8h-9.8L151.5,29.5L151.5,29.5z M158,35.9
		c0.5,0,1.1,0,1.6,0c5.8,0,8,4.1,7.4,8.1c-0.8,5.3-4.6,8.6-9.6,8.6c-0.7,0-1.3,0-2,0L158,35.9L158,35.9z"/>
	<path class="st0" d="M0,25.5h14L15.6,47c9.2-16.1,18.6-31.7,28.1-47h4.6c-10,19.5-19.9,39.1-29.5,59.1H8.5L6,35.4
		c-0.6-5.9-1.8-8.4-6-9V25.5L0,25.5z"/>
	<polygon class="st1" points="5.3,13.2 17.2,18.3 18.2,31.7 19.1,31.7 29.9,13.3 29.9,12.3 5.3,12.3 5.3,13.2 	"/>
	<path class="st0" d="M60.4,80.3c1.8,0,3,1.7,2.7,3.7c-0.3,2.1-2,3.7-3.8,3.7c-1.8,0-3-1.7-2.7-3.7C56.9,81.9,58.6,80.3,60.4,80.3
		L60.4,80.3z M54.3,66h4.9l-1.6,11.7c1.4-1.4,3.1-2.2,5-2.2c3.9,0,6.5,3.8,5.8,8.5c-0.7,4.7-4.4,8.5-8.3,8.5c-1.9,0-3.3-0.9-4.3-2.4
		L55.5,92h-4.9L54.3,66L54.3,66z"/>
	<polygon class="st0" points="68.8,75.9 74.6,75.9 77.2,84.1 82.3,75.9 88,75.9 73.1,100 67.5,100 73.7,89.8 68.8,75.9 	"/>
	<polygon class="st0" points="117.2,92 121.5,66 128.5,66 124.2,92 117.2,92 	"/>
	<path class="st0" d="M111.3,66c-2.4,5.8-4.5,11.9-7,17.6l-0.7-3.4c0,0,0,0,0,0l0.1,0.6c-0.5-1.8-1.5-3.5-2.6-5c0,0-0.1-0.1-0.1-0.1
		c-0.2-0.3-0.4-0.5-0.6-0.8c-0.1-0.2-0.3-0.3-0.4-0.5c-1.7-1.9-3.8-3.5-5.9-4.8l6.3,22.5h7.5c3.5-8.8,7.4-17.3,11-26
		C116.2,66,113.8,66,111.3,66z"/>
	<path class="st1" d="M98,66H86.5v0.6c6.6,1.3,15,6.9,17.2,14.1l-2.5-12.1C100.9,66.7,99.6,66,98,66z"/>
	<path class="st0" d="M173.5,92.1c-2.1,0-4.3,0-6.4,0c-0.4-1.2-0.5-2.8-1-4c-2.9,0-5.8,0-8.8,0l-1.6,4c-2.5,0-4.9,0-7.4,0l9.6-22.3
		c0.4-1,1.2-2.3,1.5-2.9c0.5-0.9,2.4-1,3.2-1h5.3L173.5,92.1z M162.9,73.2l-3.6,9.7h5.8L162.9,73.2z"/>
</g>
</svg>
