<?xml version="1.0" encoding="utf-8"?>
<!-- Generator: Adobe Illustrator 20.0.0, SVG Export Plug-In . SVG Version: 6.00 Build 0)  -->
<svg version="1.1" id="圖層_1" xmlns="http://www.w3.org/2000/svg" xmlns:xlink="http://www.w3.org/1999/xlink" x="0px" y="0px"
	 viewBox="0 0 50 50" style="enable-background:new 0 0 50 50;" xml:space="preserve">
<style type="text/css">
	.st0{fill:#FFFFFF;}
</style>
<path class="st0" d="M25,1.2c-13.9,0-25,9.1-25,20.3c0,10,8.9,18.4,20.9,20c0.9,0.1,1.9,0.6,2.3,1.1c0.3,0.6,0.1,1.7,0,2.3
	c0,0-0.3,1.7-0.4,2.1c-0.1,0.6-0.6,2.4,2.1,1.3c2.7-1.1,14.4-8.3,19.7-14.3c3.7-4,5.4-8,5.4-12.6C50,10.4,38.9,1.2,25,1.2z
	 M16.1,27.2c0,0.4-0.3,0.6-0.6,0.6h-7c-0.1,0-0.3-0.1-0.3-0.1c-0.1,0-0.1-0.1-0.1-0.3V16.5c0-0.4,0.3-0.6,0.6-0.6h1.7
	c0.4,0,0.6,0.3,0.6,0.6v8.7h4.7c0.3,0,0.4,0.3,0.4,0.3V27.2z M20.6,27.7c0,0.4-0.3,0.6-0.6,0.6h-1.7c-0.4,0-0.6-0.3-0.6-0.6V16.8
	c0-0.4,0.3-0.6,0.6-0.6H20c0.1,0,0.4,0.1,0.6,0.4V27.7z M32.9,27.5c0,0.4-0.3,0.6-0.6,0.6h-2L30.1,28l-5-6.7V28
	c0,0.4-0.3,0.6-0.6,0.6H23c-0.4,0-0.6-0.3-0.6-0.6V17.1c0-0.4,0.3-0.6,0.6-0.6h1.7l5,6.7v-6.4c0-0.4,0.3-0.6,0.6-0.6H32
	c0.3,0,0.4,0.1,0.9,0.4V27.5z M42.3,18.4c0,0.4-0.3,0.6-0.6,0.6v-0.6H37v1.9h4.7c0.4,0,0.6,0.3,0.6,0.6v1.7c0,0.4-0.3,0.6-0.6,0.6
	H37V25h4.7c0.4,0,0.6,0.3,0.6,0.6v1.7c0,0.4-0.3,0.6-0.6,0.6h-7c-0.1,0-0.3-0.1-0.3-0.1c-0.1,0-0.1-0.1-0.1-0.3V16.5
	c0-0.1,0.1-0.3,0.1-0.3c0-0.1,0.1-0.1,0.3-0.1h7c0.4,0,0.6,0.3,0.6,0.6V18.4z"/>
</svg>
