<?xml version="1.0" encoding="utf-8"?>
<!-- Generator: Adobe Illustrator 20.0.0, SVG Export Plug-In . SVG Version: 6.00 Build 0)  -->
<svg version="1.1" id="Layer_1" xmlns="http://www.w3.org/2000/svg" xmlns:xlink="http://www.w3.org/1999/xlink" x="0px" y="0px"
	 viewBox="0 0 200 53.3" style="enable-background:new 0 0 200 53.3;" xml:space="preserve">
<style type="text/css">
	.st0{fill:#0A3B63;}
	.st1{fill:#FFFFFF;}
</style>
<g>
	<g>
		<path id="Blue_1_" class="st0" d="M197.1,53.3c1.6,0,2.9-1.3,2.9-2.9V2.9c0-1.6-1.3-2.9-2.9-2.9H2.9C1.3,0,0,1.3,0,2.9v47.4
			c0,1.6,1.3,2.9,2.9,2.9H197.1z"/>
	</g>
	<g>
		<path class="st1" d="M25.5,14.4c0.6,2.6,1.2,7.2,1.7,13.8c0,0.9-0.2,1.4-0.5,1.5c-0.4,0.3-1.1,0.4-2,0.4c-0.7,0-1.1-0.4-1.2-1.3
			c-0.4-5.5-0.9-9.7-1.3-12.6C22,15.5,22,15,22,14.6c0.4-0.7,1.1-1,1.9-1C24.6,13.6,25.2,13.9,25.5,14.4z M32.1,8v9.7
			c0.5-1.4,1.2-3.1,1.9-5.1c0.3-0.2,0.6-0.3,1.1-0.3c1.2,0.4,2,1.3,2.2,2.5c0,0.5-0.1,0.8-0.2,0.9c-0.5,1.2-1.1,2.3-1.8,3.5
			c1-0.9,2-2.4,2.9-4.3c0.3-0.4,0.8-0.8,1.7-1.1V7.4c0-0.7,0.6-1.2,1.8-1.4C43.2,6,44,6.5,44,7.5v0.6h3.8c0.7,0.1,1.1,0.7,1.1,1.8
			c0,1.4-0.4,2.1-1.2,2.1H44v1.7h3.4c1.4,0.1,2.2,0.9,2.2,2.4c0,2.7-1.4,5.6-4.2,8.8c-0.9,1-1.8,1.9-2.7,2.6
			c0.4,0.3,0.7,0.5,1.1,0.8c1.5,1.8,2.2,3,2.2,3.6c0,0.5-0.1,0.9-0.4,1.2H47v-5.5c0-0.4,0.1-0.7,0.4-0.9c-0.3-0.4-0.6-0.9-0.7-1.6
			c0-0.9,0.3-1.6,1-2.1c2.2-0.6,4-1.5,5.5-2.7c-0.9-1.1-1.8-2.5-2.6-3.9c-0.6-0.9-0.9-1.6-0.9-2.2c0.7-1,1.4-1.5,2.2-1.6
			c0.4,0.1,0.8,0.3,1.2,0.7c0.8,1.6,1.8,3,2.8,4.3c1.1-1.5,1.8-3.1,2.3-5c0-0.4-0.3-0.7-0.7-0.7H51c-1.1,0-1.6-0.7-1.6-2
			c0.1-1.1,0.6-1.8,1.5-1.8H60c1.9,0,2.9,0.9,2.9,2.6c-0.3,3.4-1.7,6.6-4.3,9.7c1.1,1,2.2,1.8,3.4,2.5c1,0.4,1.5,1,1.5,1.9
			c-0.1,1.5-0.7,2.2-1.8,2.2c-0.7,0-1.5-0.3-2.6-1c-1.2-0.7-2.4-1.6-3.4-2.7c-1.8,1.5-3.7,2.6-5.6,3.3c0.4,0.2,0.7,0.6,0.7,1.1V33
			H53c-0.3-0.4-0.5-0.8-0.5-1.3c0-0.1,0.4-0.7,1.3-1.8c1.3-2,2.1-3,2.2-3.2c0.4-0.3,0.7-0.5,1.2-0.5c1.3,0.4,2,1,2.1,1.8
			c0,0.4-0.1,0.7-0.2,0.9C57.9,31,57,32.4,56.4,33h5.8c0.6,0.1,1,0.7,1,1.8c0,1.2-0.4,1.8-1.1,1.8h-8.7c2.5,2.5,5.5,4.2,9.3,5.1
			c0.6,0.4,0.9,0.9,0.9,1.5c0,1-0.2,1.7-0.5,2.1C62.6,45.8,62,46,61.4,46c-4.4-1.4-7.9-3.5-10.6-6.2v5.9c0,0.9-0.6,1.4-1.8,1.4
			c-1.3-0.1-2-0.5-2-1.3v-6.2c-2.3,2.2-5.4,4.1-9.4,5.9c-0.9,0.4-1.5,0.6-1.9,0.6c-1.1-0.2-1.5-1.1-1.5-2.8c0-0.5,0.2-0.9,0.6-1.4
			c4.7-1.8,8-3.6,10-5.4h-7.6c-0.8,0-1.2-0.7-1.2-2c0-0.9,0.3-1.5,0.9-1.7h5.2c-0.5-0.8-1.1-1.6-1.7-2.5c-0.5-0.5-0.7-0.8-0.7-1.1
			c0,0,0,0,0-0.1c-1.2,0.7-2.5,1.3-3.8,1.7c-0.4,0-0.8-0.1-1-0.4c-0.4-0.1-0.7-0.8-0.7-2.1c0-0.3,0.2-0.5,0.4-0.8
			c2.5-1.2,4.5-2.5,6.1-3.8c-1-0.5-2-1-3-1.4c-0.1,0-0.2,0-0.2-0.1c-0.4,0.4-0.7,0.7-1.1,0.9c-0.5,0.3-1,0.4-1.5,0.4
			c-0.7-0.2-1.1-0.6-1.3-1.3c-0.5,0.8-1,1.5-1.4,2.2v0.7c0,2.5-0.2,4.7-0.5,6.8c1,0.7,2.4,2.4,4.3,5c0.4,0.6,0.7,1.1,0.7,1.5
			c0,1.5-0.8,2.2-2.2,2.2c-0.6,0-1.1-0.3-1.5-0.8c-0.6-1-1.4-2.1-2.2-3.4c-1.1,4.1-2.9,7.4-5.4,10.1c-0.4,0.2-0.8,0.3-1.1,0.3
			c-1.1-0.5-1.8-1.4-2-2.6c0-0.5,0.3-1.1,0.9-1.7c3.3-4.6,5-10.4,5-17.3V7.9c0.1-0.8,0.8-1.2,1.9-1.3C31.4,6.7,32.1,7.1,32.1,8z
			 M45.1,17.7c0-0.2-0.2-0.4-0.5-0.4h-2.9c-0.4,0-0.7,0.1-0.9,0.3c-0.4,0.7-0.7,1.4-1.1,1.9c1.2,0.5,2.4,1.1,3.4,1.7
			C44.1,20.1,44.7,18.9,45.1,17.7z"/>
		<path class="st1" d="M71.8,17V7.3c0-1,0.7-1.4,2.1-1.4c1.4,0,2.2,0.5,2.2,1.5V17h3.3c0.9,0.3,1.4,1.1,1.4,2.2
			c0,1.5-0.5,2.3-1.6,2.3h-3.1l0,13c1.6-0.9,2.5-1.4,2.8-1.4c0.8,0,1.3,0.2,1.4,0.5c0.5,0.4,0.8,1.1,0.8,2.1c0,0.6-0.3,1.1-0.6,1.3
			c-0.7,0.9-2.5,2-5.2,3.5c-3.9,2.2-6.2,3.4-6.9,3.4c-0.8,0-1.4-0.4-1.8-1c-0.3-0.5-0.4-1-0.5-1.6c0-0.6,0.2-1.3,0.7-2
			c1.4-0.7,3.1-1.4,4.9-2.3V21.6h-3.3c-1,0-1.5-0.8-1.6-2.4c0-1.1,0.4-1.8,1.4-2.1H71.8z M91.6,11.3v-4c0-1,0.8-1.5,2.4-1.5
			c1.4,0,2.1,0.5,2.1,1.5v4h7.2c1.8,0,2.7,1,2.9,2.7v21.2c0,2.1-1,3.2-2.8,3.2h-7.3v7.4c0,1.1-0.7,1.7-2.1,1.8
			c-1.6-0.1-2.4-0.7-2.4-1.6v-7.6h-7c-1.8-0.1-2.8-1.1-2.8-3V14.1c0-1.8,1-2.8,2.9-2.8H91.6z M91.6,21.9v-6.1h-4.3
			c-0.6,0-1,0.3-1.1,0.7v5.3H91.6z M91.6,26.4h-5.4V33c0.1,0.6,0.4,0.9,1,0.9h4.5V26.4z M96.1,21.9h5.7v-5c0-0.6-0.3-1-0.9-1.1h-4.8
			V21.9z M101.7,26.4h-5.7v7.4h4.7c0.6,0,0.9-0.4,0.9-1.3V26.4z"/>
		<path class="st1" d="M115.1,15.3c-0.1,9.4-0.4,14.3-1.1,14.8c-0.4,0.5-1,0.7-2,0.7c-1.1,0-1.8-0.5-1.9-1.4c0.1-0.7,0.4-3.8,1-9.2
			c0-3.3,0.1-5.1,0.3-5.6c0.3-0.4,1-0.7,2-0.7C114.4,14.1,115,14.6,115.1,15.3z M120.3,7.3v38.3c0,1.1-0.7,1.6-2.1,1.7
			c-1.5-0.1-2.2-0.6-2.2-1.5V7.3c0-0.9,0.7-1.4,2.2-1.4C119.6,5.9,120.3,6.4,120.3,7.3z M124.1,15c0.5,1.4,1,3.9,1.4,7.6
			c0,0.9-0.2,1.4-0.5,1.5c-0.4,0.3-1.1,0.4-2,0.4c-0.7,0-1.1-0.4-1.1-1.3c-0.4-2.8-0.7-4.9-1.1-6.4c-0.2-0.7-0.2-1.3-0.2-1.8
			c0.4-0.7,1.1-1,1.8-1C123.2,14.1,123.8,14.4,124.1,15z M132.8,25.3c0.1-0.8,0.2-1.6,0.2-2.5v-6.3H127c-1.2,0-1.8-0.7-1.8-2.2
			c0-1.1,0.4-1.8,1.3-2.2h6.5V7.4c0.1-0.9,0.8-1.4,2.1-1.4c1.4,0,2.2,0.5,2.3,1.5v4.7h7.9c1.4,0.1,2.2,1,2.2,2.7v10.4h2.5
			c0.7,0.1,1.1,0.8,1.1,2.1c0,1.4-0.4,2.2-1.2,2.2h-11.4c0.6,1.4,1.3,2.7,2.1,3.8c2.5,3.8,5.8,6.8,9.8,9c0.4,0.5,0.7,1.1,0.7,1.5
			c-0.1,2-1,3-2.6,3c-0.3,0-0.6-0.1-1.1-0.4c-2.2-1.1-4.5-3-7.1-5.9c-1.4-1.5-3.1-4.1-5.3-7.9c-0.8,2.2-2.1,4.4-3.7,6.7
			c-2,3-4.1,5.3-6.4,7c0,0.4-0.6,0.6-1.8,0.7c-1.1-0.3-1.9-1-2.2-2.3c0-0.5,0.1-1,0.4-1.6c5.8-5.7,9.1-10.1,10.1-13.1
			c0.1-0.2,0.2-0.4,0.3-0.6h-8c-1,0-1.4-0.7-1.4-2.3c0-1.1,0.4-1.7,1.1-2H132.8z M137.5,22.7c0,0.9,0,1.7,0.2,2.5h5.8v-7.9
			c0-0.4-0.3-0.7-0.7-0.8h-5.2V22.7z"/>
		<path class="st1" d="M179.1,41.5c-2.4,1.5-5.6,2.3-9.7,2.3c-2.5,0-4.9-0.4-7.2-1.3c-2.5-0.9-4.6-2.1-6.2-3.7
			c-0.7-0.7-1.1-1.4-1.1-2.3c0-0.5,0.2-1,0.6-1.3c0.4-0.4,0.8-0.5,1.4-0.5c0.8,0,1.8,0.4,2.9,1.3c1.4,1.2,3.1,2.1,5,2.9
			c1.8,0.7,3.5,1.1,5,1.1c2,0,3.9-0.4,5.5-1.1c2.1-0.9,3.1-2.3,3.1-4.1c0-2.6-1.3-4.3-3.7-5c-1.1-0.3-3.1-0.5-6-0.5H166
			c-1.4,0-2.1-0.7-2.1-2c0-1.3,0.7-2,2.3-2c0.4,0,1.1,0,2.1,0.1c0.9,0.1,1.6,0.1,2.1,0.1c4.4,0,6.6-1.7,6.6-5c0-1.5-0.9-2.7-2.7-3.6
			c-1.4-0.7-3-1-4.8-1c-2.8,0-5.3,0.5-7.4,1.6c-0.4,0.2-1.1,0.7-2.5,1.6c-0.7,0.5-1.2,0.7-1.4,0.7c-1.5,0-2.2-0.6-2.2-1.9
			c0-0.8,0.3-1.4,0.9-2.1c0.5-0.5,1.4-1.1,2.8-1.8c2.7-1.4,5.9-2.1,9.5-2.1c3.3,0,6.1,0.7,8.4,2c2.4,1.4,3.6,3.4,3.6,5.9
			c0,1.4-0.4,2.7-1.1,3.7c-0.8,1.1-2.3,2.2-4.5,3.5c4.9,1.3,7.4,3.9,7.4,7.6C183,37.6,181.7,39.9,179.1,41.5z"/>
	</g>
</g>
</svg>
