<?xml version="1.0" encoding="utf-8"?>
<!-- Generator: Adobe Illustrator 20.0.0, SVG Export Plug-In . SVG Version: 6.00 Build 0)  -->
<svg version="1.1" id="圖層_1" xmlns="http://www.w3.org/2000/svg" xmlns:xlink="http://www.w3.org/1999/xlink" x="0px" y="0px"
	 viewBox="0 0 100 63.1" style="enable-background:new 0 0 100 63.1;" xml:space="preserve">
<style type="text/css">
	.st0{fill:#DD2528;}
	.st1{fill:#4FAE4A;}
	.st2{fill:#DB1884;}
	.st3{fill:#EC8F26;}
	.st4{fill:#2096CB;}
</style>
<g>
	<path class="st0" d="M14.5,28.6c-0.1-0.4,0.2-0.4,0.5-0.5c0,0-0.1-0.1-0.1-0.1c0.3-0.3,0.2-0.7,0.6-0.9c0,0.3,0,0.5,0,0.8
		c0.1,0,0.2,0,0.3,0c0.1-0.3,0.1-0.6,0.2-0.9c0.2,0,0.1-0.2,0.2-0.3c0.1-0.1,0.1-0.1,0.2-0.2c0.3-0.3,0.5-0.6,0.5-1.1
		c-0.1,0.1-0.2,0.1-0.3,0.2c-0.1-0.3-0.1-0.6,0-0.9c0.1-0.3,0.1-0.6,0.1-0.8c-0.1-0.1-0.2-0.2-0.3-0.3c-0.2,0.1-0.5,0.3-0.7,0.4
		c0.1,0.1,0.1,0.2,0.2,0.4c-0.1,0-0.3,0-0.4,0c-0.2,0.5-0.6,0.9-0.5,1.5c-0.1,0-0.2,0.1-0.3,0.1c-0.1,0.4-0.1,0.8-0.2,1.4
		c-0.1,0-0.3,0.1-0.6,0.2c0.1,0.1,0.1,0.2,0.2,0.4c-0.2,0.8-0.7,1.4-0.6,2.3c-0.1,0-0.2,0-0.3,0.1c0-0.2,0-0.4-0.1-0.6
		c-0.1,0-0.2,0-0.2,0c-0.1,0.1-0.1,0.5,0.1,0.9c-0.1,0-0.2,0.1-0.3,0.1c0,0.1,0,0.1,0,0.2c0.1,0,0.2,0.1,0.3,0.1
		c0.1,0.8-0.1,1.6-0.3,2.4c-0.2,0-0.4,0-0.6,0c0-0.1,0-0.1,0-0.2c0.1-0.1,0.1-0.1,0.2-0.2c0-0.1,0-0.1,0-0.2c0.1,0,0.1-0.1,0.2-0.1
		c-0.1-0.1-0.1-0.1-0.2-0.2c0-0.1,0-0.2,0-0.2c0.1,0,0.2-0.1,0.3-0.1c0-0.1,0-0.2,0-0.2c0,0,0,0.1,0.1,0.1c0-0.1,0.1-0.2,0.1-0.4
		c0,0,0,0.1,0.1,0.1c0-0.2,0-0.5,0-0.7c-0.1,0-0.2,0-0.3,0c0,0.3,0,0.6,0,0.9c-0.1,0-0.2,0.1-0.3,0.2c0-0.4,0-0.7,0.1-1.1
		c0.2-0.5,0.2-1,0.3-1.5c0.1-0.4,0.2-0.8,0.3-1.3c0-0.1,0.3-0.2,0.5-0.4c0.1-0.3-0.2-0.4-0.3-0.6c0.2-0.4,0.4-0.8,0.6-1.2
		c0.1-0.4,0.3-0.6,0.5-0.9c0.2,0,0.3,0,0.5,0c0,0,0-0.1,0-0.1c-0.1,0-0.3,0-0.4,0c0-0.1,0-0.2,0-0.4c0.5-0.4,0.7-1,0.8-1.6
		c0-0.2,0.2-0.5,0.3-0.7c0.2-0.5,0.3-1,0.1-1.6c-0.1-0.2,0-0.5,0-0.8c0-0.3,0-0.7-0.2-0.9c0-0.1-0.1-0.2-0.1-0.2
		c-0.3,0.1-0.1-0.3-0.4-0.3c-0.5-0.1-0.9-0.4-1.3-0.7c-0.3,0-0.7,0-1,0c-0.2-0.2-0.4-0.3-0.7-0.5c-0.1,0-0.3,0-0.6,0
		c-0.4-0.6-1.2-0.5-1.7-1c-0.3-0.1-0.6,0-0.9-0.2c-0.2-0.1-0.6-0.1-0.9-0.2c-0.1-0.1-0.3-0.3-0.4-0.4c-0.3-0.1-0.5,0-0.8-0.1
		c-0.6-0.3-1.2-0.6-1.6-1.3c0-0.1-0.1-0.2-0.2-0.2c-0.6-0.1-1-0.7-1.6-0.9c-0.1-0.4,0-0.7-0.2-1c-0.1-0.2,0.1-0.5,0.2-0.8
		c0.1,0.3,0.3,0.5,0.4,0.8c-0.1,0.1-0.1,0.2-0.2,0.4c0.1,0,0.1,0.1,0.2,0.1c0.4-0.4,0.3-0.9,0.3-1.3c0-0.4-0.5-0.4-0.6-0.8
		C2.8,9.9,2.5,9.7,2.2,9.5C1.9,9.3,1.6,9.2,1.3,9C1,8.8,0.7,8.6,0.5,8.4c0-0.4,0-0.8,0-1.2C0.3,7.1,0.2,7,0,6.9
		c0-1.1,0.4-2.1,0.6-3.1c0.3-1,0.5-2,1.2-2.9C2,1,2.1,1,2.2,1.1C2.7,1,2.7,0.4,3,0c0.5,0.1,1-0.2,1.4,0.2c0.1,0,0.2,0,0.2,0
		C5-0.1,5.3,0.1,5.7,0c0.1,0.1,0.2,0.2,0.2,0.3c0.3,0,0.6,0,0.9,0c0.6,0.4,1.1,0.8,1.9,1.3c0.6,0.1,1.3,0.3,2.1,0.5
		c0,0.3,0,0.4,0.1,0.7c0.1-0.1,0.2-0.1,0.3-0.2c0.7,0.3,0.4,1,0.5,1.6C11.7,4,11.8,3.8,12,3.5c0,0.3,0,0.5,0,0.8
		c-0.1,0.1-0.2,0.2-0.4,0.4C11.8,4.8,11.9,4.9,12,5c0.3,0.1,0.7,0.2,1,0.3c0.2,0.1,0.4,0.1,0.6,0.3C13.8,5.8,14,5.9,14.3,6
		c0.4,0.1,0.6,0.5,0.8,0.9c0.2,0.4,0.5,0.7,1,0.9c0.6,0.3,1.3,0.5,1.9,0.8c0.6,0.3,1.3,0.6,1.7,1.2c0.4-0.2,0.6,0.2,0.9,0.3
		c0.4,0.1,0.5,0.3,0.6,0.6c0.1,0.2,0.4,0.4,0.5,0.6c0.3-0.1,0.6,0.2,0.7,0.4c0.2,0.3,0.4,0.5,0.7,0.7c0.4,0.2,0.7,0.6,1,0.9
		c0.5,0.4,1,0.8,1.5,1.3c0.1,0,0.3,0,0.5,0c0,0.1,0,0.3,0,0.4c0.1,0,0.2,0.1,0.3,0.1c0.1,0.2,0.2,0.4,0.2,0.6
		c0.2-0.1,0.3-0.1,0.4-0.2c0.2,0.3,0,0.5-0.1,0.7c0.2,0.1,0.4,0.2,0.6,0.3c0,0.4,0,0.7,0,1.2c0.1,0.1,0.3,0.1,0.4,0.2
		c0.3,0.1,0.6,0,0.8,0.2c0.4,0.3,0.8,0.3,1.2,0.3c0.5,0,1,0.2,1.4,0.5c0,0,0.1,0,0.2,0c0.1,0,0.1-0.1,0.2-0.2
		c0.3,0.1,0.6,0.3,0.9,0.5c0.4,0.1,0.9,0.1,1.3,0.2c0.2,0,0.4,0.1,0.4,0.3c0.2,0.4,0.6,0.7,0.6,1.2c0,0.1,0.2,0.3,0.3,0.6
		c0.1,0.3,0,0.7-0.4,1.1c-0.2,0-0.4,0-0.7,0c0,0.5-0.2,0.8-0.6,1.1c-0.2,0.1-0.4,0.2-0.6,0.2c-0.5,0-1,0.1-1.5-0.1
		c-0.1-0.1-0.4-0.1-0.5,0c-0.4,0.3-0.7,0.1-1.1,0.1c-0.6,0.1-1.2-0.1-1.7-0.4c-0.1,0-0.2,0-0.3-0.1c-0.2,0.2-0.3,0.3-0.5,0.5
		c-0.5,0-0.6-0.2-0.7-0.5c-0.4-0.2-0.7-0.4-1.1-0.6c0-0.2,0.1-0.4,0.1-0.6c-0.5-0.2-0.9-0.8-1.7-0.6c0.1,0.1,0.1,0.2,0.2,0.3
		c0.2,0.2,0.5,0.2,0.9,0.2c-0.1,0.2-0.2,0.3-0.2,0.4c-0.2,0-0.5,0-0.7,0c-0.1-0.1-0.2-0.3-0.3-0.4c-0.2,0-0.4,0-0.6,0
		c-0.3-0.2-0.4-0.5-0.5-0.9c0.1-0.1,0.3-0.2,0.4-0.3c-0.2-0.1-0.3-0.2-0.6-0.3c0,0.3,0,0.6,0,0.8c-0.2,0.5-0.4,1-0.6,1.5
		c-0.6,0.1-1.1,0.4-1.3,1c-0.2,0.5-0.6,0.8-1,1c0,0.2,0,0.4-0.1,0.7c0,0.1,0.1,0,0.1,0c0-0.1,0-0.1-0.1-0.2c0,0.1-0.1,0.2,0,0.2
		c0.2-0.2,0.3-0.2,0.5-0.2c-0.2,0.5-0.4,1-0.7,1.5c-0.1-0.2-0.2-0.3-0.3-0.4c-0.1,0.1-0.2,0.2-0.4,0.4c-0.1-0.2-0.1-0.3-0.2-0.4
		c-0.4-0.1-0.7,0-1.1,0.2c0.1,0.1,0.2,0.2,0.4,0.3c-0.2,0-0.3,0-0.5,0.1c0.1,0.1,0.2,0.2,0.2,0.3c0,0,0.1,0,0.1,0c0,0.2,0,0.3,0,0.5
		c-0.1,0.2-0.2,0.3-0.4,0.5c0.1,0,0.2,0.1,0.3,0.1c0.2-0.1,0.3-0.3,0.4-0.4c0-0.1,0-0.2,0-0.4c0.1,0,0.3,0,0.4,0
		c0,0.1,0.1,0.2,0,0.2c-0.1,0.4-0.2,0.7-0.4,1.1c-0.3,0-0.5,0-0.8,0c-0.1-0.1-0.2-0.2-0.3-0.4c-0.1,0.4-0.4,0.6-0.2,0.9
		c0.2-0.1,0.3-0.2,0.4-0.3c0.1,0,0.3,0.1,0.5,0.2c0,0.2,0,0.4,0,0.7c-0.5,0.7-0.8,1.5-0.9,2.5c-0.1,0.6-0.1,1.3-0.4,1.8
		c-0.1,0.3-0.1,0.7,0,0.9c0.2,0.3,0.1,0.6,0.1,1c0,0.9,0.2,1.8,0.2,2.7c0,0.6,0.3,1.2,0.5,1.8c0,0.1,0.1,0.1,0.2,0.2
		c0,0.3,0,0.6,0.1,0.9c0.1,0.2,0.2,0.5,0.2,0.8c0,0.3,0.1,0.5,0.2,0.8c0,0.6,0.1,1.1,0.3,1.7c0.2,0.6,0.2,1.1,0.1,1.6
		c-0.1,0.5-0.1,0.9-0.1,1.3c0,0.9,0,0.9-0.6,1.6c0,0.1,0,0.3,0,0.4c-0.2,0.2-0.4,0.3-0.7,0.6c-0.4,0.1-1,0.1-1.6,0.2
		c-0.1-0.2-0.2-0.3-0.4-0.5c-0.1,0-0.3-0.1-0.5-0.2c-0.1,0.1-0.3,0.2-0.5,0.4c-0.2-0.4-0.7-0.3-0.8-0.8c-0.5,0.1-0.9-0.3-1.3-0.6
		c-0.1-0.2-0.1-0.5-0.2-0.8c-0.1-0.1-0.3-0.2-0.4-0.3c0-0.2,0-0.4,0-0.6C11.1,47.1,11,47,11,47c-0.2-0.5-0.3-0.9-0.4-1.3
		c-0.2-0.8-0.2-1.3,0.1-2c0.1-0.1,0.1-0.2,0.1-0.4c-0.1,0-0.2-0.1-0.3-0.1c0-0.1,0-0.2,0-0.4c0.1,0,0.2,0,0.3,0
		c0.2-0.2,0.3-0.3,0.5-0.5c0.1,0,0.1,0,0.2,0c0,0.4-0.1,0.8,0.3,1.1c0.1-0.2,0.2-0.4,0.3-0.6c0.2-0.6,0.5-1.1,0.2-1.7
		c0,0,0-0.1,0-0.2c-0.1-0.6-0.1-1.2-0.2-1.8c0-0.3-0.3-0.6-0.2-0.9c0.1-0.6,0.3-1.1,0.4-1.7c0-0.1,0.1-0.2,0.1-0.3
		c-0.1-0.4,0.1-0.8,0.2-1.3c0.1-0.6,0.2-1.2,0.3-1.7c0.1-0.6,0.1-1.3,0.4-1.8c0.1-0.1,0.1-0.2,0.3-0.5c0,0.6-0.2,1-0.3,1.5
		c-0.1,0.5-0.2,0.9-0.1,1.5c0.1-0.3,0.2-0.5,0.3-0.8c0.1,0.2,0.1,0.3,0.1,0.3c0.1-0.1,0.3-0.2,0.5-0.4c-0.1-0.1-0.1-0.2-0.1-0.2
		c0-0.4,0.1-0.8,0.1-1.1c-0.2-0.1-0.2-0.1-0.3-0.1c-0.1-0.4,0.3-0.3,0.4-0.5c-0.1-0.3-0.1-0.6-0.2-0.9c-0.1,0.2-0.2,0.3-0.4,0.5
		c-0.1-0.5,0-0.9,0.3-1.2c0.2-0.2,0.3-0.5,0.4-0.8c0,0,0.1,0,0.2,0c0,0.2,0,0.3,0,0.5c0,0-0.1,0-0.2,0.1c0.2,0.1,0.3,0.1,0.3-0.1
		c0.1-0.1,0.2-0.2,0.4-0.3C14.8,28.8,14.6,28.7,14.5,28.6z M17.1,27.4C17.1,27.4,17.1,27.4,17.1,27.4c0,0.1,0,0.1,0.1,0.2
		c0,0,0,0,0,0C17.2,27.4,17.2,27.4,17.1,27.4C17.1,27.4,17.1,27.4,17.1,27.4c0,0-0.1-0.1-0.1-0.1c0,0,0,0,0,0
		C17,27.3,17.1,27.4,17.1,27.4z M27.5,22.5C27.5,22.6,27.5,22.6,27.5,22.5c0,0.1,0,0.1,0.1,0.2c0,0,0,0,0,0
		C27.6,22.6,27.6,22.6,27.5,22.5C27.5,22.6,27.5,22.6,27.5,22.5c0,0-0.1-0.1-0.1-0.1c0,0,0,0,0,0C27.4,22.5,27.5,22.5,27.5,22.5z
		 M24.4,20.7C24.4,20.7,24.4,20.7,24.4,20.7c0,0.1,0,0.1,0.1,0.2c0,0,0,0,0,0c0,0-0.1-0.1-0.5-0.3c0.1,0.1,0.1,0.2,0.2,0.2
		C24.3,20.7,24.4,20.6,24.4,20.7C24.3,20.6,24.2,20.6,24.4,20.7z M15.3,31.2c-0.1,0.1-0.2,0.1-0.2,0.2c0,0.1,0,0.1,0.1,0.2
		c0-0.1,0.1-0.2-0.3,0.4c0.1-0.1,0.2-0.1,0.2-0.2c0-0.1,0-0.1-0.1-0.2C15,31.7,15,31.8,15.3,31.2z M26.8,21.8
		C26.8,21.8,26.7,21.8,26.8,21.8c0,0.1,0,0.1,0.1,0.2c0,0,0,0,0,0C26.9,21.8,26.8,21.8,26.8,21.8c-0.2-0.1-0.2-0.1-0.5,0
		C26.5,21.8,26.6,21.8,26.8,21.8z M19.5,24.5c-0.1,0-0.2,0-0.3-0.1c-0.3,0.5-0.7,0.9-0.7,1.6C19.1,25.6,19.2,25,19.5,24.5z M16,30.2
		c0,0.3,0,0.5,0,0.7c-0.1,0-0.2,0.1-0.3,0.1c0,0.1,0.1,0.3,0.1,0.5c0.2-0.2,0.4-0.3,0.5-0.5c0-0.3,0-0.6,0-0.9
		C16.2,30.2,16.1,30.2,16,30.2z M22.8,19.8c0.3,0.4,0.4,0.4,0.8,0.3C23.5,19.7,23.2,19.7,22.8,19.8z M15.6,31.8
		c-0.1,0.2-0.2,0.3-0.3,0.5c0.2,0,0.4,0,0.6,0C15.8,32.1,15.8,32,15.6,31.8z M15.5,33.1c0-0.4,0-0.4-0.2-0.4c0,0.1,0,0.3,0,0.4
		C15.4,33.1,15.4,33.1,15.5,33.1z M16,33.6c0,0-0.1,0-0.1,0c-0.1,0.1-0.1,0.3-0.2,0.4c0.2,0,0.2,0,0.3,0C16,33.9,16,33.8,16,33.6z
		 M13,34.2c0,0-0.1,0-0.1,0c0,0.1,0,0.3,0.1,0.4c0,0,0.1,0,0.1,0C13,34.5,13,34.4,13,34.2z M24.9,16c0,0,0-0.1,0-0.1
		c-0.1,0-0.2,0-0.3,0.1c0,0,0,0.1,0,0.1C24.7,16,24.8,16,24.9,16z M12.9,34.9c0,0-0.1,0-0.1,0c0,0.1,0,0.2,0.1,0.3c0,0,0.1,0,0.1,0
		C12.9,35,12.9,35,12.9,34.9z M14.3,31.4C14.3,31.4,14.2,31.4,14.3,31.4c-0.1,0.1-0.1,0.2-0.1,0.3c0,0,0.1,0,0.1,0
		C14.3,31.6,14.3,31.5,14.3,31.4z M15.3,33.6c0,0,0.1,0,0.1,0c0-0.1,0-0.2-0.1-0.3c0,0,0,0-0.1,0C15.3,33.4,15.3,33.5,15.3,33.6z
		 M15.2,33.8C15.2,33.8,15.2,33.8,15.2,33.8c0.1,0.1,0.1,0.1,0.2,0.1c0,0,0,0,0-0.1C15.4,33.8,15.3,33.8,15.2,33.8z M15.1,34.1
		C15.1,34.1,15.1,34.2,15.1,34.1c0.1,0.1,0.1,0.1,0.2,0.1c0,0,0,0,0-0.1C15.2,34.1,15.1,34.1,15.1,34.1z M23.9,20.4
		C23.9,20.4,23.9,20.4,23.9,20.4c-0.1,0.1-0.1,0.1-0.1,0.2c0,0,0,0,0.1,0C23.9,20.5,23.9,20.4,23.9,20.4z"/>
	<path class="st1" d="M61.7,23.8c0.2-0.1,0.3-0.3,0.5-0.4c0.2-0.1,0.3-0.3,0.5-0.4c0.1-0.1,0.2-0.2,0.4-0.4c0,0.1,0.1,0.2,0.1,0.3
		c0,0.1-0.1,0.1-0.2,0.2c0.2,0,0.3,0,0.5,0.1c0-0.2,0-0.4,0-0.4c0.2-0.2,0.4-0.4,0.6-0.7c0.1,0,0.3,0,0.5,0c0.1,0.1,0.1,0.2,0.2,0.4
		c0.1-0.2,0.2-0.3,0.2-0.4c0.3,0,0.3,0.2,0.4,0.5c0.3,0,0.5-0.1,0.8-0.1c0.1,0.4,0.1,0.9,0.2,1.5c0.1-0.2,0.1-0.3,0.2-0.4
		c0.1,0.2,0.2,0.3,0.3,0.4c0,0.4-0.1,0.8,0.2,1.3c-0.2-0.1-0.3-0.2-0.4-0.2c0,0-0.1,0.1-0.1,0.1c0,0.6,0.2,1.1,0.4,1.6
		c0.1,0.3,0.2,0.5,0.3,0.8c0,0.1-0.1,0.2-0.1,0.2c0.2,0.5,0.6,0.8,1,1.1c0.5,0.3,1,0.7,1,1.4c0.3,0.4,0.3,1,0.5,1.5
		c0.1,0,0.1,0,0.3,0.1c0,0.1,0,0.2,0,0.3c-0.3,0.5-0.1,0.9,0.2,1.4c0,0.6,0,1.2,0,1.9c0.3-0.2,0.1-0.4,0.1-0.6c0-0.2,0-0.4,0-0.6
		c0.1,0,0.2,0,0.3,0c-0.1,0.6-0.1,1.1-0.2,1.7c-0.1,0.1-0.1,0.1-0.2,0.2c0.2,0.3,0.2,0.7,0.1,1c-0.2,0.3,0.2,0.8-0.3,0.9
		c0.1,0.2,0.1,0.4,0.2,0.6c-0.1,0.1-0.2,0.1-0.3,0.1c0,0.4,0,0.8,0,1.1c-0.1,0.1-0.2,0.2-0.3,0.3c-0.1,0.5-0.1,0.9-0.2,1.3
		c0,0.1-0.2,0.2-0.3,0.3c0,0.3,0,0.7,0,1c0.3,0,0.3-0.2,0.3-0.5c0.1,0.2,0.2,0.4,0.3,0.5c-0.1,0.5-0.3,0.9-0.7,1.1
		c-0.4,0.1-0.4,0.4-0.5,0.6c-0.2,0.9-0.7,1.5-1.2,2.2c-0.1,0.2-0.4,0.3-0.6,0.5c-0.4,0.3-0.5,0.5-0.6,1c0.1,0,0.2,0.1,0.3,0.1
		c-0.1,0.1-0.1,0.2-0.2,0.3c-0.1,0-0.2,0-0.4,0c-0.1,0-0.3,0-0.4,0c-0.3,0.3-0.5,0.6-0.9,0.6c-0.4,0.1-0.7,0.5-1.1,0.3
		c-0.5-0.3-1.2,0.1-1.7-0.4c-0.9-0.1-1.8-0.2-2.6-0.2c-0.7-0.3-1.1-0.9-1.5-1.4c-0.4-0.5-0.7-1.1-1.1-1.7c-0.3,0.3-0.6,0.6-0.8,0.9
		c-0.5,0.8-1.2,1.3-1.8,2c-0.3,0.3-0.7,0.7-1.1,0.8c-0.3,0.1-0.6,0.3-0.9,0.3c-0.2,0-0.5,0.1-0.7,0.1c-0.2,0-0.5-0.1-0.6,0.2
		c0,0,0,0-0.1,0c-0.3-0.1-0.5-0.1-0.8-0.2c-0.2,0-0.5,0-0.7-0.1c-0.2-0.1-0.5-0.1-0.7-0.4c-0.1-0.1-0.3-0.2-0.5-0.2
		c-0.6,0-0.8-0.5-0.9-0.9c-0.1-0.4-0.1-0.8-0.6-1c-0.4-0.2-0.4-0.7-0.5-1c-0.3-0.8-0.5-1.7-0.6-2.5c-0.1-0.4-0.2-0.8-0.3-1.3
		c0,0-0.1-0.1-0.2-0.1c-0.3,0.8-0.3,1-0.1,1.5c0,0,0,0.1-0.1,0.1c-0.1,0-0.1,0-0.2,0c-0.1-0.6-0.2-1.2-0.5-1.7
		C44,42,44,41.8,44,41.7c0-0.8,0-1.6,0-2.3c0-0.4,0-0.9,0.2-1.3c0.2-0.7,0.3-1.4,0.3-2.1c0-0.3,0.1-0.6,0.2-0.8
		c0.4-0.7,0.6-1.5,1.1-2.1c0.1-0.1,0.1-0.3,0-0.4c-0.2-0.3-0.1-0.6,0-1c0-0.1,0-0.3,0-0.4c0.4-0.7,0.6-1.6,1.6-1.7
		c0-0.4,0-0.8,0-1.1c0.2-0.2,0.4-0.3,0.6-0.6c0.2,0.1,0.5,0.1,0.7,0.2c0.3-0.4-0.1-0.6-0.1-0.9c0-0.3,0-0.6,0-0.9c0.2,0,0.4,0,0.6,0
		c0.3,0.6,0.4,0.7,1,0.8c0.2,0.3,0.3,0.6,0.4,0.9c0.3,0.5,0.8,0.9,1.1,1.4c0.5,0.7,1.1,1.3,1.6,1.9c0.2,0.2,0.3,0.6,0.5,0.9
		c-0.1,0.2-0.3,0.3-0.4,0.4c-0.1,0.2-0.3,0.4-0.3,0.6c0,0.5-0.1,1-0.3,1.5c-0.1,0.1-0.3,0.1-0.5,0.2c-0.2,0.1-0.3,0.1-0.5,0.2
		c-0.1,0.2-0.2,0.4-0.3,0.6c-0.5,0-1.1-0.4-1.5,0.1c-0.7,0.2-1.3-0.3-1.9-0.3c0-0.1,0-0.2,0-0.4c-0.3,0-0.5,0-0.8,0
		c0,0.3,0,0.5,0,0.8c0.3,0.3,0.5,0.6,0.8,0.9c0,0.3,0,0.5,0,0.7c-0.3,0.4-0.6,0.7-0.9,1.1c0,0.2,0,0.4,0,0.7
		c0.4-0.1,0.2-0.5,0.4-0.9c0.1,0.5,0.1,0.9-0.1,1.3c-0.1,0.3-0.2,0.5-0.4,1c0.2-0.1,0.3-0.2,0.4-0.2c0,0.1,0,0.2,0.1,0.2
		c-0.1,0-0.2,0.1-0.3,0.1c0,0,0,0.1,0,0.1c0.2,0.2,0.1,0.4,0.2,0.6c0,0.3,0,0.7,0.1,1c0.2,0.7,0.5,1.4,1,1.9
		c0.2,0.3,0.4,0.6,0.8,0.8c0.2,0.1,0.2,0.3,0.4,0.5c0.9-0.4,1.5-1,2-1.8c0.1,0.2,0.2,0.3,0.3,0.6c0.2-0.3,0.6-0.3,0.6-0.7
		c0.1,0.1,0.3,0.1,0.4,0.2c0.2-0.1,0.3-0.2,0.3-0.5c0.1,0,0.2,0,0.2,0c0.2-0.2,0-0.4-0.1-0.6c0.2-0.4,0.3-0.7,0.5-1.1
		c0.1,0.1,0.1,0.1,0.3,0.2c-0.1-0.6-0.1-1.2-0.2-1.7c0.1-0.2,0.2-0.3,0.3-0.5c0,0.6,0,1,0,1.4c0.2,0.2,0.4,0.4,0.7,0.2
		c0-0.1-0.1-0.2-0.1-0.2c0-0.1-0.1-0.2-0.1-0.4c0.3,0.1,0.4,0.1,0.6,0.2c0.2,0,0.3,0,0.5,0.1c0.3-0.4,0.5-0.8,0.6-1.4
		c0.1-0.7,0.2-1.3,0.3-2c0-0.2,0.1-0.5,0.2-0.7c0.2-0.3,0.2-0.6,0.3-1c0.1,0.1,0.2,0.1,0.3,0.2c0.9-0.8,1.8-1.7,3.2-1.1
		c0.1-0.1,0.2-0.2,0.4-0.3c0.7,0.3,0.6,1.2,1.3,1.5c0,0.1,0,0.3,0,0.4c0.4,0.5,0.8,1,1.3,1.4c0,0.2,0,0.4,0,0.5c0.1,0.9-0.4,1.5-1,2
		c-0.6,0.5-1.3,1-1.8,1.5c0.3,1,0.7,1.7,1.9,2.3c0.2-0.1,0.4-0.2,0.6-0.2c0.2-0.4,0.5-0.7,0.6-1.1c0.2-0.7,0.5-1.4,0.7-2.1
		c0.1-0.3,0-0.4-0.1-0.6c0.2-0.3,0.3-0.7,0.3-1.1c0-0.5,0.1-1.1,0.2-1.7c0.1,0,0.3,0,0.4,0c0,0.2,0,0.5,0.1,0.7c0,0,0.1,0,0.1,0
		c0-0.2,0-0.5,0-0.8c0.2,0.1,0.3,0.2,0.5,0.2c0,0.5,0,1,0,1.7c0.5-0.8,0.2-1.6,0.4-2.3c0,0.2,0,0.4,0.1,0.6c0.2-0.9,0.2-1.4,0-1.9
		c0.3-0.3,0.1-0.7,0.2-1.1c-0.3-0.4-0.6-1-1-1.4c-0.4-0.4-0.9-0.8-1.3-1.2c-0.2,0.2-0.4,0.3-0.6,0.5c-0.3,0-0.7,0-1,0
		c-0.3,0-0.6-0.1-0.8-0.2c-0.3-0.3-0.7-0.7-1-1c-0.1-0.3-0.2-0.6-0.2-0.8c-0.3-0.1-0.6-0.1-1-0.2c-0.2-0.5-0.3-0.9-0.1-1.5
		c0.1-0.3,0.1-0.8-0.1-1.2c-0.1-0.2-0.1-0.4-0.1-0.6c0.2-0.4,0.2-0.9,0.3-1.3c0.1-0.2,0.2-0.4,0.3-0.6c0.3-0.4,0.8-0.7,1.2-1
		C61.6,24,61.6,23.9,61.7,23.8z M61.6,44.3C61.6,44.3,61.6,44.3,61.6,44.3c0,0.1,0,0.1,0.1,0.2c0,0,0,0,0,0
		C61.7,44.4,61.6,44.4,61.6,44.3c0-0.4-0.3-0.5-0.6-0.7c0,0.3,0,0.4,0.1,0.6C61.2,44.4,61.4,44.3,61.6,44.3z M59.4,48.2
		c-0.1-0.1-0.1-0.1-0.2-0.2c0.1-0.1,0.1-0.3,0.1-0.3c-0.4-0.4-0.8-0.8-1.2-1.2c0,0-0.1,0-0.3,0c0.2,0.3,0.3,0.6,0.6,0.9
		c0.2,0.3,0.3,0.7,0.9,0.7C59.3,48.1,59.4,48.2,59.4,48.2c0.1,0.1,0.2,0.2,0.3,0.2c0,0-0.1,0.1-0.1,0.1c0.2,0,0.4,0,0.7-0.1
		c-0.3-0.2-0.5-0.4-0.7-0.6c0,0,0,0-0.1,0C59.6,48.1,59.5,48.2,59.4,48.2z M60.8,35.8c0.1-0.2,0.2-0.4,0.2-0.6c-0.6,0-1,0-1.4,0.4
		C59.9,35.8,60.4,35.4,60.8,35.8z M69.3,31.3c-0.1,0.2-0.2,0.5,0,0.9C69.3,31.8,69.3,31.5,69.3,31.3z M60.5,35.9
		C60.5,35.9,60.5,35.8,60.5,35.9c-0.2-0.1-0.3-0.1-0.5-0.1c0,0,0,0.1,0,0.1C60.2,35.9,60.3,35.9,60.5,35.9z"/>
	<path class="st2" d="M92.4,46.8c0.2,0,0.4,0,0.5,0c0.1,0.1,0.3,0.2,0.4,0.4c0.3-0.7,0.6-1.4,0.9-2.1c0,0,0.2,0,0.3,0
		c0.1-0.2,0.1-0.3,0.2-0.5c0.1-0.1,0.2-0.2,0.2-0.4c0.2-0.7,0.4-1.3,0.6-2c0.1-0.3,0.2-0.5,0.4-0.8c0.1-0.5,0.1-1,0.2-1.5
		c-0.1,0-0.2-0.1-0.3-0.1c0.1-0.5,0.1-1.1,0.2-1.6c-0.1,0-0.1,0-0.3-0.1c0-0.8,0.5-1.6,0.3-2.4c-0.2,0-0.3,0.1-0.6,0.1
		c0-0.2,0-0.4-0.1-0.7c-0.1,0.1-0.3,0.2-0.4,0.4c-0.1-0.4-0.1-0.7,0.2-1c-0.2-0.1-0.3-0.2-0.4-0.2c0,0.1-0.1,0.2-0.1,0.3
		c-0.1,0-0.2,0-0.4,0c-0.1-0.1-0.1-0.4,0-0.6c0.1-0.2,0.3-0.4,0.4-0.6c0.1-0.1,0.1-0.3,0.1-0.5c-0.2,0.1-0.3,0.1-0.5,0.2
		c0-0.3-0.1-0.6,0.2-0.8c-0.1-0.1-0.2-0.2-0.2-0.3c0.1-0.1,0.2-0.3,0.3-0.5c-0.1-0.1-0.1-0.3-0.2-0.6c0.3,0.1,0.4,0.2,0.5,0.2
		c0.2-0.2,0.4-0.4,0.6-0.6c0-0.1,0-0.3,0-0.5c0.4-0.4,0.7-0.7,1-1c0.1,0,0.2,0,0.3,0c0.1,0.2,0.2,0.4,0.3,0.7
		c0.4-0.2,0.7-0.6,1.3-0.5c0.4,0.5,0.7,1.1,0.7,1.8c0,0.3,0.1,0.7,0.1,1c0,0.4,0,0.7,0,1.1c-0.1,0.1-0.2,0.2-0.3,0.3
		c0.1,0.1,0.1,0.2,0.2,0.4c-0.3,0.1-0.6,0.2-1,0.3c-0.1,0.1-0.3,0.3-0.5,0.5c-0.3,0.4-0.3,0.8,0,1.2c0,0.1,0.1,0.1,0.2,0.2
		c0.6,0.4,0.8,1.1,1,1.8c0.2,0.6,0.3,1.3,0.5,1.9c0.1,0.7,0.3,1.4,0.5,2.1c0,0.2,0.2,0.4,0.3,0.7c0,0.3,0,0.6,0,1
		c0,0.2-0.1,0.3-0.1,0.5c-0.1,0.4-0.2,0.7-0.2,1.1c0,0.6,0,1.2,0,1.8c-0.4,0.7-0.6,1.4-0.8,2.1c-0.1,0.5-0.3,0.9-0.3,1.3
		c0,0.5-0.3,0.9-0.4,1.3c0,0.4-0.3,0.7-0.5,1.2c0-0.3-0.1-0.5-0.1-0.7c0,0-0.1,0-0.1,0c0,0.2,0,0.4-0.1,0.6c-0.1,0-0.1,0-0.2,0
		c0,0.1-0.1,0.2-0.1,0.3c-0.4,0-0.6,0.2-0.6,0.6c-0.1,0-0.2,0-0.3,0c-0.2-0.2-0.4-0.3-0.6-0.5c0,0,0,0,0,0c0,0-0.1-0.1-0.1-0.1
		c0,0,0,0,0,0c0,0,0.1,0.1,0.1,0.1c0,0.1,0,0.3,0,0.4c-0.1,0-0.3,0-0.4,0c-0.1-0.1-0.2-0.2-0.2-0.3c-0.3-0.8-1-1.3-1.7-1.7
		c-0.2-0.1-0.4-0.3-0.5-0.5c-0.2-0.2-0.3-0.5-0.6-0.6c-0.8-0.3-1.3-0.9-2-1.6c-0.1,0-0.2,0-0.3,0c-0.1-0.1-0.3-0.2-0.3-0.3
		c-0.1-0.3-0.4-0.4-0.6-0.5c-0.2-0.7-1.2-0.9-1.2-1.8c-0.5,0-0.7-0.6-1-0.8c-0.2,0.5-0.2,1-0.5,1.4c-0.1,0.1,0,0.2,0,0.4
		c0,0.5,0,0.9,0,1.5c-0.2,0-0.3,0.1-0.5,0.2c-0.1-0.2-0.2-0.3-0.3-0.5c0,0.1,0,0.2,0,0.3c0,0.1,0,0.2,0,0.3c0.1,0,0.2,0,0.3,0
		c-0.1,0.3-0.1,0.6-0.2,1c-0.3-0.1-0.5-0.2-0.7-0.2c-0.1-0.2,0.1-0.6-0.4-0.7c-0.1,0-0.3,0-0.5,0c-0.2-0.2-0.3-0.3-0.4-0.4
		c0-0.3,0-0.6,0-1c-0.1,0-0.2,0-0.4,0c-0.1-0.2-0.4-0.4-0.4-0.6c0-0.5-0.3-0.9-0.3-1.4c0-0.5-0.1-0.9,0-1.4c0-0.2,0.2-0.5,0.4-0.8
		c0-0.1,0-0.3,0-0.5c0.1,0,0.2-0.1,0.3-0.1c0-0.1,0-0.3,0-0.4c0.5-0.7,1.2-1.3,1.1-2.3c-0.2,0.1-0.4,0.1-0.6,0.2c0-0.1,0-0.2,0-0.3
		c0.1,0,0.2-0.1,0.3-0.1c-0.1-0.1-0.3-0.1-0.3-0.2c0-0.5,0-0.8,0-1.1c0.2-0.1,0.4-0.2,0.6-0.3c-0.4-0.5,0-0.9,0.1-1.4
		c0.2-0.1,0.4-0.3,0.6-0.4c0,0,0.1,0,0.2,0.1c0.1,0.1,0.3,0.3,0.6,0.2c0.1-0.1,0.2-0.3,0.3-0.4c0.2,0,0.3,0,0.4,0
		c0.5,0.4,0.8,0.8,1,1.4c0.3,0.7,0.5,1.4,0.2,2.2c-0.1,0.2-0.1,0.3-0.2,0.5c0,0.3,0,0.5,0,0.8c0.3,0.4,0.6,0.9,0.9,1.3
		c0.1,0.1,0,0.3,0,0.4c0.7,0.5,0.8,1.3,1.4,1.9c0,0,0,0.2,0,0.2c0.3,0.2,0.6,0.4,0.9,0.6c0,0.3,0,0.5,0,0.7c0.1,0,0.2,0.1,0.4,0.1
		c-0.3,0.1-0.5,0.2-0.8,0.3c0,0.2,0,0.4,0,0.6c-0.1,0-0.2,0.1-0.3,0.1c0,0.1,0,0.1,0,0.2c0.3,0,0.6,0,0.8,0c0.3,0.1,0.3,0.4,0.6,0.4
		c0,0,0.1,0.1,0.1,0.1c0.3,0.1,0.4-0.2,0.7-0.3c0,0,0-0.1,0-0.2c-0.1,0-0.2,0-0.3,0c-0.1,0.1-0.3,0.2-0.4,0.3c0-0.1,0-0.2,0-0.3
		c-0.2-0.3-0.4-0.6-0.6-0.9c0.5-0.1,0.9-0.2,1.3-0.7C92.3,46.5,92.4,46.7,92.4,46.8c-0.1,0-0.1,0-0.2,0c-0.1,0.1-0.1,0.3-0.2,0.4
		c0,0,0,0,0,0c0.1,0,0.2,0,0.4,0C92.4,47.1,92.4,47,92.4,46.8z M95.2,32.1c-0.1,0.1-0.2,0.1-0.2,0.2c0,0.1,0,0.1,0.1,0.2
		c0-0.1,0.1-0.2-0.1,0c0,0,0,0,0,0c0,0-0.1,0.1-0.1,0.1c0,0,0,0,0,0C95,32.6,95,32.6,95.2,32.1z M88.9,44c-0.8-0.5-0.8-1.5-1.3-2.1
		c0,0.3,0,0.6,0.1,0.8c0.1,0.2,0.2,0.5,0.3,0.7c-0.1,0.1-0.1,0.2-0.2,0.3c0.2,0.2,0.3,0.5,0.5,0.7c0.3,0.3,0.4,0.6,0.4,0.9
		c0.3,0.2,0.5,0.3,0.8,0.5c-0.1-0.3,0-0.5-0.1-0.6c-0.2-0.3-0.5-0.6-0.8-0.9c0,0,0-0.1,0-0.1C88.7,44.2,88.8,44.1,88.9,44z
		 M94.9,31.8c0.1,0.1,0.3,0.1,0.5,0.2c-0.1-0.3,0.3-0.5,0.1-0.8C95.2,31.5,95.1,31.6,94.9,31.8z M97,36.5c0-0.3,0-0.5,0-0.7
		c-0.1,0-0.2,0-0.3,0c0,0.3,0,0.5,0,0.7C96.9,36.5,96.9,36.5,97,36.5z"/>
	<path class="st3" d="M25.8,31.9c0.2-0.4,0.2-0.8,0.1-1.3c-0.1-0.4,0-1,0-1.4c0.3-0.2,0.6-0.5,0.8-0.6c0.1-0.4,0.2-0.7,0.3-1
		c0.3-0.2,0.6-0.3,1-0.5c0.4,0.3,1.1,0.2,1,1c0.3,0,0.5,0,0.8,0c0.3,0.4,0.7,0.8,1,1.2c0,0.8,0.2,1.5,0.5,2.1c0,0.1,0.1,0.2,0.1,0.3
		c0.1,0.9,0.7,1.7,0.4,2.7c-0.2,0.4-0.3,0.9-0.9,1.1c-0.3,0-0.7,0.1-1-0.1c0,0-0.2,0-0.2,0c-0.7,0.4-1.2-0.1-1.7-0.5
		c-0.3-0.2-0.6-0.6-0.9-0.8c-0.2,0.5-0.2,0.5,0.4,0.8c0.8,2.4,1.9,4.7,3.7,6.6c0,0,0,0,0,0c0,0.2,0,0.4,0,0.6c0.1,0,0.2,0.1,0.3,0.1
		c0,0.3,0,0.4,0,0.7c0.1,0.1,0.3,0.3,0.4,0.3c0.1,0.3,0.2,0.5,0.2,0.7c0.1,0.5,0.2,1.1,0.3,1.6c0.1,0.4,0.2,0.8,0.5,1.1
		c0.2,0.2,0.3,0.4,0.3,0.7c0,0.2,0.1,0.3,0.2,0.5c0.4,0.6,0.6,1.2,0.4,1.9c-0.4,0-0.7,0-1.2,0c0-0.1-0.1-0.2-0.2-0.3
		c-0.2,0-0.4,0-0.6,0c-0.4-0.3-0.8-0.6-1.1-0.9c-0.5-0.5-0.9-1.1-0.9-1.9c0-0.1,0-0.2,0-0.3c-0.2,0-0.3,0-0.6,0
		c-0.5,0.6-1.2,0.8-2,0.8c-0.4,0-0.7,0-1.1,0c-0.1,0.1-0.1,0.1-0.2,0.2c-0.1,0.4-0.2,0.9-0.2,1.3c0,0.4,0,0.8,0,1.3
		c-0.1,0.1-0.1,0.1-0.2,0.2c-0.3,0-0.6-0.1-0.9,0c-0.2,0.1-0.5,0.2-0.6,0.6c-0.4,0-0.5-0.6-0.8-0.5c-0.2-0.3-0.4-0.5-0.6-0.7
		c-0.1,0-0.3,0-0.3,0c-0.5-0.7-0.9-1.4-1.3-2.1c-0.1-0.3-0.1-0.6-0.2-0.9c-0.2-0.5-0.2-0.9,0-1.4c0.1-0.4,0.2-0.7,0.3-1.1
		c0.1-0.2,0.3-0.5,0.5-0.7c0.2-0.3,0.4-0.5,0.4-0.9c0.1-0.5,0.3-1,0.5-1.4c0.2-0.6,0.5-1.1,0.7-1.7c0.1-0.4,0.1-0.8,0.3-1.2
		c0-0.1,0.1-0.3,0.1-0.4c-0.1-0.2-0.1-0.4-0.2-0.6c0.1,0,0.2-0.1,0.4-0.1c0-0.1,0-0.2,0-0.3c0-1.1,0.3-2.1,0.8-3
		c0.1-0.2,0.2-0.4,0.3-0.6C24.9,32.3,25.3,32,25.8,31.9z M26.3,36.9c0,0.1,0,0.3,0,0.4c-0.1,0.5,0.2,1,0.2,1.5c0,0.5,0,1,0,1.6
		c0,0.9,0,1.8,0,2.7c0.5,0,0.8-0.3,1.3-0.5c0.1,0,0.4,0,0.6,0.1c-0.1,0.3-0.2,0.6-0.3,0.8c0,0.1,0,0.1,0,0.2c0.1,0,0.3,0,0.3,0
		c0.4,0.2,0.6,0.7,1,0.8c0-0.1,0.1-0.1,0.1-0.2c-0.1-0.5-0.3-1.1-0.4-1.6c-0.2-0.7-0.6-1.4-0.9-2.1c-0.3-0.7-0.7-1.4-1-2.1
		C26.9,38,26.5,37.5,26.3,36.9z M24.4,35.7c-0.1-0.1-0.1-0.1-0.2-0.2c0,0,0,0-0.1,0c0.1,0.5-0.3,0.9-0.1,1.4
		C24.2,36.5,24.3,36.1,24.4,35.7z M25.6,38.6c0-0.3,0-0.5,0-0.8c0,0.3-0.5,0.4-0.2,0.8C25.5,38.6,25.5,38.6,25.6,38.6z M25.3,32.9
		C25.3,32.9,25.3,32.8,25.3,32.9c-0.1,0.1-0.2,0.2-0.3,0.4c0.1,0,0.2,0,0.3-0.1C25.3,33.1,25.3,33,25.3,32.9z M23.9,37.5
		c0-0.2,0-0.3,0-0.6c-0.1,0.3-0.2,0.4-0.3,0.6C23.8,37.5,23.8,37.5,23.9,37.5z M24.3,35.3c0,0,0.1,0,0.1,0c0-0.1,0-0.2-0.1-0.3
		c0,0-0.1,0-0.1,0C24.3,35.1,24.3,35.2,24.3,35.3z M24.4,34.6c0,0,0,0.1,0,0.1c0.1,0,0.2,0,0.3-0.1c0,0,0,0,0-0.1
		C24.6,34.6,24.5,34.6,24.4,34.6z M24.8,33.9C24.8,33.9,24.8,33.9,24.8,33.9c0.1-0.1,0.1-0.1,0.1-0.2c0,0,0,0-0.1,0
		C24.8,33.8,24.8,33.9,24.8,33.9z M24.6,34.1C24.6,34.1,24.6,34.2,24.6,34.1c0.1,0.1,0.1,0.1,0.2,0.1c0,0,0,0,0-0.1
		C24.7,34.1,24.6,34.1,24.6,34.1z"/>
	<path class="st4" d="M72.5,41.4c0,0,0.2,0,0.4,0c0.2-0.7,0.8-1.3,0.7-2.1c0.3-0.5,0.6-0.9,0.9-1.3c0.2-0.3,0.3-0.6,0.3-0.9
		c0.1-0.3,0.2-0.6,0.4-0.8c0.3-0.3,0.6-0.6,0.8-0.9c0.4-0.6,0.4-1.2,0.3-1.8c0-0.2-0.1-0.3-0.1-0.5c0-0.5-0.2-1-0.5-1.5
		c0-0.4,0-0.8,0-1.2c0.1-0.1,0.3-0.3,0.4-0.4c0.1-0.1,0.3-0.3,0.4-0.3c0.6,0,1.2,0,1.8,0.1c1,0.2,1.7,0.9,2.5,1.2
		c0.5,0.2,0.5,0.8,0.7,1.2c-0.1,0.8,0.2,1.5,0.2,2.3c0,0.1-0.1,0.2-0.1,0.4c0.2,0.6,0.4,1.3,0.3,2c-0.2,0-0.4,0-0.5,0
		c-0.3,0.3-0.6,0.6-1,0.8c-0.4,0.3-1,0.2-1.5,0.1c-0.2,0-0.4-0.1-0.6-0.2c-0.3,0.6-0.3,1.2,0,1.8c0.1,0.4,0.5,0.6,0.7,0.9
		c0.3,0.3,0.6,0.6,0.9,0.9c0.5,0.4,0.7,1,0.8,1.6c0.1,0.3,0.3,0.6,0.4,0.9c0.1,0.5,0.2,0.9,0.4,1.5c0,0-0.1,0.1-0.1,0.2
		c0.1,0.1,0.2,0.3,0.2,0.5c0,0.4,0.1,0.8,0.2,1.1c0.1,0.3,0.2,0.6-0.1,0.9c0.1,0,0.2,0,0.3,0.1c0,0.1,0,0.3,0,0.4
		c-0.6,0-1-0.3-1.2-0.9c-0.1,0.1-0.2,0.1-0.3,0.2c-0.7-0.2-1-0.9-1.6-1.2c0.2-0.7,0.4-1.4,0.3-2.2c-0.1,0.1-0.2,0.1-0.3,0.2
		c-0.4,0.1-0.7,0.3-0.9,0.7c-0.2,0.3-0.5,0.1-0.7,0.3c-0.4-0.1-0.8-0.1-1.1-0.1c-0.4,0.6-0.4,1.3-0.4,2.1c-0.2-0.1-0.3-0.1-0.5-0.2
		c0,0.2,0,0.4,0,0.6c0.2,0,0.3,0,0.4,0c0,0.1,0.1,0.1,0,0.2c-0.1,0.2-0.1,0.4-0.2,0.6c-0.3,0.4-0.7,0.8-1.1,1.3c-0.1,0-0.3,0-0.5,0
		c-0.1-0.1-0.2-0.2-0.4-0.4c0-0.1,0-0.4,0-0.5c-0.2-0.2-0.3-0.4-0.4-0.5c-0.3,0.1-0.5,0.4-0.7,0.6c-0.1,0-0.2,0-0.3,0
		c0-0.2,0-0.4,0-0.6c-0.4-0.3-0.7-0.6-1-0.9c0.2-0.6-0.1-1.2-0.3-1.7c-0.2-0.6-0.3-1.1-0.3-1.7c0.1-0.2,0.3-0.4,0.5-0.7
		c0-0.1,0-0.2,0-0.4c0.1-0.1,0.3-0.2,0.5-0.3c0,0.3,0,0.5,0,0.7c0.1-0.1,0.2-0.1,0.2-0.1c0-0.3,0-0.6-0.1-1
		c-0.1-0.3-0.1-0.8,0.2-1.2c0.1,0.1,0.2,0.2,0.3,0.3C72.2,41.6,72.3,41.5,72.5,41.4z M76.9,42.4c0.7,0,1.3,0,1.9,0
		c0.2-0.7-0.3-1.2-0.7-1.7c-0.4-0.5-0.8-0.9-1.2-1.2c-0.2,0-0.3,0-0.4,0c0.1,0.2,0.2,0.6,0.1,0.6c-0.3,0.3,0,0.7-0.2,1.1
		c-0.2,0.3-0.1,0.7-0.1,1.1c0.1,0.2,0.2,0.3,0.3,0.6C76.8,42.7,76.8,42.6,76.9,42.4z M81,45.9c0.1-0.8,0-1.5-0.3-2.1
		c-0.1-0.1-0.2-0.2-0.4-0.3c-0.2,0.9,0.3,1.6,0.3,2.4C80.7,45.9,80.9,45.9,81,45.9z M75.9,44.4c0,0.1,0,0.1,0,0.2
		c0.9-0.1,1.9-0.2,2.9-0.4c-0.2-0.3-0.5-0.5-0.8-0.4c-0.3,0.1-0.5,0.2-0.8,0.3c-0.3,0.1-0.6,0-0.9,0C76.1,44.3,76,44.4,75.9,44.4z
		 M79.3,41.5c-0.1,0.4,0.1,0.7,0.4,1c0.1,0,0.3,0,0.5-0.1c-0.2-0.3-0.4-0.6-0.6-0.8C79.6,41.5,79.5,41.5,79.3,41.5z M73.5,41
		c-0.1,0-0.1,0-0.2,0c-0.1,0.2-0.1,0.4-0.2,0.6c0,0.1,0,0.1,0,0.1c0.1-0.1,0.3-0.2,0.5-0.4C73.5,41.3,73.5,41.2,73.5,41z M73.7,40.6
		c0,0-0.1,0-0.1,0c0,0.1,0,0.2,0.1,0.3c0,0,0.1,0,0.1,0C73.7,40.8,73.7,40.7,73.7,40.6z"/>
	<path class="st2" d="M36.3,35.2c0.2-0.4,0.3-0.5,0.4-0.7c-0.1-0.2-0.2-0.5-0.4-0.7c0.1-0.1,0.1-0.1,0.2-0.2
		c-0.3-0.5-0.5-1.1-0.8-1.7c0.1-0.2,0.2-0.5,0.4-0.8c0.3,0,0.5-0.3,0.4-0.6c0.2,0,0.4,0,0.6,0c0.1-0.2,0.1-0.4,0.2-0.6
		c0.4,0,0.7,0,1,0c0.1,0.1,0.2,0.2,0.2,0.3c0.2,0,0.3,0,0.4,0c0.4,0.6,0.9,1.2,1.4,1.7c0.2,0.2,0.1,0.6,0.3,0.7
		c-0.1,0.4,0.2,0.6,0.4,0.9c0.2,0.4,0.4,0.7,0.4,1.2c0,0.3,0.2,0.6,0.2,0.9c0,0.7-0.2,1.4-0.4,2c0,0.1-0.2,0.3-0.1,0.4
		c0.3,0.4,0,0.8,0.2,1.2c0,0,0.1,0.1,0.2,0.2c-0.1,0.5,0.3,0.8,0.5,1.3c0.1,0.4-0.1,0.9-0.3,1.4c0,0.1-0.1,0.3,0,0.4
		c0.3,0.6,0.1,1.3,0.1,1.9c0,0.1,0,0.2-0.1,0.3c-0.1,0.3-0.1,0.5,0,0.8c0.2,0.5,0.1,1-0.3,1.4c-0.2,0-0.3,0-0.5,0c0,0.3,0,0.6,0,0.9
		c-0.2,0-0.4,0-0.6,0c-0.1-0.2-0.3-0.5-0.4-0.8c-0.3,0.3,0.1,0.5,0.1,0.7c-0.1,0.1-0.2,0.1-0.2,0.2c-0.2,0-0.4-0.1-0.6-0.4
		c-0.2,0-0.4,0-0.7,0c0,0,0-0.1,0-0.1c-0.5-0.3-0.9-0.5-1.4-0.8c-0.2-0.4-0.7-0.7-0.9-1.3c-0.1-0.5-0.2-1-0.5-1.5
		c-0.1,0-0.2,0-0.3,0c-1.2-0.9-1.1-2.2-1-3.5c0.1,0.1,0.3,0.1,0.4,0.2c0.1-0.3-0.1-0.4-0.3-0.5c-0.1,0.1-0.2,0.1-0.3,0.2
		c0-0.8,0-1.6,0-2.4c0.2-0.1,0.4-0.2,0.6-0.4c0.1,0,0.1,0.1,0.2,0.2c0-0.1,0.1-0.1,0.1-0.2c0-0.2-0.1-0.3-0.1-0.5c0-0.2,0-0.3,0-0.4
		c0.2-0.2,0.3-0.5,0.5-0.7c-0.1-0.1-0.2-0.1-0.4-0.2c0.1-0.1,0.2-0.3,0.3-0.4c0.1,0.1,0.2,0.2,0.3,0.2c0.1-0.3,0.2-0.5,0.3-0.8
		c0.1,0,0.1,0,0.2,0c0,0.2,0,0.3,0,0.5C36.4,35,36.4,35,36.3,35.2C36.3,35.3,36.4,35.2,36.3,35.2c0,0,0-0.1,0-0.2
		C36.3,35.1,36.3,35.2,36.3,35.2z M38,35.2c0-0.1,0-0.1,0-0.2c-0.2,0-0.3,0-0.5,0c0,0.2,0.1,0.3,0.1,0.5
		C37.7,35.4,37.9,35.3,38,35.2z M37.5,36.1c0-0.1,0-0.3,0-0.4c-0.1,0-0.2,0-0.3,0c0,0.1,0,0.3,0,0.4C37.3,36.1,37.4,36.1,37.5,36.1z
		 M35.6,38.5c0.1,0,0.2,0,0.3,0c0-0.1,0-0.2-0.1-0.3c-0.1,0-0.2,0-0.3,0.1C35.6,38.4,35.6,38.5,35.6,38.5z"/>
	<path class="st0" d="M94.1,22.3c-0.2,0.3-0.3,0.5-0.5,0.7c0,0.2,0,0.4,0,0.7c-0.1,0.1-0.3,0.2-0.5,0.3c0,0.2,0,0.4,0,0.6
		c-0.2,0.2-0.4,0.4-0.6,0.6c0,0.3,0,0.5,0,0.8c-0.3,0.2-0.3,0.5-0.3,0.9c0,0.7,0.1,1.3,0.3,1.9c0.1,0.4,0,0.9,0,1.3
		c-0.4,0.2-0.8,0.3-1.1,0.5c-0.2,0.1-0.3,0-0.5,0c-0.2-0.5-0.7-0.8-0.6-1.3c-0.3-0.3-0.5-0.8-1-0.9c-0.1-0.3-0.2-0.6-0.6-0.8
		c-0.8-0.4-1.5-1-2-1.8c-0.3-0.5-0.6-1-0.9-1.4c-0.2-0.1-0.4-0.1-0.7-0.2c0-0.5,0-1.1,0-1.6c0.2-0.2,0.3-0.5,0.3-0.9
		c0-0.8,0.3-1.5,0.7-2.1c0.3-0.4,0.4-0.8,0.7-1.2c0.2-0.2,0.2-0.6,0.3-0.9c0.1-0.2,0.1-0.5,0.1-0.7c0.1-0.3,0.2-0.7,0.5-1
		c0.2-0.2,0.2-0.5,0.3-0.9c0.1-0.1,0.4-0.4,0.7-0.7c0-0.3,0-0.6,0.3-0.9c0.3-0.3,0.4-0.7,0.5-1.1c0-0.2,0.1-0.3,0.2-0.5
		c0.5-0.2,0.8-0.8,1.3-1.2c0.2,0,0.4,0,0.6,0c0.2-0.3,0.4-0.6,0.7-0.9c0.5-0.1,1.1,0.1,1.6,0.3c0.2,0.1,0.5,0.3,0.7,0.4
		c0.3,0.1,0.6,0.2,0.9,0.3c0,0.4,0.5,0.4,0.8,0.7c0,0.4-0.5,0.7-0.6,1.2c0.1,0.2,0.2,0.4,0.4,0.8c0,0.2-0.1,0.5-0.1,0.9
		c0,0,0.1,0.1,0.1,0.2c-0.2,0.2-0.3,0.3-0.5,0.4c0,0.4,0,0.6,0,0.9c-0.3,0.2-0.5,0.5-0.8,0.8c0.1,0.3,0.1,0.5,0.2,0.9
		c-0.1,0.1-0.2,0.3-0.3,0.6c0,0.7-0.3,1.4-0.2,2.1c0,0.1-0.1,0.3-0.1,0.5C94,21.1,94.1,21.7,94.1,22.3z M91,27.4c0,0-0.1,0-0.1-0.1
		c-0.6-0.4-1.2-0.8-2.3-1.1c0.1,0.1,0.1,0.2,0.2,0.2c0.1,0,0.1,0,0.2-0.1c-0.1,0-0.2-0.1,0,0.1c0,0.3,0.2,0.5,0.5,0.6
		c0.4,0.2,0.7,0.4,0.9,0.7c-0.1,0.3,0.1,0.5,0.3,0.6c0.3,0.2,0.7,0.3,1,0.2c0.1-0.1,0.1-0.1,0.2-0.2c0-0.3,0-0.6,0-0.8
		c0-0.2,0-0.4-0.2-0.5c-0.2-0.2-0.1-0.4-0.1-0.6c0-0.3,0-0.6,0-0.8c0.3-0.6,0.6-1.1,0.4-1.8c-0.2-0.1-0.4-0.3-0.7-0.5
		c0.5,0,0.9,0,1.3,0c0.4-0.6,0.5-0.7,0.3-1.9c-0.3,0.3-0.6,0.2-0.9,0c0,0-0.1,0-0.1,0c0-0.1,0-0.1,0-0.2c0.1-0.1,0.2-0.1,0.2-0.1
		c0.7-0.1,1.1-0.5,1.3-1.2c-0.2-0.4-0.1-1-0.7-1.2c-0.4,0.4-0.8,0.8-1.3,1C91.1,20,91,20,90.7,19.7c0.8-1,1.9-1.3,3.1-1.1
		c0-0.3,0-0.5,0-0.7c-0.1-0.1-0.1-0.1-0.2-0.2c-0.7-0.2-1.4,0.1-2,0.1c-0.1-0.2-0.2-0.3-0.3-0.5c-0.6,0-1.2-0.1-1.6,0.5
		c0.2,0.1,0.5,0.1,0.5,0.5c-0.2,0.2-0.5,0.4-0.8,0.7c0.2,0,0.3,0,0.5,0c-0.3,0.6-0.9,0.7-1.5,0.6c-0.1,0.2-0.3,0.3-0.4,0.5
		c0.3,0.3,0.7,0.5,1.2,0.4c-0.1,0.4-0.1,0.7-0.2,1.1c0.2,0.1,0.4,0.3,0.6,0.4c0.6-0.5,0.6-0.6,0.6-1.1c0,0-0.1-0.1-0.1-0.1
		c-0.1,0-0.2,0-0.3,0c0-0.5,0.2-0.6,0.4-0.6c0,0.1,0,0.3,0,0.2c0.3,0.4,0.5,0.6,0.6,0.8c-0.1,0.3-0.3,0.5-0.4,0.7
		c0.3,0.2,0.6,0.5,0.9,0.5c0.3,0.1,0.6-0.1,0.9-0.1c0,0.2,0,0.3,0,0.5c-0.3,0-0.7,0-1,0c-0.3,0.2-0.5,0.4-0.7,0.5c0,0.3,0,0.6,0,0.7
		c0.1,0.6,0.9,0.1,0.9,0.8C91.1,25,91,25.4,91,25.8C91,26.3,91,26.9,91,27.4z M92.2,14.6C92,14.8,92,14.9,91.9,15
		c-0.4,0.7-0.7,1.5-0.2,2.3c0.7-0.2,1.5-0.4,2.2,0c0.2-0.1,0.3-0.2,0.6-0.2c-0.1-0.3-0.1-0.6-0.2-0.9c0.5-0.6,0.8-1.3,0.8-2.1
		c-0.1-0.1-0.1-0.1-0.2-0.2c-0.5-0.2-1,0.3-1.6,0c0.6-0.6,1.3-1.3,1.9-1.9c0-0.2,0-0.5,0-0.7c-0.2-0.2-0.4-0.5-0.7-0.3
		c-0.6,1.4-2,2-3.3,2.7c0-0.2,0-0.3,0-0.5c0.4-0.3,0.8-0.6,1.2-0.8c0.6-0.2,1.1-0.5,1.5-1c0-0.2,0-0.4,0-0.7c0,0,0-0.1,0-0.1
		C93.1,10,93,10,92.5,10c-0.3,0.4-0.6,0.8-1,1c-0.3,0.2-0.7,0.4-1,0.7C90,12,89.8,12.4,89.6,13c0,0.2,0,0.4,0,0.7
		c-0.6,0.4-1,1-1.1,1.7c-0.1,0.5,0,0.9,0.4,1.2c0.7,0,1.2-0.3,1.6-0.7c0.4-0.4,0.8-0.8,1.2-1.2C91.8,14.7,91.9,14.6,92.2,14.6z
		 M86.2,22.4c-0.1,0.6,0.1,1.1,0.6,1.5c0.3,0.2,0.4,0.5,0.5,0.8c0.1,0.3,0.3,0.7,0.7,0.7c0.2-0.2,0.3-0.4,0.5-0.6
		c0.3-0.5,0.3-1.1-0.1-1.6c0,0.3,0,0.5-0.4,0.6c-0.3-0.4-0.7-0.8-0.9-1.4c0.3-0.3,0.5-0.7,0.8-1.1c0.1-0.8-0.2-1.5-0.6-2.2
		c-0.2,0.2-0.4,0.4-0.7,0.6c0,0.6,0,1.2,0,1.7C86.5,21.8,86.3,22.1,86.2,22.4z M88.5,17c-0.2,0.2-0.4,0.4-0.6,0.6
		c-0.1,0.3-0.1,0.6-0.2,0.9c0.5,0.1,0.8,0.4,1.3,0.1c0.1-0.3,0.4-0.6,0.2-1C89,17.3,88.9,16.9,88.5,17z"/>
	<path class="st0" d="M74.4,59.3c-1.2,0-2.3,0-3.4,0c-0.1,0.9-0.3,1.8-0.5,2.9c0,0,0.2,0.1,0.3,0.1c0,0-0.1,0.1-0.1,0.1
		c0.2,0,0.5,0,0.7,0c0,0.1,0,0.3,0,0.4c-0.9,0-1.8,0-2.8,0c0-0.7,0.7-0.2,0.9-0.6c0.4-2,0.7-4.1,1-6.2c-0.2,0-0.5,0-0.7,0
		c-0.1-0.1-0.2-0.2-0.3-0.3c0.1-0.1,0.1-0.2,0.2-0.3c0.8,0,1.7,0,2.6,0c0.2,0.2,0,0.4-0.2,0.6c-0.2,0.1-0.5-0.1-0.7,0.2
		c-0.1,0.8-0.3,1.6-0.4,2.4c1.2,0,2.3,0,3.4,0c0.1-0.8,0.2-1.7,0.4-2.6c-0.2,0-0.5,0-0.7,0c0-0.2,0-0.4,0-0.6c0.8,0,1.6,0,2.4,0
		c0.1,0,0.2,0.1,0.3,0.3c-0.2,0.1-0.3,0.3-0.4,0.3c-0.2,0.1-0.4,0-0.6,0.2c-0.3,1.9-0.7,3.9-0.9,6c0,0,0.1,0,0.3,0.1
		c0,0-0.1,0.1-0.1,0.1c0.2,0,0.5,0,0.7,0c0,0.1,0,0.3,0,0.4c-0.9,0-1.8,0-2.8,0c0-0.1,0-0.3,0-0.4c0.2,0,0.5,0,0.7,0
		C74.1,61.4,74,60.3,74.4,59.3z"/>
	<path class="st2" d="M36.8,25.4c0.7-0.1,1.3,0.2,1.8,0.7c0.3,0.3,0.6,0.4,0.9,0.6c0.2,0.7,1,1.1,1,2c-0.2,0.1-0.4,0.3-0.6,0.5
		c-0.2,0.2-0.5,0-0.7,0.2c-0.1,0.1-0.4,0.1-0.5,0c-0.7-0.2-1.4-0.3-2.1-0.6c-0.3-0.2-0.7-0.3-1.1-0.4c-0.5-0.1-0.9-0.4-1.3-0.8
		c0.1-0.7,0.6-1.1,1.2-1.4C35.8,25.9,36.2,25.7,36.8,25.4z"/>
	<path class="st0" d="M42.2,62.8c-0.2,0.1-0.3,0.1-0.5,0.1c-0.1,0-0.3,0.1-0.5,0.1c0.1-0.5,0.1-0.9,0.2-1.2c0.1-0.2,0.1-0.4,0.1-0.6
		c0-0.2,0.1-0.4,0.1-0.6c0.1-0.4,0-0.8,0.2-1.1c0.2-0.3-0.1-0.8,0.3-1.1c-0.1-0.9,0.5-1.7,0.3-2.7c-0.2,0-0.5,0-0.8,0
		c0.1-0.2,0.2-0.3,0.2-0.4c0.6-0.1,1.1-0.3,1.7-0.4c0.2,0.6-0.1,1.1-0.1,1.6c-0.3,0.3,0,0.8-0.3,1c0,0.5-0.1,1-0.3,1.4
		c-0.1,0.1,0,0.3,0,0.5c0.3-0.4,0.5-0.6,0.8-0.9c0.4-0.5,0.9-0.7,1.4-0.9c0.3-0.1,0.4-0.1,0.8,0.1c0.1,0.8-0.2,1.6-0.4,2.4
		c-0.1,0.6-0.3,1.1-0.2,1.7c0.3-0.2,0.5-0.3,0.9-0.5c0,0.2,0,0.3,0.1,0.5c-0.6,0.3-1,0.9-1.8,1c-0.1-0.1-0.1-0.2-0.2-0.2
		c-0.2-0.7,0.2-1.4,0.3-2.1c0.1-0.7,0.3-1.3,0.4-1.9c-0.3-0.2-0.6,0-0.7,0.1c-0.5,0.5-1.1,0.9-1.4,1.7c-0.1,0.4-0.3,0.8-0.4,1.2
		C42.2,62.1,42.2,62.4,42.2,62.8z"/>
	<path class="st0" d="M22.7,56.2c-0.1,0.3-0.2,0.6-0.2,0.9c-0.1,0-0.3,0.1-0.6,0.2c0.1-0.7,0.1-1.3,0.2-1.9c1.9,0,3.8,0,5.7,0
		c-0.1,0.5-0.1,1.1-0.2,1.7c-0.1,0-0.3,0.1-0.5,0.2c0-0.4,0-0.8,0-1.1c-0.5,0-1,0-1.5,0c0,0-0.1,0.1-0.2,0.2c-0.1,0.5-0.1,1-0.2,1.5
		c0,0.2-0.1,0.5-0.2,0.7c0,0.2,0.1,0.5-0.1,0.7c-0.1,0.2,0,0.5-0.1,0.7c-0.2,0.6-0.2,1.3-0.3,2c0,0,0,0.1,0,0.1
		c0.1,0.1,0.1,0.1,0.2,0.2c0.2,0,0.4,0,0.7,0c0,0.1,0,0.3,0,0.4c-0.9,0-1.9,0-2.9,0c0-0.1,0-0.2,0-0.4c0.2,0,0.5,0,0.7,0
		c0.1-0.3,0.3-0.5,0.3-0.8c0-0.5,0.2-0.9,0.2-1.3c0-0.3,0.1-0.5,0.1-0.8c0-0.3-0.1-0.6,0.2-0.8c0,0,0-0.1,0-0.2
		c0.1-0.6,0.1-1.2,0.2-1.8c0-0.2,0.1-0.3,0.2-0.5C23.9,56.2,23.3,56.2,22.7,56.2z"/>
	<path class="st0" d="M51.2,59.2c0.5-1.2,1.1-2.2,1.9-3c0.3-0.4,0.8-0.6,1.3-0.8c0,0.3,0,0.6,0,1c-0.1,0-0.2,0.1-0.3,0.2
		c-0.1,0.1-0.2,0.1-0.3,0.1c-0.8,0.7-1.5,1.5-1.9,2.5c-0.3,0.7-0.6,1.4-0.6,2.2c0,0.4-0.1,0.7-0.2,1.1c0.4,0,0.6,0,0.9,0
		c0,0.2,0,0.3,0,0.5c-0.9,0-1.8,0-2.7,0c0-0.1,0-0.2,0-0.4c0.2,0,0.5,0,0.7-0.1c0.3-0.7,0.2-1.4,0.4-2.2c-0.3-1.3-0.6-2.7-1.4-3.9
		c-0.3,0-0.6,0-0.9,0c0-0.1,0-0.3,0-0.4c0.2-0.2,0.4-0.3,0.7-0.5c0.2,0,0.4,0,0.6,0c0.8,0.6,1,1.5,1.3,2.3
		C51,58.2,51.1,58.6,51.2,59.2z"/>
	<path class="st0" d="M35.4,57.9c0.3-0.1,0.6-0.1,0.9-0.2c0,0.4,0,0.6-0.1,0.9c-0.2,0.8-0.5,1.6-0.5,2.4c0,0.2-0.1,0.3-0.1,0.5
		c0,0.2,0,0.3,0,0.6c0.3-0.2,0.6-0.4,0.9-0.6c0,0.2,0,0.3,0,0.5c-0.4,0.3-0.9,0.7-1.4,1c-0.1-0.1-0.3-0.1-0.5-0.2c0-0.4,0-0.8,0-1.3
		c-0.2,0.1-0.3,0.2-0.5,0.3c-0.4,0.4-0.8,0.9-1.4,1.1c-0.1,0-0.2,0-0.4,0.1c-0.1-0.1-0.2-0.2-0.2-0.2c-0.1-1,0.2-1.9,0.4-2.8
		c0.1-0.4,0.3-0.9,0.2-1.3c-0.4-0.1-0.5,0.5-0.9,0.2c0-0.1,0-0.2,0-0.3c0.6-0.2,1-0.9,1.8-0.8c0.1,0.1,0.2,0.2,0.2,0.2
		c-0.3,1.4-0.7,2.7-0.8,4.2C34.5,61.1,35.1,59.6,35.4,57.9z M34.5,61.5c0.1-0.1,0.2-0.1,0.2-0.2c0-0.1,0-0.1-0.1-0.2
		c0,0.1-0.1,0.2,0.1,0c0,0,0,0,0,0c0,0,0.1-0.1,0.1-0.1c0,0,0,0,0,0C34.7,61,34.7,61.1,34.5,61.5z"/>
	<path class="st0" d="M59.2,62.1c1.5-0.9,2.2-2.3,2.4-4.1c0.4-0.3,0.5-0.3,0.9-0.3c0.2,0.5,0,1-0.2,1.5c-0.2,0.7-0.4,1.4-0.4,2.1
		c0,0.3-0.1,0.5-0.2,0.9c0.3-0.2,0.4-0.2,0.5-0.3c0.1-0.1,0.2-0.2,0.2-0.3c0.2,0,0.3,0,0.4,0c0,0.1,0,0.2,0,0.2
		c-0.4,0.5-0.9,0.8-1.4,1.1c-0.3,0.2-0.4,0.1-0.7-0.2c0.1-0.4,0.1-0.9,0.2-1.5c-0.8,0.6-1.3,1.5-2.2,1.8c-0.1-0.2-0.3-0.4-0.4-0.5
		c0,0-0.1,0.1-0.1,0.1c0-0.3-0.1-0.7,0-0.9c0.2-0.3,0-0.5,0.2-0.8c0.2-0.2,0-0.5,0.1-0.8c0.2-0.4,0.2-1,0.3-1.6
		c-0.2,0.1-0.4,0.2-0.4,0.3c-0.2,0.2-0.3,0.1-0.6,0.1c0.4-0.8,1.1-0.9,1.8-1.2c0.1,0.1,0.2,0.2,0.3,0.3
		C59.8,59.3,59.4,60.6,59.2,62.1z M61,61C61,61,61,61.1,61,61c0.1,0.1,0.1,0.1,0.2,0.1c0,0,0,0,0-0.1C61.1,61,61,61,61,61z"/>
	<path class="st0" d="M85,61.5c0,0.2,0,0.4,0,0.5c-0.3,0.2-0.5,0.4-0.8,0.6c-0.3,0.2-0.6,0.2-1.1,0.2c0-0.3,0-0.7,0-1.1
		c-0.2,0.1-0.3,0.1-0.4,0.2c-0.2,0.2-0.5,0.5-0.7,0.7c-0.2,0.2-0.5,0.3-0.7,0.4c-0.3-0.1-0.4-0.2-0.4-0.4c0.1-0.3-0.3-0.5-0.1-0.9
		c0.1-0.2,0.1-0.5,0.1-0.8c0-0.3,0.1-0.6,0.2-0.8c0.1-0.3,0.2-0.5,0.3-0.7c0.1-0.2,0.1-0.3,0.2-0.6c0.7-0.8,1.5-1.4,2.7-0.9
		c0.1-0.1,0.3-0.1,0.4-0.2c0.2,0.6,0,1-0.1,1.5c-0.2,0.7-0.3,1.3-0.4,2c0,0.3-0.3,0.5-0.1,0.9C84.5,61.9,84.7,61.7,85,61.5z
		 M82.7,58.5c-0.6,1.3-0.9,2.7-0.8,3.6c1.3-0.8,1.9-2.1,2.1-3.5C83.6,58.5,83,58.4,82.7,58.5z M83.2,61.6c0,0,0.1,0,0.1,0
		c0-0.1,0-0.2-0.1-0.3c0,0-0.1,0-0.1,0C83.2,61.4,83.2,61.5,83.2,61.6z"/>
	<path class="st0" d="M53.7,63c-0.2-0.2-0.5-0.4-0.7-0.6c-0.3-1-0.2-1.8,0.1-2.7c0.3-1,1-1.5,1.8-1.9c0.4,0,0.7,0,1.1,0
		c0.2,0.1,0.3,0.2,0.6,0.4c0.1,0.1,0.2,0.4,0.3,0.7c0,0.2,0,0.4,0,0.6c0.1,1-0.3,1.8-0.8,2.5C55.4,62.7,54.7,63.1,53.7,63z
		 M54.9,62.4c0.2-0.3,0.5-0.5,0.6-0.9c0.3-0.9,0.4-1.7,0.3-2.7c-0.1-0.2-0.2-0.3-0.3-0.5c-0.4,0-0.7,0-1.1,0c-0.6,1-0.8,2.2-0.8,3.3
		c0.2,0.2,0.4,0.5,0.5,0.7C54.4,62.4,54.6,62.4,54.9,62.4z"/>
	<path class="st0" d="M29.9,57.7c0.2,0.2,0.4,0.3,0.6,0.4c0.1,0.2,0.2,0.4,0.3,0.7c0,0.2,0,0.4,0,0.7c0.1,0.9-0.3,1.8-0.8,2.5
		c-0.4,0.6-1.1,1-1.9,1c-0.5,0-0.8-0.2-1-0.6c-0.3-0.6-0.4-1.3-0.2-2.1c0.1-0.5,0.2-0.9,0.5-1.3c0.3-0.5,0.7-0.8,1.2-1.1
		C29,57.6,29.5,57.7,29.9,57.7z M29.9,59.1c-0.1-0.6-0.4-0.8-0.7-0.9c-0.2,0.1-0.5,0.1-0.7,0.2c-0.1,0.3-0.3,0.5-0.4,0.8
		c-0.1,0.3-0.1,0.6-0.2,0.9c-0.1,0.3-0.1,0.6-0.1,0.9c0,0.3,0.1,0.6,0.1,1c0.1,0.1,0.3,0.2,0.4,0.4c0.2,0,0.5,0,0.7,0
		C29.9,61.4,29.9,60.2,29.9,59.1z"/>
	<path class="st0" d="M80,57.9c0.1,0.4,0.1,0.7,0.1,1c-0.5,1.3-1.7,1.4-2.6,1.8c0,0.4,0,0.9,0,1.3c0.1,0.1,0.1,0.1,0.2,0.2
		c0.2,0,0.5,0,0.6,0c0.6-0.1,0.9-0.6,1.5-0.6c0,0.4-0.3,0.6-0.6,0.7c-0.6,0.3-1.1,0.8-2,0.6c-0.2-0.1-0.5-0.4-0.7-0.6
		c0-0.1,0-0.2,0-0.2c-0.1-0.3-0.2-0.6-0.1-0.8c0.1-0.2,0.1-0.5,0.1-0.7c0.2-0.9,0.4-1.7,1.1-2.3c0.5-0.4,1-0.7,1.7-0.7
		C79.5,57.7,79.7,57.8,80,57.9z M78.9,58.3c-0.5,0-0.8,0.2-0.9,0.5c-0.2,0.4-0.4,0.7-0.4,1.2c0.8,0.1,1.1-0.4,1.5-0.8
		c0-0.2,0-0.4,0-0.6c0,0-0.1,0.1-0.1,0.1C79,58.5,79,58.4,78.9,58.3z"/>
	<path class="st0" d="M93.3,58.2c0,0.2,0,0.4,0,0.6c-0.3,0-0.7,0-1,0c-0.1,0.1-0.2,0.2-0.2,0.2c-0.2,1-0.4,2-0.6,3.1
		c0.5-0.2,0.8-0.4,1-0.6c0.1,0.1,0.2,0.1,0.4,0.2c-0.5,0.6-1.1,0.9-1.7,1.3C91.1,63,91,63,90.7,62.8c-0.1-0.7,0.1-1.3,0.2-2
		c0.1-0.6,0.2-1.3,0.4-2c-0.2,0-0.5,0-0.7-0.1c0-0.4,0-0.4,0.5-0.4c0.1-0.1,0.2-0.3,0.3-0.4c0.1-0.5,0.1-1,0.2-1.6
		c0.3-0.1,0.6-0.3,0.9-0.4c0.4,0.4-0.1,0.7,0,1.1c0,0.3-0.2,0.7-0.3,1.1C92.6,58.2,93,58.2,93.3,58.2z"/>
	<path class="st0" d="M39,58.6c-0.5,0.7-0.6,1.4-0.7,2c-0.2,0.6,0,1,0.5,1.6c0.6,0,0.7-0.1,1.9-0.8c0,0.1,0,0.2,0.1,0.4
		c-0.4,0.6-1.1,0.9-1.7,1.2c-0.2,0-0.5,0-0.8,0c-0.3-0.2-0.5-0.4-0.8-0.7c-0.1-0.4-0.1-0.7-0.1-1.1c0-0.7,0.4-1.7,0.7-2.4
		c0.2-0.4,0.5-0.4,0.7-0.6c0.4-0.4,1-0.6,1.6-0.5c0.2,0,0.5,0.1,0.8,0.2c-0.1,0.5-0.1,1-0.2,1.5c-0.1,0-0.2,0-0.4,0
		c-0.2-0.3,0.1-0.7-0.3-0.9C39.4,58.5,39.4,58.5,39,58.6z"/>
	<path class="st0" d="M63.5,59.1c-0.1-0.1-0.1-0.1-0.1-0.1c0-0.1,0-0.2,0-0.3c0.3-0.2,0.6-0.4,0.9-0.6c0.2-0.2,0.5-0.4,0.9-0.5
		c0.1,0.1,0.2,0.1,0.3,0.2c0,0.2,0,0.4,0,0.8c0.2-0.1,0.3-0.1,0.4-0.2c0.2-0.2,0.4-0.5,0.5-0.7c0.3,0,0.5,0,0.8,0
		c-0.1,0.5-0.1,0.9-0.2,1.4c-0.2-0.1-0.5-0.1-0.8-0.2c-1.1,1-1.3,2.4-1.6,3.8c-0.2,0.1-0.5,0.2-0.8,0.3c-0.3-0.5,0-1,0.1-1.4
		c0.1-0.4,0.1-0.8,0.3-1.1c0.2-0.6,0.2-1.2,0.2-2c-0.2,0.2-0.3,0.3-0.5,0.4C63.8,59,63.7,59.1,63.5,59.1z M65.4,59.1
		C65.4,59.1,65.4,59.1,65.4,59.1c0.1-0.1,0.1-0.2,0.1-0.3c0,0-0.1,0-0.1,0C65.4,58.9,65.4,59,65.4,59.1z"/>
	<path class="st0" d="M87.2,62.7c-0.2,0.1-0.5,0.2-0.8,0.3c-0.1-0.1-0.1-0.2-0.2-0.3c0.4-1.3,0.7-2.7,0.8-4.1
		c-0.3,0.2-0.6,0.4-0.9,0.6c0-0.2,0-0.3,0-0.5c0.6-0.3,1-0.9,1.7-1c0.3,0.2,0.4,0.3,0.2,0.7c-0.1,0.3-0.3,0.7-0.2,1.1
		c0.3-0.7,0.7-1.3,1.3-1.7c0.2,0,0.3,0,0.5,0c0,0.4,0,0.8,0,1.2c0,0-0.1,0.1-0.2,0.2C89.2,59,89,59,88.8,58.9
		C87.6,59.9,87.5,61.3,87.2,62.7z"/>
	<path class="st0" d="M11,38.6c0,0.3,0,0.6,0,0.8c0.2,0.3,0.3,0.6,0.5,0.9c-0.1,0.4-0.2,0.9-0.3,1.2c-0.2,0.2-0.5,0.4-0.7,0.5
		c0.1,0.1,0.1,0.2,0.2,0.4c-0.2,0-0.3,0-0.4,0c-0.4-0.2-0.5-0.6-0.5-0.9c0-0.5-0.1-1,0.1-1.5c0.2-0.4,0.1-0.9,0.2-1.4
		c0.2-0.2,0.2-0.6,0.6-0.5c0,0.1,0,0.1,0,0.2c0,0.1,0,0.2,0,0.3C10.9,38.6,11,38.6,11,38.6z"/>
	<path class="st2" d="M92.8,46.6c0.1-0.9,0.2-1.6,0.2-2.4c-0.2,0-0.4-0.1-0.6-0.1c0.2-0.2,0.3-0.3,0.4-0.5c0.1,0.2,0.1,0.3,0.2,0.4
		c0.3-0.1,0.5-0.2,0.8-0.4c0,0.1,0.1,0.2,0.1,0.3c-0.1,0-0.2,0.1-0.3,0.1c-0.1,0.7-0.2,1.5-0.2,2.3C93.3,46.4,93.1,46.5,92.8,46.6z"
		/>
	<path class="st0" d="M10.7,38.1c-0.1-0.1-0.1-0.2-0.2-0.4c0.2-0.2,0.7,0,0.6-0.5c-0.1,0-0.2,0-0.4,0c-0.1,0.1-0.2,0.2-0.3,0.4
		c0-0.5,0-0.8,0-1.3c0.2,0.1,0.5,0.2,0.7,0.3c0.1-0.2,0.2-0.4,0.3-0.6c0.1,0.1,0.2,0.2,0.3,0.4c0.2,0.3,0,0.4-0.2,0.6
		c-0.1,0.4,0.1,0.9-0.3,1.3c-0.1,0-0.1,0-0.2,0c-0.1-0.1-0.1-0.1-0.2-0.2S10.8,38.2,10.7,38.1z M11.2,36.9
		C11.2,36.9,11.2,37,11.2,36.9c0.1,0.1,0.1,0.1,0.2,0.1c0,0,0,0,0-0.1C11.3,36.9,11.3,36.9,11.2,36.9z"/>
	<path class="st2" d="M84,40c-0.3,0.4-0.5,0.7-0.7,1c-0.2,0.3-0.2,0.6-0.4,1c0,0,0.1,0.1,0.2,0.2c-0.1,0.3-0.4,0.6-0.4,1.1
		c0,0.1-0.2,0.2-0.4,0.3c0.1-0.6,0.4-1.1-0.1-1.6c0.2-0.3,0.4-0.6,0.6-0.8c0.2-0.3,0.4-0.5,0.4-0.9C83.4,40.3,83.6,40.2,84,40z"/>
	<path class="st1" d="M61.7,23.8c-0.1,0-0.3,0-0.5,0c-0.1,0.1-0.2,0.2-0.4,0.3c0-0.3,0-0.5,0-0.8c0.2-0.2,0.5-0.3,0.7-0.6
		c0.2-0.3,0.5-0.5,0.7-0.7c0.1,0.1,0.1,0.2,0.2,0.3c-0.1,0-0.2,0.1-0.3,0.1c-0.1,0.2,0.1,0.5-0.2,0.7C61.8,23.3,61.8,23.6,61.7,23.8
		z"/>
	<path class="st2" d="M94.2,43c0.1-0.3,0.2-0.5,0.3-0.8c0,0,0,0,0.1,0c0-0.3,0-0.7,0-1c0.1,0,0.2,0,0.3,0c0,0.1,0,0.3,0,0.4
		c0.1,0.1,0.2,0.1,0.4,0.2C95,42.3,94.7,42.7,94.2,43z"/>
	<path class="st0" d="M11.2,34.7c0.1-0.2,0.2-0.4,0.2-0.6c0.3-0.2,0.5,0.1,0.7,0.3c0-0.2,0.1-0.3,0.1-0.5c0.2,0.4,0.1,0.7,0.1,1.2
		c-0.2-0.2-0.3-0.3-0.4-0.4C11.7,34.7,11.5,34.7,11.2,34.7z"/>
	<path class="st2" d="M33.4,39.6c0.2,0.2,0.3,0.4,0.4,0.6c0,0.3,0.1,0.5,0.1,0.8c-0.2,0.2-0.4,0-0.4-0.2
		C33.4,40.5,33.2,40.1,33.4,39.6z"/>
	<path class="st0" d="M15.4,27.1c0.1-0.3,0.3-0.5,0.3-0.8c0-0.1,0.2-0.2,0.4-0.5c0,0.3,0,0.5,0.1,0.6c-0.1,0.1-0.1,0.1-0.2,0.2
		c-0.2,0-0.1,0.2-0.2,0.3C15.7,27,15.6,27,15.4,27.1z"/>
	<path class="st0" d="M19.1,27c-0.3,0.1-0.5,0.1-0.9,0.2c0-0.1,0-0.2-0.1-0.3c0.2,0,0.4,0,0.5-0.1c0.2-0.1,0.2-0.2,0.4-0.4
		C19.1,26.8,19.1,26.9,19.1,27z"/>
	<path class="st0" d="M9.7,43.9c0.3-0.2,0.5,0.1,0.6,0.2c-0.1,0.3-0.3,0.4-0.6,0.3C9.7,44.3,9.7,44.1,9.7,43.9z"/>
	<path class="st2" d="M95.6,40.6c-0.2,0.3-0.3,0.5-0.4,0.7c-0.1-0.3-0.2-0.4-0.4-0.7C95.1,40.6,95.3,40.6,95.6,40.6z"/>
	<path class="st2" d="M33.8,42c0-0.3,0-0.5,0-0.7c0.4,0.3,0.4,0.3,0.4,0.7C34.1,42,34,42,33.8,42z"/>
	<path class="st2" d="M33.5,38.5c-0.3-0.3-0.4-0.4-0.4-0.8c0,0,0.1,0,0.1,0C33.5,37.9,33.7,38.1,33.5,38.5z"/>
	<path class="st3" d="M14.5,29.2c0-0.2,0-0.3,0-0.5c0-0.1,0-0.1,0-0.2c0.2,0.1,0.3,0.2,0.6,0.3c-0.2,0.1-0.3,0.2-0.4,0.3
		C14.6,29.2,14.5,29.2,14.5,29.2z"/>
	<path class="st2" d="M35.2,35.3c-0.1,0.1-0.3,0.2-0.5,0.4c0-0.3,0-0.4,0-0.6c0.2,0,0.3,0,0.4,0C35.1,35.2,35.2,35.3,35.2,35.3z"/>
	<path class="st1" d="M60.2,23.2c0.1,0,0.2,0,0.3,0c0,0.2,0,0.4,0,0.6c-0.1,0-0.2,0-0.3,0C60.2,23.6,60.2,23.4,60.2,23.2z"/>
	<path class="st0" d="M11.5,35.5c0-0.1,0-0.3,0-0.4c0.3-0.1,0.4,0.1,0.5,0.4c-0.1,0-0.2,0-0.4,0.1C11.6,35.5,11.6,35.5,11.5,35.5z"
		/>
	<path class="st3" d="M11.5,35.5c0.1,0,0.1,0,0.2,0c0,0.1,0,0.3,0,0.4c-0.1,0-0.2,0-0.3,0C11.4,35.8,11.2,35.6,11.5,35.5z"/>
	<path class="st1" d="M53.3,43.2c-0.1,0-0.2,0-0.3,0c0-0.1,0-0.3,0-0.4c0.1,0,0.2,0,0.3,0C53.3,43,53.3,43.1,53.3,43.2z"/>
	<path class="st2" d="M94.7,40.7c-0.1,0-0.2,0-0.3,0c0-0.2,0-0.3,0-0.4c0.1,0,0.2,0,0.3,0C94.7,40.5,94.7,40.6,94.7,40.7z"/>
	<path class="st2" d="M83.5,39.7c-0.1,0.2-0.1,0.3-0.2,0.5c-0.1,0-0.2,0-0.3-0.1C83.1,39.8,83.2,39.6,83.5,39.7z"/>
	<path class="st0" d="M13.8,32.7c-0.1,0.2-0.2,0.3-0.4,0.5c0-0.2,0-0.4,0-0.6C13.5,32.7,13.6,32.7,13.8,32.7z"/>
	<path class="st1" d="M70.5,40.8c0-0.3,0-0.4,0-0.6c0.1,0,0.2,0.1,0.4,0.1C70.7,40.5,70.6,40.7,70.5,40.8z"/>
	<path class="st3" d="M12,32.5c0.1,0.1,0.1,0.1,0.2,0.2c-0.1,0-0.1,0.1-0.2,0.1c-0.1-0.1-0.1-0.1-0.2-0.2
		C11.9,32.6,11.9,32.6,12,32.5z"/>
	<path class="st3" d="M10.9,38.3c0.1,0.1,0.1,0.1,0.2,0.2c0,0.1,0,0.1,0,0.2c-0.1,0-0.2,0-0.3,0c0-0.1,0-0.2,0-0.3
		C10.8,38.3,10.8,38.3,10.9,38.3z"/>
	<path class="st2" d="M34.3,35.8c0.1,0,0.1,0,0.2,0c0,0.1,0,0.2,0.1,0.3c-0.1,0-0.2,0-0.3,0.1C34.3,36,34.3,35.9,34.3,35.8z"/>
	<path class="st3" d="M11.4,42.3c-0.1,0-0.1,0-0.2,0c0-0.1,0-0.3,0-0.4c0,0,0.1,0,0.1,0C11.3,42,11.3,42.2,11.4,42.3z"/>
	<path class="st3" d="M11.8,35.9c0.1,0,0.2,0,0.3,0c-0.1,0.1-0.1,0.2-0.2,0.3C11.8,36.2,11.8,36.1,11.8,35.9z"/>
	<path class="st3" d="M14,25.1c0.1,0,0.3,0,0.4,0c0,0,0,0.1,0,0.1c-0.2,0-0.3,0-0.5,0C14,25.2,14,25.1,14,25.1z"/>
	<path class="st3" d="M12,33c-0.1,0.1-0.1,0.1-0.2,0.2c0,0-0.1,0-0.2-0.1C11.8,33,11.9,33,12,33z"/>
	<path class="st3" d="M11.6,33.7c0.1-0.2,0.1-0.3,0.1-0.4c0,0.1,0.1,0.1,0.1,0.2C11.8,33.5,11.8,33.6,11.6,33.7z"/>
	<path class="st4" d="M72.3,41.4c0,0-0.1-0.1-0.1-0.1c0,0,0,0,0,0C72.3,41.3,72.3,41.3,72.3,41.4C72.3,41.4,72.3,41.4,72.3,41.4z"/>
	<path class="st3" d="M15.6,31.8c0.1,0.2,0.2,0.3,0.3,0.5c-0.2,0-0.4,0-0.6,0C15.4,32.1,15.5,32,15.6,31.8z"/>
	<path class="st3" d="M16,33.6c0,0.1,0,0.3,0,0.4c-0.1,0-0.2,0-0.3,0c0.1-0.2,0.1-0.3,0.2-0.4C15.9,33.6,16,33.6,16,33.6z"/>
	<path class="st3" d="M24.9,16c-0.1,0-0.2,0-0.3,0c0,0,0-0.1,0-0.1c0.1,0,0.2,0,0.3-0.1C24.9,15.9,24.9,16,24.9,16z"/>
	<path class="st3" d="M15.3,31.2c-0.1,0.2-0.1,0.3-0.1,0.4c0-0.1-0.1-0.1-0.1-0.2C15.1,31.3,15.2,31.3,15.3,31.2z"/>
	<path class="st3" d="M12.9,34.9c0,0.1,0,0.2,0,0.3c0,0-0.1,0-0.1,0c0-0.1,0-0.2-0.1-0.3C12.8,34.9,12.8,34.9,12.9,34.9z"/>
	<path class="st3" d="M14.9,32c0.1-0.2,0.1-0.3,0.1-0.4c0,0.1,0.1,0.1,0.1,0.2C15.1,31.8,15,31.9,14.9,32z"/>
	<path class="st3" d="M27.5,22.6c0,0-0.1-0.1-0.1-0.1c0,0,0,0,0,0C27.5,22.5,27.5,22.5,27.5,22.6C27.5,22.6,27.5,22.6,27.5,22.6z"/>
	<path class="st3" d="M27.5,22.5c0,0,0.1,0.1,0.1,0.1c0,0,0,0,0,0C27.6,22.7,27.6,22.6,27.5,22.5C27.5,22.6,27.5,22.6,27.5,22.5z"/>
	<path class="st3" d="M17.1,27.4c0,0-0.1-0.1-0.1-0.1c0,0,0,0,0,0C17.1,27.3,17.1,27.3,17.1,27.4C17.1,27.4,17.1,27.4,17.1,27.4z"/>
	<path class="st3" d="M17.1,27.4c0,0,0.1,0.1,0.1,0.1c0,0,0,0,0,0C17.2,27.5,17.1,27.4,17.1,27.4C17.1,27.4,17.1,27.4,17.1,27.4z"/>
	<path class="st3" d="M15.2,33.8c0.1,0,0.1,0,0.2,0c0,0,0,0,0,0.1C15.4,33.9,15.3,33.9,15.2,33.8C15.2,33.8,15.2,33.8,15.2,33.8z"/>
	<path class="st3" d="M15.1,34.1c0.1,0,0.1,0,0.2,0c0,0,0,0,0,0.1C15.2,34.2,15.1,34.2,15.1,34.1C15.1,34.2,15.1,34.1,15.1,34.1z"/>
	<path class="st3" d="M23.9,20.4c0,0.1,0,0.1,0,0.2c0,0,0,0-0.1,0C23.9,20.5,23.9,20.4,23.9,20.4C23.9,20.4,23.9,20.4,23.9,20.4z"/>
	<path class="st3" d="M91.9,21.5c0,0.2-0.2,0.2-0.3,0.1c0.1-0.1,0.2-0.2,0.3-0.2C91.9,21.4,91.9,21.4,91.9,21.5z"/>
	<path class="st3" d="M34.7,61.1c0,0,0.1-0.1,0.1-0.1c0,0,0,0,0,0C34.8,61.1,34.7,61.1,34.7,61.1C34.7,61.1,34.7,61.1,34.7,61.1z"/>
	<path class="st3" d="M61,61c0.1,0,0.1,0,0.2,0c0,0,0,0,0,0.1C61.1,61.1,61,61.1,61,61C61,61.1,61,61,61,61z"/>
	<path class="st0" d="M93.8,15.2c-0.4,0.4-0.4,1.1-1.1,1.4c-0.1-0.4,0-0.7-0.1-1.1c0.3-0.1,0.7-0.3,1-0.4
		C93.7,15.1,93.8,15.2,93.8,15.2z"/>
	<path class="st0" d="M92.1,14.6c0.1-0.1,0.1-0.1,0.2-0.2C92.2,14.5,92.1,14.6,92.1,14.6z"/>
	<path class="st0" d="M92.2,14.5c0,0,0.1-0.1,0.1-0.1c0,0,0,0,0,0C92.3,14.4,92.3,14.5,92.2,14.5C92.2,14.5,92.2,14.5,92.2,14.5z"/>
	<path class="st0" d="M91.7,20.6c0.2-0.3,0.3-0.6,0.5-0.9c0.1,0,0.1,0,0.2,0.1c0,0.2,0,0.3,0,0.5c-0.1,0.1-0.3,0.3-0.4,0.4
		C91.9,20.7,91.8,20.7,91.7,20.6z"/>
	<path class="st0" d="M89.9,18.9c0.1,0,0.2,0,0.3,0c0,0,0,0.1,0,0.1c-0.1,0-0.2,0-0.3,0.1C89.9,19,89.9,18.9,89.9,18.9z"/>
	<path class="st3" d="M91,27.4c0,0,0.1,0.1,0.1,0.1c0,0,0,0,0,0C91,27.5,91,27.4,91,27.4C91,27.4,91,27.4,91,27.4z"/>
</g>
</svg>
