<?xml version="1.0" encoding="utf-8"?>
<!-- Generator: Adobe Illustrator 20.0.0, SVG Export Plug-In . SVG Version: 6.00 Build 0)  -->
<svg version="1.1" id="圖層_1" xmlns="http://www.w3.org/2000/svg" xmlns:xlink="http://www.w3.org/1999/xlink" x="0px" y="0px"
	 viewBox="0 0 39.5 50.2" style="enable-background:new 0 0 39.5 50.2;" xml:space="preserve">
<style type="text/css">
	.st0{fill:#601986;}
	.st1{fill:#FFFFFF;}
</style>
<path class="st0" d="M32.6,10.5c1.3,2.3,1.3,4.2,1.3,6.1c-0.2,2.7-2.4,4.9-5.2,4.9c-2.9,0-5.1-2.3-5.3-5.3c-0.3-4.1,0.6-3.4,0.3-7.7
	c-0.3-3.4-1.5-6.5-4-8.6c0.6,0.9,0.9,2,0.9,3.2c0,2.4-1.5,4.5-3.6,5.4l0,0c-3.6,1.6-6.5,4.5-6.5,8c0,1.7,0.3,3.2,1,4.3
	c0.4,0.5,0.6,1.4,0.6,2.2c0,2.4-2,4.4-4.4,4.4s-4.3-1.8-4.4-4.2c0-1.8,0-3.2,1.1-5.4c0-0.1,0.1-0.2,0.1-0.2C1.7,21.2,0,25.6,0,30.4
	c0,10.9,8.8,19.8,19.8,19.8c10.9,0,19.8-8.8,19.8-19.8c0-6-0.7-9.4-1.9-12.7C36.3,14.1,34.3,12.1,32.6,10.5z"/>
<g>
	<path class="st1" d="M14.7,40.3h-1.2v-3.8H8.7v3.8H7.4v-8.8h1.2v3.8h4.8v-3.8h1.2V40.3z"/>
	<path class="st1" d="M23.7,35.9c0,1.3-0.3,2.3-1,3.2c-0.7,0.9-1.7,1.3-2.9,1.3s-2.2-0.4-2.9-1.3c-0.7-0.8-1-1.9-1-3.2
		c0-1.3,0.3-2.3,1-3.2c0.7-0.9,1.7-1.3,2.9-1.3s2.2,0.4,2.9,1.3C23.4,33.6,23.7,34.6,23.7,35.9z M22.5,35.9c0-1-0.2-1.8-0.7-2.4
		c-0.5-0.6-1.1-0.9-1.9-0.9c-0.8,0-1.4,0.3-1.9,0.9c-0.5,0.6-0.7,1.4-0.7,2.4s0.2,1.8,0.7,2.4c0.5,0.6,1.1,0.9,1.9,0.9
		c0.8,0,1.4-0.3,1.9-0.9C22.2,37.7,22.5,36.9,22.5,35.9z"/>
	<path class="st1" d="M32.1,32.7h-3.2v7.6h-1.2v-7.6h-3.2v-1.1h7.5V32.7z"/>
</g>
</svg>
