<?xml version="1.0" encoding="utf-8"?>
<!-- Generator: Adobe Illustrator 20.0.0, SVG Export Plug-In . SVG Version: 6.00 Build 0)  -->
<svg version="1.1" id="Layer_1" xmlns="http://www.w3.org/2000/svg" xmlns:xlink="http://www.w3.org/1999/xlink" x="0px" y="0px"
	 viewBox="0 0 50 50" style="enable-background:new 0 0 50 50;" xml:space="preserve">
<style type="text/css">
	.st0{fill:#FFFFFF;}
</style>
<path class="st0" d="M34.9,32.2L27.7,25l7.2-7.2c0.1-0.1,0.1-0.3,0-0.4l-2.3-2.3c-0.1-0.1-0.3-0.1-0.4,0L25,22.3l-7.2-7.2
	c-0.1-0.1-0.2-0.1-0.4,0l-2.3,2.3c-0.1,0.1-0.1,0.3,0,0.4l7.2,7.2l-7.2,7.2c-0.1,0.1-0.1,0.3,0,0.4l2.3,2.3c0.1,0.1,0.3,0.1,0.4,0
	l7.2-7.2l7.2,7.2c0.1,0.1,0.3,0.1,0.4,0l2.3-2.3C35,32.5,35,32.3,34.9,32.2z"/>
</svg>
