<?xml version="1.0" encoding="utf-8"?>
<!-- Generator: Adobe Illustrator 16.0.0, SVG Export Plug-In . SVG Version: 6.00 Build 0)  -->
<!DOCTYPE svg PUBLIC "-//W3C//DTD SVG 1.1//EN" "http://www.w3.org/Graphics/SVG/1.1/DTD/svg11.dtd">
<svg version="1.1" id="Capa_1" xmlns="http://www.w3.org/2000/svg" xmlns:xlink="http://www.w3.org/1999/xlink" x="0px" y="0px"
	 width="32.5px" height="30px" viewBox="0 0 32.5 30" enable-background="new 0 0 32.5 30" xml:space="preserve">
<g>
	<path fill="#FFFFFF" d="M25.906,15.11c-0.47-0.469-1.031-0.703-1.688-0.703h-0.797V11.22c0-0.331-0.084-0.697-0.25-1.095
		c-0.166-0.398-0.364-0.713-0.598-0.945l-1.893-1.893c-0.232-0.232-0.547-0.432-0.946-0.599c-0.397-0.166-0.764-0.249-1.096-0.249
		h-8.365c-0.332,0-0.614,0.116-0.847,0.35C9.195,7.021,9.08,7.304,9.08,7.635v6.771H8.283c-0.656,0-1.219,0.234-1.688,0.703
		c-0.469,0.471-0.704,1.032-0.704,1.688v5.179c0,0.106,0.04,0.201,0.118,0.28c0.078,0.078,0.172,0.119,0.279,0.119h2.789v1.991
		c0,0.331,0.116,0.614,0.349,0.847c0.231,0.23,0.515,0.349,0.847,0.349h11.953c0.331,0,0.613-0.117,0.846-0.349
		c0.233-0.232,0.35-0.516,0.35-0.847v-1.991h2.789c0.107,0,0.201-0.041,0.279-0.119c0.079-0.079,0.118-0.174,0.118-0.28v-5.179
		C26.608,16.143,26.375,15.58,25.906,15.11z M21.828,23.969H10.674v-3.188h11.154V23.969z M21.828,16H10.674V8.033h7.968v1.991
		c0,0.333,0.116,0.615,0.349,0.847c0.232,0.232,0.516,0.349,0.848,0.349h1.992V16H21.828z M24.779,17.357
		c-0.158,0.158-0.346,0.237-0.561,0.237c-0.217,0-0.402-0.079-0.561-0.237c-0.16-0.158-0.236-0.344-0.236-0.561
		c0-0.215,0.078-0.402,0.236-0.562C23.815,16.08,24.002,16,24.219,16c0.215,0,0.402,0.08,0.561,0.235
		c0.157,0.158,0.235,0.347,0.235,0.562C25.015,17.014,24.937,17.199,24.779,17.357z"/>
</g>
</svg>
