<?xml version="1.0" encoding="utf-8"?>
<!-- Generator: Adobe Illustrator 20.0.0, SVG Export Plug-In . SVG Version: 6.00 Build 0)  -->
<svg version="1.1" id="Artwork" xmlns="http://www.w3.org/2000/svg" xmlns:xlink="http://www.w3.org/1999/xlink" x="0px" y="0px"
	 viewBox="0 0 185.2 100" style="enable-background:new 0 0 185.2 100;" xml:space="preserve">
<style type="text/css">
	.st0{fill:#BFBFBF;}
	.st1{fill:#999999;}
	.st2{fill:#FDBB30;}
</style>
<g>
	<g>
		<path class="st0" d="M153.9,75.4H33.9c-17.2,0-31.3-14-31.3-31.3s14-31.3,31.3-31.3h120.1c17.2,0,31.3,14,31.3,31.3
			S171.2,75.4,153.9,75.4z M33.9,15.4C18,15.4,5.1,28.3,5.1,44.2C5.1,60,18,73,33.9,73h120.1c15.9,0,28.8-12.9,28.8-28.8
			c0-15.9-12.9-28.8-28.8-28.8H33.9z"/>
		<g>
			<path d="M139.5,26.7c-4.7,0-8.4,3.8-8.4,8.4c0,4.7,3.8,8.4,8.4,8.4c4.7,0,8.4-3.8,8.4-8.4C148,30.4,144.2,26.7,139.5,26.7z
				 M139.5,39.4c-2.4,0-4.3-1.9-4.3-4.3c0-2.4,1.9-4.3,4.3-4.3c2.4,0,4.3,1.9,4.3,4.3C143.9,37.5,141.9,39.4,139.5,39.4z"/>
			<path d="M100.8,26.7c-4.7,0-8.4,3.8-8.4,8.4c0,4.7,3.8,8.4,8.4,8.4c4.7,0,8.4-3.8,8.4-8.4C109.3,30.4,105.5,26.7,100.8,26.7z
				 M100.8,39.4c-2.4,0-4.3-1.9-4.3-4.3c0-2.4,1.9-4.3,4.3-4.3c2.4,0,4.3,1.9,4.3,4.3C105.2,37.5,103.2,39.4,100.8,39.4z"/>
			<path d="M130.6,39.7c-0.5,0.2-1.3,0.3-1.7,0.3c-1.4,0-1.8-0.5-1.8-1.9v-7.8h3.5v-3.3h-3.5v-4.6h-3.9l-0.8,4.6h-2.7v0h-0.2
				c-2.2,0-3.9,1.4-5,3.5l-1.3-3.5h-2.8v16.2h4.8v-7c0-3.6,2.1-5.8,4.6-5.9h2.6v8.1c0,3.8,1.9,5.2,5.1,5.2c1.6,0,2.9-0.3,3.6-0.6
				L130.6,39.7z"/>
			<path d="M153.7,32.2v11.1h-4.6V27.1h2.8l0.9,2.5"/>
			<path d="M152.8,29.5c1.4-1.6,3.3-2.9,5.6-2.9c3.9,0,5.4,3.1,5.4,5.9v10.7h-4.8V32.7c0-1.4-1.2-2.1-2.4-2.1
				c-1.3,0-2.2,0.8-2.9,1.6"/>
			<path d="M73.8,21.2h5.3l7.3,13.9V21.2h4.4v22.1H86L78.2,28v15.3h-4.4V21.2z"/>
		</g>
		<g>
			<g>
				<g>
					<path class="st1" d="M177.9,12.9v0.8h-1.2v3.9h-0.9v-3.9h-1.1v-0.8H177.9z"/>
					<path class="st1" d="M178.6,17.6v-4.7h1.2l0.8,3.1l0,0l0.8-3.1h1.2v4.7h-0.7v-3.7h0l-0.9,3.7h-0.7l-1-3.7h0v3.7H178.6z"/>
				</g>
			</g>
		</g>
		<g>
			<path class="st1" d="M72.5,62.8l1.1-1.7c0.9,0.7,2.2,1.3,3.9,1.3c1.6,0,2.6-0.7,2.6-2c0-1.4-1.2-1.8-3.3-2.5
				c-1.8-0.6-3.6-1.6-3.6-4.2c0-2.4,1.9-3.7,4.5-3.7c1.7,0,3,0.3,4,0.9l-0.9,1.8c-0.9-0.4-1.9-0.7-3.1-0.7c-1.4,0-2.3,0.5-2.3,1.7
				c0,1.3,1,1.7,2.9,2.3c2,0.6,4.1,1.5,4.1,4.4c0,2.4-1.7,4-4.8,4C75.2,64.4,73.5,63.6,72.5,62.8"/>
			<polygon class="st1" points="86.5,50.2 94.9,50.2 94.9,52.1 88.9,52.1 88.9,55.9 93.6,55.9 93.6,57.8 88.9,57.8 88.9,62.3 
				95.2,62.3 95.2,64.2 86.5,64.2 			"/>
			<path class="st1" d="M98.6,57.2c0-4.1,2-7.2,5.9-7.2c1.8,0,3.1,0.6,4.1,1.7l-1.4,1.6c-0.8-0.8-1.5-1.2-2.7-1.2
				c-2.3,0-3.4,1.9-3.4,5.3c0,3.3,1.1,4.9,3.4,4.9c1.3,0,2.1-0.7,2.9-1.5l1.4,1.6c-1,1.2-2.3,2-4.3,2
				C100.5,64.4,98.6,61.3,98.6,57.2"/>
			<path class="st1" d="M112.7,58.8v-8.7h2.4v9c0,1.9,0.5,3.2,2.5,3.2c2,0,2.5-1.3,2.5-3.2v-9h2.4v8.7c0,3.5-1.3,5.5-4.9,5.5
				C114.1,64.4,112.7,62.3,112.7,58.8"/>
			<path class="st1" d="M137.2,64.2h-2.6l-2.7-5.9h-2.2v5.9h-2.4v-14h4.6c2.8,0,5,1,5,4.1c0,2.1-1.3,3.1-2.7,3.6L137.2,64.2z
				 M131.8,56.4c1.8,0,2.7-0.6,2.7-2.2c0-1.6-0.9-2.1-2.6-2.1h-2.3v4.3H131.8z"/>
			<polygon class="st1" points="141.2,50.2 149.6,50.2 149.6,52.1 143.6,52.1 143.6,55.9 148.3,55.9 148.3,57.8 143.6,57.8 
				143.6,62.3 149.9,62.3 149.9,64.2 141.2,64.2 			"/>
			<path class="st1" d="M153.9,50.2h3.5c4.6,0,6.8,2.5,6.8,7c0,4.6-2.2,7.1-6.6,7.1h-3.6V50.2z M157.3,62.3c3.3,0,4.4-1.5,4.4-5.1
				c0-3.2-0.9-5-4.1-5h-1.3v10.1H157.3z"/>
		</g>
		<g>
			<g>
				<g>
					<path class="st2" d="M33.7,77.9C15.1,77.9,0,62.8,0,44.2c0-18.6,15.1-33.7,33.7-33.7c18.6,0,33.7,15.1,33.7,33.7
						C67.5,62.8,52.3,77.9,33.7,77.9L33.7,77.9z M33.7,21.1c-6.2,0-11.9,2.4-16.3,6.8c-4.4,4.4-6.8,10.1-6.8,16.3
						c0,6.2,2.4,11.9,6.8,16.3c4.4,4.4,10.1,6.8,16.3,6.8c6.2,0,11.9-2.4,16.3-6.8c4.3-4.4,6.7-10.1,6.8-16.3
						c0-6.2-2.4-11.9-6.8-16.3C45.7,23.5,39.9,21.1,33.7,21.1L33.7,21.1z"/>
				</g>
			</g>
			<g>
				<rect x="70.5" y="5.2" class="st2" width="2.6" height="2.6"/>
				<rect x="70.5" class="st2" width="2.6" height="2.6"/>
				<rect x="63.1" y="7.9" class="st2" width="2.5" height="2.6"/>
				<rect x="58.2" y="12.9" width="2.5" height="2.5"/>
				<rect x="65.5" y="10.4" width="2.8" height="2.5"/>
				<rect x="55.7" y="10.5" width="2.5" height="2.4"/>
				<rect x="63.1" y="12.9" width="2.5" height="2.5"/>
				<rect x="67.9" y="2.6" width="2.6" height="2.6"/>
				<rect x="63.1" y="5.2" width="4.8" height="2.6"/>
				<rect x="60.7" y="7.9" width="2.4" height="5"/>
				<path d="M60.7,15.4v2.5h-2.5v-2.5h-4.1v1.8h-2.2v2.2h2.5v2.5h-2.5v-2.5h-2.6v3.8h-2.5v2.5h-1.6v2.5h-1.8c-2,3-7.1,12.4-8.6,16.2
					c-5.5-7.7-9.8-10.8-13.2-11.9c-1.8-0.5-4,1.4-1,4.6c7,7.7,9.2,14,11.3,19.1c1.1,2.7,6.1,3.1,7.1,0.4c2.1-5.7,5.2-12.2,8.9-17.5
					v-2.7h2v-2.5h2.1v-2.9h2.5v-2.8h-2.5v-2.5h2.5v2.5h2.4l0-2.5h2v-3H61v-2.1h2.1v-5.2H60.7z"/>
			</g>
		</g>
	</g>
	<g>
		<g>
			<g>
				<g>
					<path class="st1" d="M7.5,89.5h1.8v1.3c0.6-0.8,1.4-1.5,2.7-1.5c1.9,0,3.8,1.5,3.8,4.2v0c0,2.7-1.8,4.2-3.8,4.2
						c-1.3,0-2.2-0.7-2.7-1.4v3.7H7.5V89.5z M14,93.5L14,93.5c0-1.6-1.1-2.6-2.3-2.6c-1.3,0-2.3,1-2.3,2.6v0c0,1.6,1.1,2.6,2.3,2.6
						C12.9,96.1,14,95.1,14,93.5z"/>
					<path class="st1" d="M17.4,93.5L17.4,93.5c0-2.3,1.8-4.2,4.3-4.2c2.5,0,4.3,1.9,4.3,4.2v0c0,2.3-1.8,4.2-4.3,4.2
						C19.2,97.7,17.4,95.8,17.4,93.5z M24.1,93.5L24.1,93.5c0-1.4-1-2.6-2.5-2.6c-1.5,0-2.4,1.2-2.4,2.6v0c0,1.4,1,2.6,2.5,2.6
						C23.2,96.1,24.1,94.9,24.1,93.5z"/>
					<path class="st1" d="M26.8,89.5h1.9l1.6,5.5l1.8-5.6h1.6l1.8,5.6l1.6-5.5H39l-2.6,8.1h-1.6l-1.8-5.5l-1.8,5.5h-1.6L26.8,89.5z"
						/>
					<path class="st1" d="M39.9,93.5L39.9,93.5c0-2.3,1.6-4.2,3.9-4.2c2.6,0,3.9,2,3.9,4.3c0,0.2,0,0.3,0,0.5h-5.9
						c0.2,1.3,1.1,2,2.3,2c0.9,0,1.5-0.3,2.2-1l1.1,1c-0.8,0.9-1.8,1.5-3.3,1.5C41.7,97.7,39.9,96,39.9,93.5z M45.9,92.9
						c-0.1-1.2-0.8-2.1-2-2.1c-1.1,0-1.9,0.9-2.1,2.1H45.9z"/>
					<path class="st1" d="M49.7,89.5h1.8v1.8c0.5-1.2,1.4-2,2.9-2v2h-0.1c-1.6,0-2.7,1.1-2.7,3.2v3.1h-1.8V89.5z"/>
					<path class="st1" d="M55.4,93.5L55.4,93.5c0-2.3,1.6-4.2,3.9-4.2c2.6,0,3.9,2,3.9,4.3c0,0.2,0,0.3,0,0.5h-5.9
						c0.2,1.3,1.1,2,2.3,2c0.9,0,1.5-0.3,2.2-1l1.1,1c-0.8,0.9-1.8,1.5-3.3,1.5C57.2,97.7,55.4,96,55.4,93.5z M61.4,92.9
						c-0.1-1.2-0.8-2.1-2-2.1c-1.1,0-1.9,0.9-2.1,2.1H61.4z"/>
					<path class="st1" d="M64.7,93.5L64.7,93.5c0-2.7,1.8-4.2,3.7-4.2c1.3,0,2.2,0.7,2.7,1.4v-4.3h1.8v11.1h-1.8v-1.3
						c-0.6,0.8-1.4,1.5-2.7,1.5C66.6,97.7,64.7,96.2,64.7,93.5z M71.3,93.5L71.3,93.5c0-1.6-1.1-2.6-2.3-2.6c-1.3,0-2.3,1-2.3,2.6v0
						c0,1.6,1.1,2.6,2.3,2.6C70.2,96.1,71.3,95,71.3,93.5z"/>
					<path class="st1" d="M81.8,96.3v1.3h-1.8V86.4h1.8v4.4c0.6-0.8,1.4-1.5,2.7-1.5c1.9,0,3.8,1.5,3.8,4.2v0c0,2.7-1.8,4.2-3.8,4.2
						C83.2,97.7,82.4,97,81.8,96.3z M86.4,93.5L86.4,93.5c0-1.6-1.1-2.6-2.3-2.6c-1.3,0-2.3,1-2.3,2.6v0c0,1.6,1.1,2.6,2.3,2.6
						C85.4,96.1,86.4,95.1,86.4,93.5z"/>
					<path class="st1" d="M89.5,99.5l0.6-1.4c0.3,0.2,0.7,0.3,1.1,0.3c0.5,0,0.8-0.2,1.1-0.9L89,89.5h2l2.3,6l2.1-6h1.9l-3.2,8.3
						c-0.6,1.6-1.4,2.3-2.7,2.3C90.7,100,90.1,99.8,89.5,99.5z"/>
					<path d="M103,96l1.1-1.3c1,0.9,2,1.4,3.4,1.4c1.2,0,1.9-0.5,1.9-1.3v0c0-0.8-0.4-1.2-2.4-1.6c-2.3-0.5-3.6-1.2-3.6-3.2v0
						c0-1.8,1.5-3.1,3.6-3.1c1.6,0,2.8,0.5,3.9,1.3l-1,1.4c-1-0.7-1.9-1.1-2.9-1.1c-1.1,0-1.7,0.6-1.7,1.3v0c0,0.8,0.5,1.2,2.5,1.7
						c2.3,0.5,3.4,1.4,3.4,3.1v0c0,2-1.6,3.2-3.8,3.2C105.8,97.7,104.2,97.1,103,96z"/>
					<path d="M112.6,99.5l0.6-1.4c0.3,0.2,0.7,0.3,1.1,0.3c0.5,0,0.8-0.2,1.1-0.9l-3.4-8.1h2l2.3,6l2.1-6h1.9l-3.2,8.3
						c-0.6,1.6-1.4,2.3-2.7,2.3C113.7,100,113.1,99.8,112.6,99.5z"/>
					<path d="M121.9,89.5h1.8v1.2c0.5-0.7,1.2-1.4,2.5-1.4c1.2,0,2,0.6,2.4,1.4c0.7-0.9,1.5-1.4,2.7-1.4c1.8,0,2.8,1.1,2.8,3.1v5.1
						h-1.8v-4.6c0-1.3-0.6-2-1.6-2c-1,0-1.7,0.7-1.7,2v4.5h-1.8v-4.6c0-1.3-0.6-2-1.6-2c-1,0-1.7,0.8-1.7,2v4.5h-1.8V89.5z"/>
					<path d="M141.4,97.5v-1c-0.5,0.7-1.4,1.2-2.6,1.2c-1.5,0-2.9-0.9-2.9-2.5v0c0-1.8,1.4-2.6,3.3-2.6c1,0,1.6,0.1,2.2,0.3v-0.2
						c0-1.1-0.7-1.7-2-1.7c-0.9,0-1.6,0.2-2.3,0.5l-0.5-1.5c0.9-0.4,1.8-0.7,3.1-0.7c2.4,0,3.5,1.3,3.5,3.4v4.8H141.4z M141.4,94.1
						c-0.5-0.2-1.1-0.3-1.8-0.3c-1.2,0-1.8,0.5-1.8,1.3v0c0,0.8,0.7,1.2,1.6,1.2c1.2,0,2.1-0.7,2.1-1.7V94.1z"/>
					<path d="M145.5,89.5h1.8v1.3c0.5-0.8,1.3-1.4,2.5-1.4c1.8,0,2.9,1.2,2.9,3.1v5.1h-1.8v-4.6c0-1.3-0.6-2-1.7-2
						c-1.1,0-1.8,0.7-1.8,2v4.5h-1.8V89.5z"/>
					<path d="M155.3,95.3V91h-1v-1.6h1v-2.2h1.8v2.2h2.2V91h-2.2v4c0,0.7,0.4,1,1,1c0.4,0,0.8-0.1,1.1-0.3v1.5
						c-0.5,0.3-1,0.4-1.7,0.4C156.2,97.6,155.3,97.1,155.3,95.3z"/>
					<path d="M160.5,93.5L160.5,93.5c0-2.3,1.6-4.2,3.9-4.2c2.6,0,3.9,2,3.9,4.3c0,0.2,0,0.3,0,0.5h-5.9c0.2,1.3,1.1,2,2.3,2
						c0.9,0,1.5-0.3,2.2-1l1.1,1c-0.8,0.9-1.8,1.5-3.3,1.5C162.3,97.7,160.5,96,160.5,93.5z M166.5,92.9c-0.1-1.2-0.8-2.1-2-2.1
						c-1.1,0-1.9,0.9-2.1,2.1H166.5z"/>
					<path d="M169.8,93.5L169.8,93.5c0-2.3,1.8-4.2,4.2-4.2c1.5,0,2.5,0.6,3.2,1.4l-1.1,1.2c-0.6-0.6-1.2-1-2.1-1
						c-1.3,0-2.3,1.2-2.3,2.6v0c0,1.4,1,2.6,2.4,2.6c0.9,0,1.5-0.4,2.1-1l1.1,1.1c-0.8,0.9-1.7,1.5-3.3,1.5
						C171.5,97.7,169.8,95.8,169.8,93.5z"/>
				</g>
			</g>
		</g>
	</g>
</g>
</svg>
