<?xml version="1.0" encoding="utf-8"?>
<!-- Generator: Adobe Illustrator 20.0.0, SVG Export Plug-In . SVG Version: 6.00 Build 0)  -->
<svg version="1.1" id="圖層_1" xmlns="http://www.w3.org/2000/svg" xmlns:xlink="http://www.w3.org/1999/xlink" x="0px" y="0px"
	 viewBox="0 0 75 100" style="enable-background:new 0 0 75 100;" xml:space="preserve">
<style type="text/css">
	.st0{fill:#272D79;}
	.st1{fill:#F8CD31;}
	.st2{fill:#69667B;}
</style>
<g>
	<path class="st0" d="M43.1,26.2c1.2-0.1,2.3,0.3,3.5,0.6c1,0.3,2,0.3,2.9,0.8c0.3,0.1,0.7-0.2,1.1-0.3c0.4,0.2,0.8,0.5,1.3,0.6
		c1.7,0.5,3.1,1.5,4.5,2.6c1.6,1.3,2.6,3,3.5,4.7c0.7,1.3,1.2,2.9,1.7,4.3c0.1,0.2,0.1,0.5,0.1,0.8c0,0.6,0,1.2,0,1.9
		c0,1.5,0.1,2.9-0.5,4.4c-0.5,1.3-0.8,2.7-1.5,3.9c-0.6,1.1-1,2.3-1.7,3.3c-0.8,1.2-1.8,2.3-2.9,3.1c-1,0.7-1.7,1.9-3,2.1
		c-1.6,1.4-3.7,2-5.7,2.7c-1.7,0.6-3.5,0.7-5.3,1.1c-2.8,0.5-5.5,0.2-8.3,0.2c-1.8,0-3.7-0.3-5.5-0.6c-0.1,0-0.3-0.1-0.4-0.2
		c-0.7-0.5-1.4-0.5-2.1-0.5c-1.2-0.8-2.3-1.6-3.3-2.4c-0.3-0.3-0.9-0.1-1.1-0.8c-0.1-0.3-0.7-0.5-1.1-0.9c-0.4-0.3-0.8-0.7-1.1-1.1
		c-0.3-0.4-0.5-0.8-0.8-1.2c-1.2-2-2.2-4-2.9-6.2c-0.3-0.9-0.3-1.9-0.6-2.8c-0.5-1.8-0.1-3.6-0.3-5.2c0.5-0.9,1-1.6,1.4-2.4
		c0.5-1.3,1.7-2.2,2.1-3.5c0.1-0.2,0.3-0.3,0.5-0.5c0.4-0.3,0.9-0.6,1.3-1c0.3-0.3,0.5-0.8,0.9-1.2c1-0.9,1.9-1.8,3-2.6
		c0.5-0.4,0.9-1,1.7-1.1c0.7-0.1,1.3-0.6,2-0.9c0.7-0.3,1.3-0.6,2-1c0.5-0.3,1.1,0.2,1.5-0.4c1.2-0.1,2.4-0.3,3.8-0.4
		c0.1-0.1,0.3-0.5,0.5-0.8c0.1,0,0.2,0.1,0.3,0.1c-0.1-0.7-0.2-1.4-0.3-2c-0.7-0.5-1.3-0.8-2.1-1.3c-0.9,0.1-1.9,0.3-2.8,0.4
		c-0.5,0.3-1,0.5-1.6,0.8c-0.3,1.2-1.9,1-2.6,1.8c-0.6,0-1.1,0-1.3,0c-1.1-0.5-1.9-0.9-2.9-1.3c-2-0.3-3.8,0.6-5.8,1.6
		c-0.3,0-0.9,0-1.5,0c-0.2-0.8-0.8-1.4-0.2-2.3c0.3-0.5,0.1-1.2,0.4-1.9c0.4-0.9,0.6-2,1.4-2.8c0.5-0.6,0.8-1.4,1.3-2.2
		c0.2-0.4,0.5-0.7,0.7-1.1c0.4-0.5,1-0.8,1.2-1.5c0.1-0.2,0.3-0.5,0.6-0.6c0.7-0.3,1.2-0.8,1.6-1.3c1.4-1.5,3-2.7,4.8-3.6
		c1.4-0.8,2.8-1.7,4.4-2.1c0.8-0.2,1.5-0.5,2.2-0.8c1.2-0.2,2.3-0.3,3.5-0.5c0.9-1.4,0.8-3.3,2-4.8c0.3,0.3,0.5,0.5,0.7,0.6
		c0.2,1.5,0.3,2.9,0.5,4.6c0.1,0.1,0.4,0.4,0.8,0.7c3,0.1,5.7,1.4,8.9,2.3c0,0,0.2,0.3,0.3,0.5c0.5,0,0.8,0,1.1,0
		C50.1,9,50.5,9.4,51,9.6c1.5,0.4,2.4,1.5,3.6,2.3c0.6,0.4,0.9,1.1,1.3,1.6c0.9,1.1,1.9,2.2,2.7,3.4c0.6,0.8,0.8,1.9,1.4,2.6
		c0.8,1,1.1,1.9,0.9,3.1c-0.2,0.2-0.3,0.4-0.5,0.6c-0.2-0.1-0.4-0.3-0.5-0.3c-1.6-0.7-3.2-1.6-5-1.8c-0.6-0.1-1-0.7-1.7-0.7
		c-1.4,0-1.5,0-3.4,0.9c-0.1,0.2-0.3,0.5-0.4,0.8c-0.1,0.2-0.2,0.5-0.3,0.7c-1.6,0.9-2.1,0.9-3.3-0.3c-0.6-0.5-1.2-1-1.8-1.4
		c-0.9,0-1.8,0-2.8,0c-0.8,0.7-1.7,1.6-2.6,2.4c-0.5,0.4-0.8,1-0.8,1.7c0.2,0.9-0.3,1.7-0.3,2.6c0,1,0,1.9,0,2.9c0,0.2,0,0.3,0,0.5
		c-0.3,0.3-0.6,0.6-0.8,0.9c-1.3,0.2-2.4-1-3.6-0.6c-1.2,0.4-2.4,0.5-3.6,0.7c-0.3,0.4-0.7,0.7-1.3,0.6c-0.6,0.7-1.6,0.8-2.3,1.3
		c-0.8,0.5-1.6,1.1-2.4,1.6c-1.3,0.9-2.2,2.2-3.4,3.2c-0.3,0.2-0.4,0.6-0.5,1c-0.2,1.4-1.2,2.6-1,4.1c-0.8,1.6-0.2,3.1,0.2,4.7
		c0.5,2.2,1.8,3.8,3.5,5.1c1.2,0.9,2.5,1.9,4.1,2.3c1,0.3,2,0.8,3,1.3c0.6,0.1,1.3,0,2,0.3c1,0.4,2.1,0.5,3.2,0.4
		c1.2-0.1,2.4-0.1,3.5,0c1.5,0.1,2.8-0.7,4.3-0.7c1.8-1,3.8-1.4,5.5-2.5c1.4-0.9,2.8-1.8,3.9-3.2c1-1.2,1.5-2.5,2.2-3.8
		c0.4-0.8,0.6-1.7,0.7-2.6c0.1-1.9,0-3.7,0-5.6c0-0.4-0.7-2.7-0.9-3c-0.4-0.6-0.7-1.4-1.2-1.8c-0.6-0.5-0.7-1.4-1.5-1.6
		c-2.4-2.8-3.4-3.6-5.8-5c-0.7-0.4-1.4-0.8-2-1.1C43.1,26.8,43.1,26.5,43.1,26.2z M31,10.3c-0.1,0.2-0.4,0.4-0.5,0.7
		c-0.4,0-0.7,0-0.9,0c-0.5,0.3-0.8,0.5-1.1,0.7c-3.2,1.8-6.2,3.8-8.4,6.7c-0.9,1.1-2,2.2-2.2,3.8c0.3,0,0.6,0,0.8-0.1
		c0.7-0.5,1.4-0.3,2.1-0.1c1.5,0.4,2.7,0.3,4.2-0.4c1.6-0.7,3.2-1.3,4.9-1.1c1.3,0.1,2.6,0,3.9,0c0.2,0.2,0.5,0.5,0.6,0.6
		c0.5,0.1,0.9,0.1,1.2,0.2c0.6,0.3,1.1,0.3,1.6-0.2c0.6-0.5,1.4-0.7,2.2-0.9c1.5-0.3,3-0.9,4.6-0.2c0.6,0.3,1.5,0.2,2.4,0.3
		c0.2-0.1,0.5-0.3,0.9-0.5c1-0.1,2-0.3,3-0.4c1.1-0.1,2.2-0.2,3.2,0c1.1,0.3,2,0.2,3.2,0.3c-0.2-0.4-0.3-0.6-0.4-0.7
		C55.6,18,54.7,17,54,15.8c-0.5-0.8-1.2-1.4-1.9-2.1c-0.6-0.7-1.1-1.4-1.9-1.9c-0.7-0.5-1.3-1.2-2.1-1.5C47,10,45.9,9.4,44.7,9
		c-1.2-0.4-2.4-0.5-3.6-0.7c-0.2,0-0.4,0-0.6,0.1c-1.1,0.5-2.2,1-3.6,1.6c-0.7,0-1.7,0.1-2.7,0C33.2,9.8,32.3,10.3,31,10.3z"/>
	<path class="st1" d="M43.1,26.2c0,0.3,0,0.6,0,0.9c0.7,0.4,1.4,0.7,2,1.1c2.5,1.4,3.4,2.2,5.8,5c0.8,0.2,0.9,1.1,1.5,1.6
		c0.5,0.5,0.8,1.2,1.2,1.8c0.2,0.3,0.9,2.6,0.9,3c0,1.9,0,3.7,0,5.6c0,0.9-0.2,1.8-0.7,2.6c-0.7,1.3-1.2,2.7-2.2,3.8
		c-1.1,1.3-2.5,2.3-3.9,3.2c-1.7,1.1-3.8,1.5-5.5,2.5c-1.5,0-2.8,0.9-4.3,0.7c-1.2-0.1-2.4-0.1-3.5,0c-1.1,0.1-2.2,0-3.2-0.4
		c-0.7-0.3-1.4-0.2-2-0.3c-1-0.5-2-1-3-1.3c-1.6-0.4-2.8-1.4-4.1-2.3c-1.7-1.3-3-3-3.5-5.1c-0.4-1.6-1-3.1-0.2-4.7
		c-0.2-1.5,0.8-2.7,1-4.1c0.1-0.3,0.2-0.7,0.5-1c1.2-1,2.1-2.3,3.4-3.2c0.8-0.5,1.6-1,2.4-1.6c0.7-0.5,1.7-0.6,2.3-1.3
		c0.6,0.1,0.9-0.2,1.3-0.6c1.2-0.2,2.4-0.4,3.6-0.7c1.3-0.4,2.3,0.8,3.6,0.6c0.3-0.3,0.5-0.6,0.8-0.9c0-0.1,0-0.3,0-0.5
		c0-1,0-1.9,0-2.9c0-0.9,0.5-1.7,0.3-2.6c1.2,0.2,2.4,0.6,3.7,0.7C42,26,42.5,26.2,43.1,26.2z M46.4,40.1c0.2,0.5,0.3,0.9,0.5,1.2
		c0.4,0.4,0.3,0.9,0.2,1.3c-1,2.2-2.4,4-4.5,5.3c-1.5,0.9-3.1,1.1-4.7,1.2c-1.9,0.1-3.8,0.2-5.8-0.2c-1.9-0.3-3.2-1.2-4.4-2.5
		c-0.5-0.5-0.9-1.3-0.3-2.1c0.2-0.3,0.2-0.7-0.2-1c-1,0.9-2.1,1.8-3,2.6c0,0.4,0,0.8,0,1.1c0.1-0.1,0.2-0.2,0.3-0.2
		c0.2,0.4,0.4,0.8,0.7,1.5c0.3-0.6,0.3-0.8,0.4-1.1c0.3,0,0.5,0,0.5,0c1.4,1.1,2.7,2,3.9,3c0.3,0,0.8-0.1,1,0c1,1,2.3,0.7,3.5,0.9
		c1.8,0.4,3.7-0.2,5.6-0.3c0.1,0,0.2-0.2,0.3-0.2c1.4-0.4,2.6-1.2,3.8-2c2.1-1.4,3.3-3.5,4.5-5.6c0.6,0,1-0.1,1.2-0.7
		c-0.5-1-1.7-1.4-2.2-2.3C47.3,40.1,46.9,40.1,46.4,40.1z M27.6,36.9c0.1,0.6-0.2,1.2,0.2,1.9c0.3,0.4,0.4,0.8,0.6,1.2
		c0.5,0.2,1,0.3,1.3,0.4c0.3-0.2,0.6-0.3,0.9-0.5c-0.1-1,0.3-2.2-0.7-3c-0.4-0.4-1-0.6-1.4-1C28.2,36.3,27.9,36.6,27.6,36.9z
		 M43.1,36.4c-0.4-0.9-0.9-1.6-1.7-2.1c-0.5,0.3-1,0.6-1.4,0.9c0.1,1.2-0.2,2.3,0.5,3.3c0.4,0.1,0.9,0.3,1.5,0.5
		C42.4,37.9,42.8,37.1,43.1,36.4z"/>
	<path class="st1" d="M31,10.3c1.3,0,2.2-0.5,3.2-0.4c1,0.1,2,0,2.7,0c1.4-0.6,2.5-1.1,3.6-1.6c0.2-0.1,0.4-0.1,0.6-0.1
		c1.2,0.2,2.4,0.4,3.6,0.7c1.2,0.4,2.3,0.9,3.5,1.3c0.8,0.3,1.3,1,2.1,1.5c0.8,0.5,1.3,1.3,1.9,1.9c0.6,0.7,1.4,1.2,1.9,2.1
		c0.7,1.2,1.6,2.1,2.5,3.2c0.1,0.2,0.2,0.4,0.4,0.7c-1.2-0.1-2.2,0-3.2-0.3c-1-0.3-2.1-0.1-3.2,0c-1,0.1-2,0.2-3,0.4
		c-0.4,0.2-0.8,0.4-0.9,0.5c-0.9-0.1-1.8,0-2.4-0.3c-1.6-0.7-3.1-0.1-4.6,0.2c-0.8,0.2-1.5,0.4-2.2,0.9c-0.5,0.4-1,0.5-1.6,0.2
		c-0.3-0.2-0.7-0.1-1.2-0.2c-0.2-0.2-0.4-0.4-0.6-0.6c-1.3,0-2.6,0.1-3.9,0c-1.8-0.1-3.4,0.5-4.9,1.1c-1.5,0.6-2.7,0.7-4.2,0.4
		c-0.7-0.2-1.4-0.3-2.1,0.1c-0.2,0.1-0.5,0.1-0.8,0.1c0.2-1.6,1.3-2.7,2.2-3.8c2.2-2.9,5.3-4.9,8.4-6.7c0.3-0.2,0.6-0.4,1.1-0.7
		c0.1,0,0.5,0,0.9,0C30.7,10.8,30.9,10.5,31,10.3z M46.9,17.5c0.5-1.2-0.1-2.1-0.8-2.9c-0.5-0.6-0.9-1.5-2.1-1.5
		c0.2,1,0.7,1.8,1.1,2.6C45.5,16.4,46.4,16.7,46.9,17.5z M36.3,13.7c-1,1.8-1,3.4-0.9,5c0.4,0,0.6,0,0.9,0
		C36.3,17.1,36.3,15.6,36.3,13.7z M26.7,16.3c-0.1-0.1-0.2-0.2-0.3-0.3c-1.2,0.3-1.4,1.6-2.2,2.3c0,0.5,0.1,0.9,0.1,1.6
		C25.2,18.6,25.9,17.5,26.7,16.3z"/>
	<path class="st0" d="M46.4,40.1c0.5,0,0.9,0,1.3,0c0.5,0.9,1.7,1.2,2.2,2.3c-0.1,0.6-0.6,0.8-1.2,0.7c-1.2,2.1-2.4,4.1-4.5,5.6
		c-1.2,0.8-2.3,1.6-3.8,2c-0.1,0-0.2,0.2-0.3,0.2c-1.9,0.1-3.8,0.7-5.6,0.3c-1.2-0.3-2.5,0-3.5-0.9c-0.2-0.2-0.7,0-1,0
		c-1.2-1-2.5-1.9-3.9-3c0,0-0.3,0-0.5,0c-0.1,0.3-0.2,0.5-0.4,1.1c-0.3-0.7-0.5-1.1-0.7-1.5c-0.1,0.1-0.2,0.2-0.3,0.2
		c0-0.3,0-0.7,0-1.1c1-0.8,2-1.7,3-2.6c0.5,0.3,0.5,0.7,0.2,1c-0.6,0.8-0.2,1.5,0.3,2.1c1.1,1.3,2.5,2.2,4.4,2.5
		c2,0.4,3.9,0.3,5.8,0.2c1.6-0.1,3.2-0.3,4.7-1.2c2.1-1.3,3.5-3.1,4.5-5.3c0.1-0.3,0.2-0.8-0.2-1.3C46.7,41,46.6,40.6,46.4,40.1z"/>
	<path class="st0" d="M27.6,36.9c0.3-0.3,0.6-0.6,0.9-1c0.5,0.3,1,0.6,1.4,1c1,0.8,0.6,2,0.7,3c-0.3,0.2-0.6,0.3-0.9,0.5
		c-0.4-0.1-0.8-0.3-1.3-0.4c-0.2-0.3-0.3-0.8-0.6-1.2C27.4,38.1,27.7,37.5,27.6,36.9z"/>
	<path class="st0" d="M43.1,36.4c-0.3,0.8-0.7,1.6-1.1,2.5c-0.6-0.2-1-0.3-1.5-0.5c-0.7-1-0.4-2.1-0.5-3.3c0.4-0.3,0.9-0.5,1.4-0.9
		C42.2,34.8,42.8,35.5,43.1,36.4z"/>
	<path class="st0" d="M46.9,17.5c-0.5-0.8-1.4-1.1-1.8-1.9c-0.3-0.8-0.8-1.5-1.1-2.6c1.1,0.1,1.6,1,2.1,1.5
		C46.8,15.3,47.4,16.3,46.9,17.5z"/>
	<path class="st0" d="M36.3,13.7c0,1.9,0,3.4,0,5c-0.3,0-0.5,0-0.9,0C35.3,17.1,35.3,15.5,36.3,13.7z"/>
	<path class="st0" d="M26.7,16.3c-0.7,1.1-1.5,2.3-2.4,3.6c0-0.7-0.1-1.1-0.1-1.6c0.8-0.7,1-2,2.2-2.3
		C26.5,16.1,26.6,16.2,26.7,16.3z"/>
	<path class="st0" d="M19.9,72.9v9.9c0,2.1,1.7,3.7,3.7,3.7h9.8c2.1,0,3.7-1.7,3.7-3.7v-9.9c0-2.1-1.7-3.7-3.7-3.7h-9.8
		C21.5,69.2,19.9,70.9,19.9,72.9z M25.1,82.3v-8.9h6.7v8.9H25.1z"/>
	<path class="st0" d="M7.5,76v-2.6h9.3l1.3-4.2H6c-2.1,0-3.7,1.7-3.7,3.7V76c0,2.1,1.7,3.7,3.7,3.7h8.2v2.6H3.5l-1.3,4.2h13.5
		c2.1,0,3.7-1.7,3.7-3.7v-3.1c0-2.1-1.7-3.7-3.7-3.7H7.5z"/>
	<path class="st0" d="M43,76v-2.6h9.3l1.3-4.2H41.5c-2.1,0-3.7,1.7-3.7,3.7V76c0,2.1,1.7,3.7,3.7,3.7h8.2v2.6H39.1l-1.3,4.2h13.5
		c2.1,0,3.7-1.7,3.7-3.7v-3.1c0-2.1-1.7-3.7-3.7-3.7H43z"/>
	<path class="st0" d="M72.6,86.1l-4.1-15.1c-0.3-1.1-1.3-1.8-2.4-1.8h-4.6c-1.1,0-2.1,0.8-2.4,1.8L55,86.1h5.6l3.2-11.8L67,86.1
		H72.6z"/>
	<g>
		<path class="st2" d="M3.1,88.7c0.1,0,0.2,0,0.3,0.1c0.1,0.1,0.2,0.2,0.2,0.3c0,0.1,0,0.1,0,0.2c-0.2,1.1-0.5,2-0.8,2.8v7.3
			c0,0.3-0.1,0.4-0.4,0.4c-0.3,0-0.4-0.1-0.4-0.4V94c-0.1,0.2-0.2,0.3-0.3,0.5c-0.1,0.1-0.2,0.2-0.3,0.2c-0.3,0-0.5-0.1-0.5-0.4
			c0-0.1,0-0.2,0.1-0.3c0.4-0.6,0.7-1.4,1.1-2.1c0.3-0.8,0.6-1.8,0.8-2.9C2.9,88.8,3,88.7,3.1,88.7z M11.4,89c0.2,0,0.3,0.1,0.3,0.3
			c0,0.3-0.1,0.4-0.3,0.4H8l-0.3,0.6h2.6c0.5,0,0.7,0.2,0.7,0.6v2.6h0.4c0.3,0,0.4,0.1,0.6,0.3c0.1,0.1,0.1,0.3,0.1,0.6
			c0,0.2,0,0.4-0.1,0.6c0,0.2-0.2,0.3-0.4,0.3c-0.2,0-0.3-0.1-0.3-0.4c0.1-0.3,0.1-0.4,0.1-0.5c0-0.2-0.1-0.3-0.2-0.3H6.6
			c0,0.1,0,0.1,0,0.2v1.1c0,0.1,0.1,0.1,0.3,0.1h1.4c0.6,0,0.9-0.2,0.9-0.7c0-0.2,0.1-0.3,0.3-0.3c0.3,0,0.4,0.1,0.4,0.4
			c0,0.4-0.1,0.7-0.3,0.9c-0.3,0.2-0.6,0.3-1,0.3H7.2c-0.1,0.2-0.2,0.4-0.3,0.5h3.5c0.4,0,0.6,0.2,0.6,0.5c0,0.2-0.2,0.4-0.6,0.7
			c-0.3,0.3-0.7,0.5-1.1,0.7c0.6,0.2,1.6,0.4,2.7,0.5c0.1,0,0.2,0,0.3,0.1c0.1,0.1,0.1,0.2,0.1,0.3c0,0.1,0,0.3-0.1,0.3
			c-0.1,0.1-0.2,0.1-0.3,0.1c-0.6,0-1.4-0.1-2.2-0.3c-0.6-0.1-1.1-0.3-1.5-0.5c-0.7,0.3-1.6,0.5-2.6,0.7C5,99.9,4.4,100,3.9,100
			c-0.3,0-0.4-0.2-0.4-0.5c0-0.2,0.1-0.4,0.4-0.4c0.7,0,1.3-0.1,1.6-0.1c0.6-0.1,1.2-0.2,1.8-0.4c-0.5-0.3-0.9-0.6-1.4-1l0,0
			c-0.6,0.3-1.1,0.5-1.7,0.7c-0.1,0-0.2,0-0.3,0c-0.1,0-0.2,0-0.3-0.1c-0.1-0.1-0.1-0.2-0.1-0.3c0-0.2,0.1-0.3,0.3-0.4
			c0.5-0.1,1.1-0.3,1.6-0.6c0.3-0.2,0.5-0.3,0.8-0.5c0.1-0.1,0.1-0.2,0.2-0.2c-0.3-0.1-0.5-0.3-0.5-0.6v-1.2c0-0.1,0-0.1,0-0.2H4.4
			c-0.2,0-0.3,0.1-0.3,0.3V95c0,0.2-0.1,0.4-0.4,0.4c-0.2,0-0.3-0.1-0.3-0.4v-0.8c0-0.4,0.2-0.6,0.6-0.6h0.4V91
			c0-0.4,0.2-0.6,0.7-0.6h1.6L7,89.8H4.2c-0.2,0-0.3-0.1-0.3-0.4c0-0.2,0.1-0.3,0.3-0.3H11.4z M5.1,94.7c0.3,0,0.4,0.1,0.4,0.4
			c0,0.2-0.1,0.3-0.2,0.5c-0.2,0.4-0.4,0.6-0.5,0.8c-0.1,0.1-0.2,0.1-0.3,0.1c-0.3,0-0.4-0.1-0.4-0.4c0-0.1,0-0.2,0.1-0.3
			c0.2-0.3,0.4-0.6,0.6-1C4.9,94.7,5,94.7,5.1,94.7z M5.2,91.5h4.9v-0.1c0-0.2-0.1-0.3-0.3-0.3H5.5c-0.2,0-0.3,0.1-0.3,0.3V91.5z
			 M5.2,92.6h4.9v-0.5H5.2V92.6z M5.2,93.6h4.9v-0.4H5.2V93.6z M6.9,97.5c0.5,0.3,0.9,0.6,1.4,0.8c0.3-0.1,0.6-0.3,0.9-0.4
			c0.3-0.2,0.5-0.3,0.5-0.3c0-0.1,0-0.1-0.1-0.1H6.9z M7.8,94.3c0.1,0,0.1,0,0.2,0.1c0.1,0.1,0.3,0.3,0.4,0.5c0,0.1,0,0.1,0,0.2
			c0,0.2-0.1,0.3-0.3,0.3c0,0-0.1,0-0.1,0c-0.2-0.2-0.3-0.4-0.5-0.5c-0.1-0.1-0.1-0.2-0.1-0.2C7.5,94.4,7.6,94.3,7.8,94.3z
			 M10.6,94.6c0.1,0,0.2,0.1,0.2,0.2c0.3,0.3,0.5,0.7,0.6,1.1c0,0.1,0,0.2,0,0.3c0,0.2-0.2,0.4-0.5,0.4c-0.1,0-0.2-0.1-0.3-0.3
			c-0.1-0.4-0.3-0.8-0.4-1.1c0-0.1,0-0.1,0-0.2C10.2,94.7,10.3,94.6,10.6,94.6z"/>
		<path class="st2" d="M19.1,88.6c0.3,0,0.5,0.2,0.5,0.5v0.8h3.1c0.6,0,0.9,0.3,0.9,0.8v3.8c0,0.5-0.3,0.8-0.9,0.8h-4.2
			c0.2,0.4,0.4,0.8,0.6,1c0.3,0.4,0.7,0.8,1.3,1.1c0.1,0.1,0.3,0.2,0.4,0.3c0.7-0.7,1.3-1.3,1.7-1.9c0.1-0.2,0.2-0.2,0.3-0.2
			c0.3,0,0.5,0.2,0.5,0.5c0,0.2-0.1,0.3-0.2,0.4c-0.4,0.6-0.9,1.1-1.5,1.7c0.1,0.1,0.2,0.1,0.4,0.2c0.5,0.2,1.1,0.4,1.7,0.6
			c0.4,0.1,0.7,0.2,0.8,0.3c0.1,0.1,0.1,0.2,0.1,0.3c0,0.3-0.2,0.5-0.5,0.5c-0.2,0-0.6-0.1-1.2-0.3c-0.7-0.3-1.4-0.5-2-0.8
			c-0.6-0.3-1.1-0.6-1.4-0.9c-0.5-0.4-0.8-0.7-1.1-1.1c-0.3-0.4-0.5-0.9-0.8-1.5h-2.3v3.7c0.3,0,0.6-0.1,0.8-0.1
			c0.8-0.1,1.5-0.3,2.2-0.6c0.3,0,0.5,0.2,0.5,0.5c0,0.3-0.2,0.4-0.6,0.5c-0.5,0.2-1.2,0.3-2.1,0.5c-1,0.2-1.7,0.3-2,0.3
			c-0.4,0-0.6-0.2-0.6-0.5c0-0.3,0.2-0.4,0.5-0.4c0.1,0,0.2,0,0.3,0c0,0,0,0,0,0v-8.2c0-0.6,0.3-0.9,1-0.9h3.2V89
			C18.7,88.7,18.8,88.6,19.1,88.6z M22.2,90.6h-6.4c-0.2,0-0.3,0.1-0.3,0.3V92h7.3v-1.2c0-0.2-0.1-0.2-0.2-0.2H22.2z M15.4,92.9v1.5
			h7c0.2,0,0.2-0.1,0.2-0.3v-1.2H15.4z"/>
		<path class="st2" d="M35.5,89.1c0.3,0,0.4,0.1,0.4,0.4c0,0.3-0.1,0.4-0.4,0.4h-3.8v0.6h4.2c0.3,0,0.6,0.1,0.7,0.3
			c0.1,0.2,0.2,0.4,0.2,0.7c0,0.3,0,0.5-0.1,0.9c-0.1,0.2-0.2,0.4-0.5,0.4c-0.3,0-0.4-0.1-0.4-0.4c0.1-0.4,0.2-0.6,0.2-0.7
			c0-0.3-0.1-0.4-0.3-0.4h-3.9v2.3c0,0.3-0.1,0.4-0.4,0.4s-0.4-0.1-0.4-0.4v-2.3h-3.7c-0.3,0-0.4,0.1-0.4,0.4v0.8
			c0,0.3-0.1,0.4-0.4,0.4c-0.3,0-0.4-0.1-0.4-0.4v-1c0-0.6,0.3-1,1-1h4v-0.6h-3.7c-0.3,0-0.4-0.1-0.4-0.4c0-0.3,0.1-0.4,0.4-0.4
			H35.5z M30.7,98.2h-3.2c-0.5,0-0.8-0.3-0.8-0.8v-2.4c0-0.5,0.3-0.8,0.8-0.8H35c0.5,0,0.8,0.3,0.8,0.8v2.4c0,0.5-0.3,0.8-0.8,0.8
			h-3.3v0.2c0,0.2,0.1,0.4,0.3,0.4c0.2,0.1,0.6,0.1,1.3,0.1c1.3,0,2.1,0,2.4-0.1c0.3-0.1,0.5-0.2,0.5-0.3V98c0-0.3,0.2-0.5,0.4-0.5
			c0.3,0,0.5,0.2,0.5,0.6c0,0.7-0.1,1.2-0.3,1.3c-0.1,0.2-0.4,0.3-0.9,0.4c-0.4,0.1-1.3,0.1-2.6,0.1c-1.1,0-1.8-0.1-2.1-0.3
			c-0.3-0.2-0.4-0.5-0.4-1V98.2z M29.8,91.8c0.2,0,0.3,0.1,0.3,0.3c0,0.2-0.1,0.3-0.3,0.3h-2c-0.2,0-0.3-0.1-0.3-0.3
			c0-0.2,0.1-0.3,0.3-0.3H29.8z M29.8,93c0.2,0,0.3,0.1,0.3,0.3c0,0.2-0.1,0.3-0.3,0.3h-2c-0.2,0-0.3-0.1-0.3-0.3
			c0-0.2,0.1-0.3,0.3-0.3H29.8z M30.7,95.1h-2.9c-0.2,0-0.2,0.1-0.2,0.3V96h3.1V95.1z M30.7,96.7h-3.1v0.5c0,0.2,0.1,0.3,0.2,0.3
			h2.9V96.7z M31.6,96h3.3v-0.6c0-0.2-0.1-0.3-0.3-0.3h-3V96z M31.6,97.5h3c0.2,0,0.3-0.1,0.3-0.3v-0.5h-3.3V97.5z M34.9,91.8
			c0.2,0,0.3,0.1,0.3,0.3c0,0.2-0.1,0.3-0.3,0.3h-2.1c-0.2,0-0.3-0.1-0.3-0.3c0-0.2,0.1-0.3,0.3-0.3H34.9z M35,93
			c0.2,0,0.3,0.1,0.3,0.3c0,0.2-0.1,0.3-0.3,0.3h-2.1c-0.2,0-0.3-0.1-0.3-0.3c0-0.2,0.1-0.3,0.3-0.3H35z"/>
		<path class="st2" d="M49.2,94.3c0.3,0,0.4,0.1,0.4,0.4c0,0.3-0.1,0.5-0.4,0.5h-3.7c0.2,0.6,0.3,1.2,0.3,1.8c0,0.5-0.1,1-0.4,1.5
			c-0.3,0.4-0.6,0.8-1,1c-0.4,0.2-0.8,0.3-1.3,0.3c-0.6,0-1.4-0.2-2.2-0.5c-0.3-0.1-0.4-0.3-0.4-0.5c0-0.3,0.2-0.5,0.4-0.5
			c1.2,0.4,1.9,0.5,2.1,0.5c0.3,0,0.6-0.1,0.8-0.2c0.3-0.1,0.6-0.4,0.7-0.7c0.2-0.3,0.3-0.6,0.3-1c0-0.7-0.1-1.3-0.2-1.8
			c0,0,0,0,0,0h-6.1c-0.3,0-0.4-0.2-0.4-0.5c0-0.3,0.1-0.4,0.4-0.4h5.7c-0.1-0.1-0.2-0.3-0.3-0.4c-0.3-0.3-0.6-0.6-0.9-0.8
			c-0.1-0.1-0.2-0.2-0.2-0.2c0-0.3,0.2-0.5,0.5-0.5c0.1,0,0.2,0,0.4,0.1c0,0,0,0,0.1,0c0.7-0.3,1.1-0.6,1.5-0.8
			c0.5-0.3,0.9-0.7,1.2-1c0.3-0.3,0.4-0.4,0.4-0.5c0-0.1,0-0.1-0.1-0.1h-6.7c-0.3,0-0.4-0.1-0.4-0.4c0-0.3,0.1-0.4,0.4-0.4h7.5
			c0.4,0,0.7,0.2,0.7,0.5c0,0.2-0.1,0.5-0.3,0.7c-0.3,0.4-0.8,0.9-1.5,1.4c-0.6,0.5-1.3,0.9-2,1.3c0.1,0.1,0.1,0.2,0.2,0.3
			c0.2,0.3,0.4,0.5,0.6,0.9H49.2z"/>
		<path class="st2" d="M56.3,88.7c0.3,0,0.5,0.2,0.5,0.5v0.7h4.6c0.3,0,0.4,0.1,0.4,0.4c0,0.3-0.1,0.4-0.4,0.4H59l-0.5,1.5h1.9
			c0.6,0,0.9,0.3,0.9,0.9v5.7c0,0.8-0.4,1.3-1.2,1.3c-0.5,0-1.1-0.1-1.7-0.2c-0.2-0.1-0.3-0.2-0.3-0.4c0-0.3,0.1-0.5,0.4-0.5
			c0.1,0,0.2,0,0.4,0c0.5,0.1,0.9,0.2,1.2,0.2c0.3,0,0.4-0.2,0.4-0.5v-5.2c0-0.3-0.1-0.4-0.4-0.4h-2.3v0.9c0,0.2,0.1,0.4,0.3,0.4
			h1.6c0.3,0,0.4,0.1,0.4,0.4c0,0.3-0.1,0.4-0.4,0.4h-1.8c-0.6,0-1-0.3-1-1v-1h-1.5c0,0.5-0.1,0.9-0.3,1.1c-0.2,0.4-0.4,0.7-0.8,0.9
			c-0.4,0.2-0.9,0.4-1.4,0.4h-0.2c-0.2,0-0.4-0.2-0.4-0.5c0-0.2,0.1-0.3,0.3-0.4c0.4,0,0.8-0.1,1.1-0.3c0.3-0.1,0.4-0.3,0.6-0.6
			c0.1-0.2,0.2-0.4,0.2-0.7h-2.1c-0.2,0-0.3,0.1-0.3,0.4v6.1c0,0.3-0.1,0.4-0.4,0.4c-0.3,0-0.4-0.1-0.4-0.4v-6.5
			c0-0.6,0.3-0.9,0.9-0.9h1.9l-0.5-1.5h-2.4c-0.3,0-0.4-0.1-0.4-0.4c0-0.3,0.1-0.4,0.4-0.4h4.6v-0.7C55.8,88.9,56,88.7,56.3,88.7z
			 M54.1,95.6h4.2c0.4,0,0.6,0.2,0.6,0.6V98c0,0.4-0.2,0.6-0.6,0.6h-4.2c-0.4,0-0.6-0.2-0.6-0.6v-1.7C53.6,95.8,53.8,95.6,54.1,95.6
			z M57.9,97.8c0.2,0,0.3-0.1,0.3-0.3v-0.8c0-0.2-0.1-0.3-0.3-0.3h-3.2c-0.2,0-0.3,0.1-0.3,0.3v0.8c0,0.2,0.1,0.3,0.3,0.3H57.9z
			 M55,92.2h2.5l0.5-1.5h-3.5L55,92.2z"/>
		<path class="st2" d="M68.8,88.7c0.3,0,0.5,0.2,0.5,0.5v0.6h4.5c0.3,0,0.4,0.1,0.4,0.4c0,0.3-0.1,0.4-0.4,0.4h-8.8
			c-0.3,0-0.4,0.1-0.4,0.4v3.5c0,1.3-0.1,2.4-0.3,3.2c-0.1,0.8-0.3,1.5-0.5,2c-0.1,0.2-0.2,0.3-0.4,0.3c-0.3,0-0.5-0.2-0.5-0.4
			c0-0.1,0-0.2,0.1-0.5c0.1-0.2,0.1-0.4,0.2-0.6c0.1-0.4,0.2-0.8,0.2-1.2c0.1-0.9,0.2-1.8,0.2-2.8v-4c0-0.5,0.3-0.8,0.8-0.8h3.8
			v-0.6C68.3,88.8,68.5,88.7,68.8,88.7z M69.3,93.4v1.6h3.3c0.7,0,1,0.3,1,1v2.8c0,0.7-0.3,1-1,1h-6.2c-0.7,0-1-0.3-1-1v-2.8
			c0-0.7,0.3-1,1-1h2v-3.6c0-0.3,0.1-0.4,0.4-0.4c0.3,0,0.5,0.1,0.5,0.4v1.2h4.4c0.3,0,0.4,0.1,0.4,0.4c0,0.3-0.1,0.4-0.4,0.4H69.3z
			 M72.3,98.8c0.3,0,0.4-0.1,0.4-0.4v-2.2c0-0.3-0.1-0.4-0.4-0.4h-5.6c-0.3,0-0.4,0.1-0.4,0.4v2.2c0,0.3,0.1,0.4,0.4,0.4H72.3z"/>
	</g>
</g>
</svg>
