<?xml version="1.0" encoding="utf-8"?>
<!-- Generator: Adobe Illustrator 20.0.0, SVG Export Plug-In . SVG Version: 6.00 Build 0)  -->
<svg version="1.1" id="Layer_1" xmlns="http://www.w3.org/2000/svg" xmlns:xlink="http://www.w3.org/1999/xlink" x="0px" y="0px"
	 viewBox="0 0 200 200" style="enable-background:new 0 0 200 200;" xml:space="preserve">
<style type="text/css">
	.st0{fill:#3C5A99;}
	.st1{fill:#FFFFFF;}
</style>
<g>
	<path id="Blue_1_" class="st0" d="M189,200c6.1,0,11-4.9,11-11V11c0-6.1-4.9-11-11-11H11C4.9,0,0,4.9,0,11V189c0,6.1,4.9,11,11,11
		H189z"/>
	<path id="f" class="st1" d="M138,200v-77.5h26l3.9-30.2H138V73.1c0-8.7,2.4-14.7,15-14.7l16,0v-27c-2.8-0.4-12.3-1.2-23.3-1.2
		c-23,0-38.8,14.1-38.8,39.9v22.3H80.8v30.2h26.1V200H138z"/>
</g>
</svg>
