<?xml version="1.0" encoding="utf-8"?>
<!-- Generator: Adobe Illustrator 20.0.0, SVG Export Plug-In . SVG Version: 6.00 Build 0)  -->
<svg version="1.1" id="Layer_1" xmlns="http://www.w3.org/2000/svg" xmlns:xlink="http://www.w3.org/1999/xlink" x="0px" y="0px"
	 viewBox="0 0 175 100" style="enable-background:new 0 0 175 100;" xml:space="preserve">
<style type="text/css">
	.st0{fill-rule:evenodd;clip-rule:evenodd;fill:#8FC31F;}
	.st1{fill:#FFFFFF;}
</style>
<path class="st0" d="M159.2,100H15.8C7.1,100,0,92.9,0,84.2V15.8C0,7.1,7.1,0,15.8,0h143.4c8.7,0,15.8,7.1,15.8,15.8v68.4
	C175,92.9,167.9,100,159.2,100z"/>
<g>
	<path class="st1" d="M15.8,60.9l2-2.3c2,2,4.7,3.4,7.5,3.4c3.6,0,5.7-1.8,5.7-4.4c0-2.8-2-3.7-4.5-4.8l-3.9-1.7
		c-2.5-1.1-5.5-3-5.5-7c0-4.2,3.6-7.2,8.6-7.2c3.2,0,6.1,1.4,8,3.4l-1.8,2.2c-1.7-1.6-3.7-2.6-6.2-2.6c-3.1,0-5.1,1.6-5.1,4
		c0,2.6,2.4,3.6,4.5,4.5l3.9,1.7c3.2,1.4,5.6,3.2,5.6,7.3c0,4.3-3.6,7.7-9.2,7.7C21.5,64.9,18.2,63.3,15.8,60.9z"/>
	<path class="st1" d="M37.4,60.9l2-2.3c2,2,4.7,3.4,7.5,3.4c3.6,0,5.7-1.8,5.7-4.4c0-2.8-2-3.7-4.5-4.8l-3.9-1.7
		c-2.5-1.1-5.5-3-5.5-7c0-4.2,3.6-7.2,8.6-7.2c3.2,0,6.1,1.4,8,3.4l-1.8,2.2c-1.7-1.6-3.7-2.6-6.2-2.6c-3.1,0-5.1,1.6-5.1,4
		c0,2.6,2.4,3.6,4.5,4.5l3.9,1.7c3.2,1.4,5.6,3.2,5.6,7.3c0,4.3-3.6,7.7-9.2,7.7C43.1,64.9,39.8,63.3,37.4,60.9z"/>
	<path class="st1" d="M61.5,37.2h3.4v24.2h11.9v2.9H61.5V37.2z"/>
	<path class="st1" d="M100.8,41.8h-13v-2.3h13V41.8z M99.9,46.7H88.7v-2.2h11.2V46.7z M88.7,49.4h11.2v2.2H88.7V49.4z M99.7,65.2
		h-8.7v1.7h-2.3V54.4h11V65.2z M91.1,56.7v6.2h6.3v-6.2H91.1z M93.9,39.3c-0.4-1.3-1.4-3.4-2.3-5l2.3-0.8c1,1.5,1.9,3.6,2.4,4.9
		L93.9,39.3z M99.8,62.8c1.3-2,2.1-5.3,2.6-7.8l2,0.6c-0.5,2.7-1.3,6-2.6,8.1L99.8,62.8z M112.4,37.2c-0.7,6.7-2.5,12.2-9.3,15.3
		c-0.3-0.6-1-1.6-1.6-2c3.3-1.4,5.3-3.4,6.5-5.9c-1.4-1.4-3.6-3.4-5.4-4.8l1.4-1.6c1.6,1.2,3.5,2.8,4.9,4c0.5-1.6,0.7-3.3,0.9-5.1
		h-7.6v-2.4h18.1c0,0,0,0.8,0,1.2c-0.4,9.4-0.8,12.7-1.7,13.9c-0.6,0.7-1.3,1-2.3,1.1c-0.9,0.1-2.6,0.1-4.2,0
		c-0.1-0.7-0.3-1.7-0.8-2.4c1.7,0.1,3.3,0.2,3.9,0.2c0.6,0,0.9-0.1,1.2-0.4c0.6-0.7,1-3.6,1.3-11H112.4z M113.6,64.2
		c1.2,0,1.4-0.6,1.6-4.9c0.5,0.4,1.5,0.8,2.2,0.9c-0.3,5-0.9,6.2-3.5,6.2H109c-2.9,0-3.7-0.7-3.7-3.3v-9h2.4v9
		c0,0.9,0.3,1.1,1.5,1.1H113.6z M110.1,51.5c1.6,1.6,3.3,3.9,4.1,5.3l-1.8,1.3c-0.8-1.4-2.4-3.8-4-5.5L110.1,51.5z M118.7,53.5
		c1.3,2.4,2.7,5.7,3.3,7.6l-2.1,0.8c-0.5-2-1.8-5.3-3.1-7.8L118.7,53.5z"/>
	<path class="st1" d="M137.2,42h-12.3v-2.3h12.3V42z M136.3,65h-7.9v1.7h-2.2V54.3h10.1V65z M136.1,46.7h-9.9v-2.2h9.9V46.7z
		 M126.3,49.4h9.9v2.2h-9.9V49.4z M128.4,56.6v6.1h5.7v-6.1H128.4z M131.4,39.3c-0.5-1.3-1.8-3.4-2.8-5l1.9-1.2
		c1.1,1.5,2.3,3.4,2.9,4.8L131.4,39.3z M143.2,44.7c-1.3,1.8-2.9,3.3-4.5,4.4c-0.4-0.5-1.1-1.4-1.7-1.9c1.6-0.9,3.1-2.4,4.3-4.2
		c-0.9-0.8-2.3-1.9-3.4-2.6l1.5-1.8c1.1,0.6,2.3,1.5,3.2,2.3c0.7-1.2,1.3-2.5,1.7-3.9h-5.4v-2.3h6.3l0.5-0.1l1.6,0.6
		c-0.7,3.3-2,6.3-3.6,8.7h8.8c-1.9-2.7-3.3-6.1-4.2-9.7l2.3-0.4c0.3,1.1,0.6,2.1,1,3.2c1-0.9,2.2-1.9,2.8-2.6l1.7,1.5
		c-1.1,1.1-2.5,2.2-3.7,3c0.4,0.7,0.7,1.5,1.2,2.1c1.1-0.7,2.4-1.8,3.2-2.5l1.7,1.5c-1.1,1-2.6,1.9-3.8,2.6c1.3,1.7,2.7,3.1,4.4,4.1
		c-0.6,0.4-1.4,1.3-1.9,2c-1.7-1.1-3.3-2.7-4.6-4.6v2h-9.6V44.7z M154.3,58.5c-0.9,1.8-1.9,3.9-2.9,5.5h7v2.3h-20.9V64h11.3
		c1-1.7,2.2-4.4,2.8-6.2L154.3,58.5z M155.2,57.5h-14.5v-8.8h14.5V57.5z M144,64c-0.2-1.4-1.1-3.7-2.1-5.4l2.4-0.6
		c1,1.7,2,3.9,2.2,5.3L144,64z M152.7,50.9H143v4.4h9.7V50.9z"/>
</g>
</svg>
