<?xml version="1.0" encoding="utf-8"?>
<!-- Generator: Adobe Illustrator 20.0.0, SVG Export Plug-In . SVG Version: 6.00 Build 0)  -->
<svg version="1.1" id="圖層_1" xmlns="http://www.w3.org/2000/svg" xmlns:xlink="http://www.w3.org/1999/xlink" x="0px" y="0px"
	 viewBox="0 0 257.6 257.6" style="enable-background:new 0 0 257.6 257.6;" xml:space="preserve">
<style type="text/css">
	.st0{fill:url(#SVGID_1_);}
	.st1{fill:#FFFFFF;}
	.st2{fill:url(#SVGID_2_);}
</style>
<linearGradient id="SVGID_1_" gradientUnits="userSpaceOnUse" x1="257.3141" y1="0.4624" x2="-1.926087e-02" y2="257.4624">
	<stop  offset="0" style="stop-color:#FFF1A6"/>
	<stop  offset="0.598" style="stop-color:#C09847"/>
	<stop  offset="0.7518" style="stop-color:#F2E89C"/>
	<stop  offset="0.8154" style="stop-color:#F6EB9F"/>
	<stop  offset="1" style="stop-color:#FFF1A6"/>
</linearGradient>
<circle class="st0" cx="128.8" cy="128.8" r="128.8"/>
<g>
	<path class="st1" d="M178.7,149.8c0-22.3,6.6-31.5,6.6-31.5s-6.6-0.4-11.4-4.8c-4.8-4.4-5.3-8.3-5.3-8.3s-10.1,1.8-22.3-1.3
		c-12.3-3.1-17.5-16.2-17.5-16.2s0,0,0,0.1c0,0,0-0.1,0-0.1s-5.3,13.1-17.5,16.2c-12.3,3.1-22.3,1.3-22.3,1.3s-0.4,3.9-5.3,8.3
		c-4.8,4.4-11.4,4.8-11.4,4.8s6.6,9.2,6.6,31.5c0,22.3-11.4,26.3-10.5,46c0.9,19.7,15.8,25.4,36.3,28.9c20.1,3.4,24,12.9,24.1,13.3
		v0l0,0v0v0c0.1-0.4,4-9.9,24.1-13.3c20.6-3.5,35.5-9.2,36.3-28.9C190.1,176,178.7,172.1,178.7,149.8z"/>
</g>
<linearGradient id="SVGID_2_" gradientUnits="userSpaceOnUse" x1="274.5703" y1="17.741" x2="17.237" y2="274.741">
	<stop  offset="0" style="stop-color:#FFF1A6"/>
	<stop  offset="0.598" style="stop-color:#C09847"/>
	<stop  offset="0.7518" style="stop-color:#F2E89C"/>
	<stop  offset="0.8154" style="stop-color:#F6EB9F"/>
	<stop  offset="1" style="stop-color:#FFF1A6"/>
</linearGradient>
<path class="st2" d="M128.8,231.8l-1-2.7c0-0.1-3.2-8-20.3-10.9c-19.7-3.3-32-8.9-32.8-26.4c-0.4-8.8,1.9-14.1,4.4-19.7
	c2.4-5.4,4.9-11.1,4.9-20.7c0-18.9-5.5-26.9-5.6-27l-1.1-1.6l2-0.1c0.1,0,5.4-0.4,9.3-3.9c3.8-3.5,4.2-6.6,4.2-6.6l0.1-1.2l1.1,0.2
	c0.1,0,8.7,1.5,19.1-1.1c10.1-2.5,14.5-13.4,14.6-13.5l1-2.6l0.1,0.2l1,2.4c0,0.1,4.5,11,14.6,13.5c10.4,2.6,19,1.1,19.1,1.1
	l1.2-0.2l0.1,1.2c0,0,0.4,3.1,4.2,6.6c3.9,3.5,9.2,3.9,9.3,3.9l2,0.1l-1.2,1.6c-0.1,0.1-5.5,8.1-5.5,27c0,9.6,2.5,15.2,4.9,20.7
	c2.4,5.6,4.8,10.8,4.4,19.7c-0.8,17.5-13.1,23-32.8,26.4c-8.9,1.5-14,4.4-16.6,6.6c-2.9,2.3-3.6,4.3-3.7,4.4L128.8,231.8z
	 M81.1,124.6c1.7,3.2,5.1,11.6,5.1,26.8c0,10.1-2.6,15.9-5,21.6c-2.3,5.3-4.5,10.4-4.2,18.7c0.7,16,12.4,21.1,30.9,24.3
	c13.4,2.3,18.9,7.7,20.9,10.5c2-2.9,7.4-8.2,21-10.5c25-4.3,30.4-12.4,30.9-24.3c0.4-8.3-1.8-13.3-4.2-18.7c-2.5-5.6-5-11.5-5-21.6
	c0-15.2,3.4-23.6,5.1-26.8c-2.1-0.4-5.9-1.5-8.9-4.3c-3.1-2.8-4.3-5.4-4.7-6.9c-2.7,0.3-10.2,0.9-19-1.3c-8.3-2.1-13-9-15-12.6
	l-0.1,0.2l-0.1-0.2c-2,3.6-6.7,10.6-15,12.6c-8.8,2.2-16.3,1.6-19,1.3c-0.4,1.4-1.6,4.1-4.7,6.9C87,123.1,83.2,124.2,81.1,124.6z"/>
<g>
	<path class="st1" d="M147.2,37.8c0.1,0,0.2,0,0.3,0c1.7,0,3-1.3,3-3c0-1.7-1.3-3-3-3c-1.7,0-3,1.3-3,3c0,1.4,1,2.6,2.3,2.9
		c-1.5,3.5-6.9,15.9-9,24.1c0,0-3.5-15.8-9.2-31.5c0.4,0,0.8-0.1,1.1-0.3c1-0.5,1.8-1.5,1.8-2.7c0-1.7-1.3-3-3-3c-1.7,0-3,1.3-3,3
		c0,1.6,1.3,2.9,2.9,3c-5.6,15.7-9.2,31.5-9.2,31.5c-2.2-8.1-7.5-20.5-9-24c1.4-0.3,2.4-1.5,2.4-2.9c0-1.7-1.3-3-3-3
		c-1.7,0-3,1.3-3,3c0,1.7,1.3,3,3,3c0.1,0,0.1,0,0.2,0c0.1,8.6-4,25.3-4,25.3c-2.5-7.2-12.5-19.5-13-20.1c1.3-0.3,2.3-1.5,2.3-2.9
		c0-1.7-1.3-3-3-3c-1.7,0-3,1.3-3,3c0,1.7,1.3,3,3,3c0.2,0,0.4,0,0.7-0.1c1.3,7.6,2.3,36.1,2.3,36.1h33.4h33.4
		c0,0,1.1-28.6,2.3-36.1c0,0-10.5,12.8-13,20.2C151.2,63.1,147.1,46.4,147.2,37.8z"/>
	<circle class="st1" cx="165.4" cy="40" r="3"/>
</g>
</svg>
