<?xml version="1.0" encoding="utf-8"?>
<!-- Generator: Adobe Illustrator 16.0.0, SVG Export Plug-In . SVG Version: 6.00 Build 0)  -->
<!DOCTYPE svg PUBLIC "-//W3C//DTD SVG 1.1//EN" "http://www.w3.org/Graphics/SVG/1.1/DTD/svg11.dtd">
<svg version="1.1" id="Line_2_" xmlns="http://www.w3.org/2000/svg" xmlns:xlink="http://www.w3.org/1999/xlink" x="0px" y="0px"
	 width="30px" height="30px" viewBox="294.5 375.173 30 30" enable-background="new 294.5 375.173 30 30" xml:space="preserve">
<g id="Line">
	<g>
		<path fill="#FFFFFF" d="M320.074,389.034c0-4.627-4.596-8.379-10.268-8.379c-5.67,0-10.268,3.751-10.268,8.379
			c0,4.198,3.782,7.675,8.718,8.284c0.151,0.024,0.251,0.064,0.327,0.101c0.292,0.16,0.537,0.369,0.522,0.604
			c-0.017,0.439-0.241,1.008-0.304,1.463c-0.065,0.455,0.007,0.807,0.608,0.792c1.172-0.081,7.733-4.869,8.773-6.398l0,0
			C319.375,392.51,320.074,390.838,320.074,389.034z M305.786,391.625h-2.012c-0.251,0-0.457-0.206-0.457-0.458v-4.022
			c0-0.253,0.205-0.457,0.457-0.457c0.253,0,0.457,0.204,0.457,0.457v3.565h1.555c0.253,0,0.455,0.205,0.455,0.457
			C306.24,391.419,306.039,391.625,305.786,391.625z M307.827,391.167c0,0.252-0.207,0.458-0.457,0.458
			c-0.253,0-0.458-0.206-0.458-0.458v-4.022c0-0.253,0.205-0.457,0.458-0.457c0.25,0,0.457,0.204,0.457,0.457V391.167z
			 M312.702,391.167c0,0.252-0.203,0.458-0.458,0.458c-0.164,0-0.273-0.119-0.517-0.428l-2.071-2.655v2.625
			c0,0.252-0.208,0.458-0.458,0.458c-0.252,0-0.457-0.206-0.457-0.458v-4.022c0-0.253,0.205-0.457,0.457-0.457
			c0.214,0,0.326,0.114,0.579,0.426l2.009,2.681v-2.65c0-0.253,0.206-0.457,0.458-0.457c0.255,0,0.458,0.204,0.458,0.457V391.167z
			 M316.056,388.698c0.269,0,0.486,0.218,0.486,0.488c0,0.27-0.218,0.488-0.486,0.488h-1.526v1.036h1.554
			c0.253,0,0.459,0.205,0.459,0.457c0,0.252-0.206,0.458-0.459,0.458h-2.132c-0.253,0-0.457-0.206-0.457-0.458v-4.022
			c0-0.242,0.189-0.44,0.425-0.455v-0.002h2.137c0.269,0,0.486,0.218,0.486,0.488c0,0.268-0.218,0.488-0.486,0.488h-1.526v1.035
			H316.056L316.056,388.698z"/>
	</g>
</g>
</svg>
