<?xml version="1.0" encoding="utf-8"?>
<!-- Generator: Adobe Illustrator 20.0.0, SVG Export Plug-In . SVG Version: 6.00 Build 0)  -->
<svg version="1.1" id="圖層_1" xmlns="http://www.w3.org/2000/svg" xmlns:xlink="http://www.w3.org/1999/xlink" x="0px" y="0px"
	 viewBox="0 0 30 22" style="enable-background:new 0 0 30 22;" xml:space="preserve">
<style type="text/css">
	.st0{display:none;}
	.st1{display:inline;fill:#F4CE2E;}
	.st2{display:inline;fill:#9AC4C5;}
	.st3{display:inline;fill:#A8C52F;}
	.st4{display:inline;fill:#EBA61F;}
	.st5{display:inline;fill:#F2CC4E;}
	.st6{display:inline;fill:#278AC9;}
	.st7{display:inline;fill:#CC2620;}
	.st8{fill:#FFFFFF;}
</style>
<g class="st0">
	<path class="st1" d="M19.7,22.2c0,0.6,0,1.2,0,1.8c-1.9,1.9-3.8,2.9-5.9,0.7c0-9,0-18,0-27.1c1.8-1.6,3-1.6,5.2-0.4
		c0.5,0.2,1,0.2,1.5,0.4c-0.1,2.1,0.3,4.3-0.9,6c1.2,2.6,1.2,5,0.1,7.5c-0.3,0.6-0.7,1.2-1.4,2.5c1.2,0,1.7,0,2.2,0
		c0,1.2,0,2.5,0,3.7c-0.6,0.1-1.1,0.2-1.4,0.3c0.2,1.4,0.4,2.4,0.6,3.4C19.7,21.4,19.7,21.8,19.7,22.2z"/>
	<path class="st2" d="M4.5,24.7c-1.7,0-3.4,0-5.1,0c-0.3-4.1,0.1-8.1-0.7-12.3C-1.9,8.5-2.1,3.8-0.7-0.3c-0.3-0.7-0.6-1.4-0.8-2
		C-0.3-2.6,0.8-3,2-3.3c1.3,0.6,2.7,1.4,4.1,2.2c-0.4,0.6-0.9,1-1.5,1.8C4.8,1,5,1.5,5.1,1.8C4.8,4.2,4.5,6.2,4.4,8.2
		C4.4,13.8,4.5,19.2,4.5,24.7z"/>
	<path class="st3" d="M13.8-2.3c0,9,0,18,0,27.1c-1.4,0-2.8,0-4.3,0C8,20.8,8.3,16.3,8.9,12.5C9.5,8.7,9.3,5,9.6,1.4
		c0.1-0.8,0-1.6,0-2.4c0.3-0.4,0.7-1.1,1-1.2C11.7-2.4,12.7-2.3,13.8-2.3z"/>
	<path class="st4" d="M24.8,12.4c0,3.3,0,6.6,0,9.8c-1,0.1-2.2-0.6-2.8,0.9c-0.8-0.3-1.5-0.6-2.3-0.9c0-0.4,0-0.8,0-1.2
		c1.7-0.6,0.6-2.5,0.8-3.7c0-1.2,0-2.5,0-3.7c-0.1-1,0.4-2.3-0.8-2.5c1.2-2.5,1.2-5-0.1-7.5c1.2-1.7,0.8-3.9,0.9-6
		c0-0.6,0-1.2,0-2.2c1.2-0.1,2.4-0.2,3.6-0.2c0.2,0,0.4,0.8,0.7,1.2c0,0.4,0,0.8,0,1.2c-1.2,2-1.2,4.2,0,6.2c0,0.4,0,0.8,0,1.2
		c-0.2,0.2-0.4,0.2-0.7,0.4c0.2,0.2,0.4,0.6,0.7,0.8c0,0.8,0,1.6,0,2.5C23.6,10,23.6,11.2,24.8,12.4z"/>
	<path class="st5" d="M24.8,3.8c-1.2-2-1.2-4.2,0-6.2C24.8-0.2,24.8,1.8,24.8,3.8z"/>
	<path class="st6" d="M6.2-1.1c1.1,0,2.3,0,3.4,0c0,0.8,0.1,1.6,0,2.4C9.3,5,9.5,8.6,8.9,12.4C8.3,16.2,8,20.7,9.6,24.6
		c-1.3,0.1-0.7,1.5-0.8,2.5c-1.1,0-2.3,0-3.4,0c-0.3-0.8-0.6-1.6-0.8-2.5c0-5.4-0.1-11,0.1-16.4C4.7,6.2,5,4.1,5.3,1.8
		C5.1,1.5,4.9,1,4.8,0.7C5.3,0,5.8-0.6,6.2-1.1z"/>
	<path class="st5" d="M19.7,11.2c1.3,0.1,0.7,1.5,0.8,2.5c-0.5,0-1,0-2.2,0C19.1,12.4,19.4,11.8,19.7,11.2z"/>
	<path class="st5" d="M20.6,17.4c-0.3,1.2,0.8,3.1-0.8,3.7c-0.2-1-0.4-2-0.6-3.4C19.5,17.5,20.1,17.4,20.6,17.4z"/>
	<path class="st5" d="M24.8,12.4c-1.2-1.2-1.2-2.5,0-3.7C24.8,10,24.8,11.2,24.8,12.4z"/>
	<path class="st5" d="M24.8,6.2c-0.2-0.2-0.4-0.6-0.7-0.8c0.2-0.2,0.4-0.2,0.7-0.4C24.8,5.4,24.8,5.8,24.8,6.2z"/>
	<path class="st7" d="M29.9,1.4c0,7.3,0,14.6,0,22.1c-1.7,0-3,0.1-4.4-0.1c-0.2,0-0.4-0.8-0.7-1.2c0-3.3,0-6.6,0-9.8
		c0-1.2,0-2.5,0-3.7c0-0.8,0-1.6,0-2.5c0-0.4,0-0.8,0-1.2s0-0.8,0-1.2c0-2.1,0-4.1,0-6.2c0-0.4,0-0.8,0-1.2c1.2,0,2.4,0,3.6,0
		c1,0.8,1.7,1.8,1.4,3.7C29.9,0.6,29.9,1,29.9,1.4z"/>
</g>
<path class="st8" d="M2,4h26c1.1,0,2-0.9,2-2s-0.9-2-2-2H2C0.9,0,0,0.9,0,2S0.9,4,2,4z"/>
<path class="st8" d="M28,9H2c-1.1,0-2,0.9-2,2s0.9,2,2,2h26c1.1,0,2-0.9,2-2S29.1,9,28,9z"/>
<path class="st8" d="M28,18H2c-1.1,0-2,0.9-2,2s0.9,2,2,2h26c1.1,0,2-0.9,2-2S29.1,18,28,18z"/>
</svg>
