<?xml version="1.0" encoding="utf-8"?>
<!-- Generator: Adobe Illustrator 20.0.0, SVG Export Plug-In . SVG Version: 6.00 Build 0)  -->
<svg version="1.1" id="圖層_1" xmlns="http://www.w3.org/2000/svg" xmlns:xlink="http://www.w3.org/1999/xlink" x="0px" y="0px"
	 viewBox="0 0 191 53.5" style="enable-background:new 0 0 191 53.5;" xml:space="preserve">
<style type="text/css">
	.st0{fill:#FFFFFF;}
</style>
<g>
	<path class="st0" d="M13.4,45c0,0.2-0.1,0.6-0.3,1.1l-1.9,5.6c-0.2,0.7-0.4,1.2-0.6,1.4c-0.2,0.3-0.6,0.5-1,0.5
		c-0.5,0-0.8-0.2-1.1-0.5c-0.2-0.2-0.3-0.7-0.5-1.4L6.8,47l-1.3,4.5c-0.1,0.4-0.2,0.7-0.3,0.9c0,0.3-0.1,0.5-0.2,0.6
		c-0.2,0.3-0.6,0.5-1,0.5S3.2,53.3,3,53c-0.1-0.2-0.3-0.6-0.6-1.4L0.5,46c-0.2-0.5-0.3-0.9-0.3-1.1c0-0.2,0.1-0.5,0.3-0.7
		C0.7,44.1,0.9,44,1.2,44c0.4,0,0.6,0.1,0.8,0.4c0.1,0.2,0.2,0.5,0.4,1.1l1.5,5.2l1.4-4.8c0.1-0.5,0.2-0.8,0.3-0.9
		c0.1-0.2,0.2-0.4,0.3-0.5C6,44.2,6.4,44,6.8,44s0.8,0.2,1,0.5c0.1,0.2,0.3,0.6,0.5,1.4l1.4,4.8l1.5-5.2c0.1-0.5,0.3-0.9,0.4-1.1
		c0.2-0.3,0.5-0.4,0.8-0.4s0.5,0.1,0.7,0.3C13.3,44.5,13.4,44.7,13.4,45z"/>
	<path class="st0" d="M27.1,45c0,0.2-0.1,0.6-0.3,1.1L25,51.6c-0.2,0.7-0.4,1.2-0.6,1.4c-0.2,0.3-0.6,0.5-1,0.5
		c-0.5,0-0.8-0.2-1.1-0.5c-0.2-0.2-0.3-0.7-0.5-1.4L20.5,47l-1.3,4.5c-0.1,0.5-0.2,0.8-0.2,1c-0.1,0.2-0.2,0.4-0.3,0.5
		c-0.2,0.3-0.6,0.5-1,0.5s-0.8-0.2-1-0.5c-0.1-0.2-0.3-0.6-0.6-1.4L14.2,46c-0.2-0.5-0.3-0.9-0.3-1.1c0-0.2,0.1-0.5,0.3-0.7
		s0.4-0.3,0.7-0.3c0.4,0,0.6,0.1,0.8,0.4c0.1,0.2,0.2,0.5,0.4,1.1l1.5,5.2l1.4-4.8c0.1-0.5,0.2-0.8,0.3-0.9c0.1-0.2,0.2-0.4,0.3-0.5
		c0.2-0.3,0.6-0.5,1-0.5s0.8,0.2,1,0.5c0.1,0.2,0.3,0.6,0.5,1.4l1.4,4.8l1.5-5.2c0.1-0.5,0.3-0.9,0.4-1.1c0.2-0.3,0.5-0.4,0.8-0.4
		s0.5,0.1,0.7,0.3C27,44.5,27.1,44.7,27.1,45z"/>
	<path class="st0" d="M40.8,45c0,0.2-0.1,0.6-0.3,1.1l-1.9,5.6c-0.2,0.7-0.4,1.2-0.6,1.4c-0.2,0.3-0.6,0.5-1,0.5
		c-0.5,0-0.8-0.2-1.1-0.5c-0.2-0.2-0.3-0.7-0.5-1.4L34.2,47l-1.3,4.5c-0.1,0.4-0.2,0.7-0.3,0.9s-0.2,0.4-0.3,0.5
		c-0.2,0.3-0.6,0.5-1,0.5s-0.8-0.2-1-0.5c-0.1-0.2-0.3-0.6-0.6-1.4l-1.9-5.6c-0.2-0.5-0.3-0.9-0.3-1.1c0-0.2,0.1-0.5,0.3-0.7
		c0.2-0.2,0.4-0.3,0.7-0.3c0.4,0,0.6,0.1,0.8,0.4c0.1,0.2,0.2,0.5,0.4,1.1l1.5,5.2l1.4-4.8c0.1-0.5,0.2-0.8,0.3-0.9
		c0.1-0.2,0.2-0.4,0.3-0.5c0.2-0.3,0.6-0.5,1-0.5s0.8,0.2,1,0.5c0.1,0.2,0.3,0.6,0.5,1.4l1.4,4.8l1.5-5.2c0.1-0.5,0.3-0.9,0.4-1.1
		c0.2-0.3,0.5-0.4,0.8-0.4s0.5,0.1,0.7,0.3C40.7,44.5,40.8,44.7,40.8,45z"/>
	<path class="st0" d="M44.9,52.2c0,0.4-0.1,0.7-0.4,0.9c-0.2,0.2-0.5,0.4-0.9,0.4s-0.7-0.1-0.9-0.4c-0.2-0.2-0.4-0.5-0.4-0.9
		s0.1-0.7,0.4-0.9c0.2-0.2,0.5-0.4,0.9-0.4c0.3,0,0.6,0.1,0.9,0.4C44.8,51.5,44.9,51.8,44.9,52.2z"/>
	<path class="st0" d="M54.8,50.5c0,1-0.4,1.8-1.2,2.3c-0.7,0.5-1.6,0.7-2.8,0.7c-1.4,0-2.4-0.3-3.1-1C47.2,52,47,51.5,47,51
		c0-0.2,0.1-0.5,0.3-0.6c0.2-0.2,0.4-0.3,0.7-0.3c0.4,0,0.7,0.2,1,0.7c0.3,0.8,1,1.2,2,1.2c0.5,0,0.8-0.1,1.1-0.3s0.4-0.5,0.4-0.8
		c0-0.4-0.2-0.7-0.6-0.9c-0.3-0.1-0.7-0.3-1.3-0.4c-1-0.2-1.8-0.5-2.3-0.8c-0.8-0.5-1.2-1.1-1.2-2c0-0.6,0.2-1.2,0.6-1.6
		c0.6-0.7,1.6-1.1,3-1.1c1.2,0,2.1,0.3,2.8,0.8c0.6,0.4,0.9,0.9,0.9,1.4c0,0.2-0.1,0.5-0.2,0.6c-0.2,0.2-0.4,0.3-0.7,0.3
		c-0.4,0-0.8-0.3-1.2-0.8s-0.9-0.7-1.6-0.7c-0.4,0-0.7,0.1-0.9,0.2c-0.3,0.2-0.5,0.4-0.5,0.7s0.2,0.6,0.5,0.7c0.3,0.2,1,0.4,2,0.6
		C53.7,48.3,54.8,49.2,54.8,50.5z"/>
	<path class="st0" d="M61.8,52.3c0,0.8-0.8,1.1-2.4,1.1c-1.1,0-1.8-0.3-2.2-1c-0.2-0.4-0.3-1.1-0.3-2.1v-4.5h-0.3
		c-0.7,0-1-0.3-1-0.9c0-0.6,0.4-0.8,1.1-0.8H57v-1.4c0-0.7,0.1-1.2,0.2-1.4c0.2-0.4,0.5-0.5,1-0.5s0.8,0.2,1,0.5
		c0.1,0.2,0.2,0.7,0.2,1.2v1.6h0.5c0.5,0,0.8,0,1,0.1c0.3,0.1,0.4,0.4,0.4,0.7c0,0.6-0.5,0.9-1.4,0.9h-0.4v4.3c0,0.6,0,0.9,0.1,1.1
		c0.1,0.3,0.3,0.4,0.7,0.4c0.2,0,0.4,0,0.6-0.1c0.2,0,0.4-0.1,0.5-0.1c0.2,0,0.4,0.1,0.6,0.3C61.7,52,61.8,52.1,61.8,52.3z"/>
	<path class="st0" d="M70.8,52.6c0,0.2-0.1,0.5-0.3,0.6c-0.2,0.2-0.5,0.3-0.7,0.3c-0.5,0-0.9-0.4-1.5-1.3c-1.1,0.9-2.2,1.3-3.2,1.3
		c-1.1,0-1.9-0.3-2.4-0.9c-0.4-0.5-0.7-1.1-0.7-1.7c0-1.3,0.7-2.1,2.2-2.5c0.8-0.1,2.1-0.5,3.9-0.9c0-0.6-0.1-1-0.3-1.2
		c-0.2-0.4-0.7-0.6-1.4-0.6c-1,0-1.7,0.3-2.1,0.9c-0.2,0.3-0.3,0.6-0.4,0.7c-0.2,0.2-0.4,0.3-0.7,0.3c-0.2,0-0.4-0.1-0.6-0.2
		c-0.2-0.2-0.3-0.4-0.3-0.6c0-0.8,0.4-1.4,1.3-1.9c0.7-0.4,1.6-0.6,2.7-0.6c1.6,0,2.8,0.3,3.3,1c0.5,0.5,0.7,1.4,0.7,2.7l-0.1,2.2
		c0,0.7,0.1,1.3,0.2,1.7C70.7,52,70.8,52.3,70.8,52.6z M68.1,48.8c-0.3,0.1-0.8,0.3-1.4,0.4c-0.9,0.2-1.6,0.4-1.9,0.6
		c-0.4,0.2-0.6,0.5-0.6,0.9c0,0.3,0.1,0.6,0.3,0.8c0.3,0.3,0.7,0.5,1.2,0.5s0.9-0.1,1.4-0.4c0.4-0.2,0.7-0.6,0.8-1
		C68.1,50.2,68.1,49.6,68.1,48.8z"/>
	<path class="st0" d="M78.8,45.3c0,0.3-0.1,0.5-0.3,0.7c-0.2,0.2-0.4,0.3-0.6,0.3c-0.1,0-0.3-0.1-0.7-0.2C76.9,46,76.6,46,76.4,46
		c-0.7,0-1.1,0.4-1.4,1.2c-0.2,0.6-0.3,1.5-0.3,2.9v1.3c0,0.7-0.1,1.2-0.2,1.4c-0.2,0.4-0.5,0.6-1,0.6s-0.8-0.2-1-0.6
		c-0.1-0.2-0.2-0.7-0.2-1.3v-6c0-1,0.4-1.6,1.1-1.6s1.1,0.5,1.1,1.5c0.2-0.5,0.5-0.8,0.7-1c0.3-0.3,0.8-0.5,1.3-0.5
		c0.4,0,0.8,0.1,1.2,0.3C78.5,44.5,78.8,44.9,78.8,45.3z"/>
	<path class="st0" d="M85.1,52.3c0,0.8-0.8,1.1-2.4,1.1c-1.1,0-1.8-0.3-2.2-1c-0.2-0.4-0.3-1.1-0.3-2.1v-4.5h-0.3
		c-0.7,0-1-0.3-1-0.9c0-0.6,0.4-0.8,1.1-0.8h0.3v-1.4c0-0.7,0.1-1.2,0.2-1.4c0.2-0.4,0.5-0.5,1-0.5s0.8,0.2,1,0.5
		c0.1,0.2,0.2,0.7,0.2,1.2v1.6H83c0.5,0,0.8,0,1,0.1c0.3,0.1,0.4,0.4,0.4,0.7c0,0.6-0.5,0.9-1.4,0.9h-0.4v4.3c0,0.6,0,0.9,0.1,1.1
		c0.1,0.3,0.3,0.4,0.7,0.4c0.2,0,0.4,0,0.6-0.1c0.2,0,0.4-0.1,0.5-0.1c0.2,0,0.4,0.1,0.6,0.3C85,52,85.1,52.1,85.1,52.3z"/>
	<path class="st0" d="M92.1,45.3c0,0.3-0.1,0.5-0.3,0.7c-0.2,0.2-0.4,0.3-0.6,0.3c-0.1,0-0.3-0.1-0.7-0.2C90.2,46,89.9,46,89.7,46
		c-0.7,0-1.1,0.4-1.4,1.2c-0.2,0.6-0.3,1.5-0.3,2.9v1.3c0,0.7-0.1,1.2-0.2,1.4c-0.2,0.4-0.5,0.6-1,0.6s-0.8-0.2-1-0.6
		c-0.1-0.2-0.2-0.7-0.2-1.3v-6c0-1,0.4-1.6,1.1-1.6s1.1,0.5,1.1,1.5c0.2-0.5,0.5-0.8,0.7-1c0.3-0.3,0.8-0.5,1.3-0.5
		c0.4,0,0.8,0.1,1.2,0.3C91.8,44.5,92.1,44.9,92.1,45.3z"/>
	<path class="st0" d="M101.5,52.6c0,0.2-0.1,0.5-0.3,0.6c-0.2,0.2-0.5,0.3-0.7,0.3c-0.5,0-0.9-0.4-1.5-1.3c-1.1,0.9-2.2,1.3-3.2,1.3
		c-1.1,0-1.9-0.3-2.4-0.9c-0.4-0.5-0.7-1.1-0.7-1.7c0-1.3,0.7-2.1,2.2-2.5c0.8-0.1,2.1-0.5,3.9-0.9c0-0.6-0.1-1-0.3-1.2
		c-0.2-0.4-0.7-0.6-1.4-0.6c-1,0-1.7,0.3-2.1,0.9c-0.2,0.3-0.3,0.6-0.4,0.7c-0.2,0.2-0.4,0.3-0.7,0.3c-0.2,0-0.4-0.1-0.6-0.2
		C93.1,47.2,93,47,93,46.8c0-0.8,0.4-1.4,1.3-1.9c0.7-0.4,1.6-0.6,2.7-0.6c1.6,0,2.8,0.3,3.3,1c0.5,0.5,0.7,1.4,0.7,2.7v2.2
		c0,0.7,0.1,1.3,0.2,1.7C101.4,52,101.5,52.3,101.5,52.6z M98.9,48.8c-0.3,0.1-0.8,0.3-1.4,0.4c-0.9,0.2-1.6,0.4-1.9,0.6
		C95.2,50,95,50.3,95,50.7c0,0.3,0.1,0.6,0.3,0.8c0.3,0.3,0.7,0.5,1.2,0.5s0.9-0.1,1.4-0.4c0.4-0.2,0.7-0.6,0.8-1
		C98.8,50.2,98.9,49.6,98.9,48.8z"/>
	<path class="st0" d="M110.9,45c0,0.2-0.1,0.6-0.3,1.2l-2.2,5.5c-0.2,0.5-0.3,0.8-0.4,0.9c-0.1,0.2-0.2,0.4-0.3,0.5
		c-0.2,0.3-0.6,0.4-0.9,0.4c-0.4,0-0.8-0.2-1-0.5c-0.2-0.2-0.4-0.6-0.7-1.3l-2.3-5.8c-0.1-0.3-0.2-0.6-0.2-0.8s0.1-0.5,0.3-0.7
		c0.2-0.2,0.5-0.3,0.8-0.3s0.6,0.1,0.8,0.4c0.1,0.2,0.3,0.5,0.5,1.1l1.9,5.3l2-5.5c0.2-0.4,0.3-0.7,0.4-0.9c0.2-0.2,0.4-0.3,0.7-0.3
		c0.3,0,0.6,0.1,0.8,0.3C110.8,44.6,110.9,44.8,110.9,45z"/>
	<path class="st0" d="M120.6,47.9c0,0.6-0.2,1-0.7,1.2c-0.2,0.1-0.7,0.2-1.2,0.2h-4.5c0,0.9,0.3,1.6,0.8,2.1
		c0.4,0.4,0.9,0.6,1.5,0.6c0.8,0,1.5-0.3,2.2-1c0.4-0.4,0.8-0.6,1-0.6s0.4,0.1,0.5,0.2c0.1,0.1,0.2,0.3,0.2,0.5c0,0.5-0.3,1-0.9,1.6
		c-0.8,0.6-1.8,1-3,1c-1.1,0-2-0.2-2.7-0.6c-1.4-0.8-2-2.2-2-4.1c0-1.3,0.4-2.4,1.1-3.3c0.8-1,1.9-1.4,3.4-1.4s2.6,0.5,3.4,1.5
		C120.3,46.3,120.6,47.1,120.6,47.9z M118.4,48c0-0.6-0.2-1.1-0.4-1.4c-0.4-0.6-1-1-1.7-1c-0.8,0-1.4,0.4-1.8,1.1
		c-0.2,0.3-0.3,0.7-0.3,1.2h4.2V48z"/>
	<path class="st0" d="M124.6,51.6c0,0.8-0.1,1.4-0.3,1.6c-0.2,0.2-0.5,0.4-0.8,0.4s-0.6-0.1-0.8-0.4c-0.2-0.2-0.3-0.7-0.3-1.6v-9.1
		c0-0.8,0.1-1.4,0.3-1.6c0.2-0.2,0.5-0.3,0.8-0.3s0.6,0.1,0.8,0.3c0.2,0.2,0.3,0.7,0.3,1.6V51.6z"/>
	<path class="st0" d="M129.7,52.2c0,0.4-0.1,0.7-0.4,0.9c-0.2,0.2-0.5,0.4-0.9,0.4s-0.7-0.1-0.9-0.4c-0.2-0.2-0.4-0.5-0.4-0.9
		s0.1-0.7,0.4-0.9c0.2-0.2,0.5-0.4,0.9-0.4c0.3,0,0.6,0.1,0.9,0.4C129.6,51.5,129.7,51.8,129.7,52.2z"/>
	<path class="st0" d="M140.4,50.6c0,0.6-0.3,1.2-1,1.8c-0.8,0.7-1.9,1.1-3.2,1.1c-1.7,0-3-0.6-3.8-1.7c-0.5-0.8-0.8-1.8-0.8-3
		c0-1.3,0.3-2.4,1-3.2c0.8-1,2-1.6,3.6-1.6c1.2,0,2.2,0.3,3,1c0.7,0.6,1,1.1,1,1.7c0,0.3-0.1,0.5-0.3,0.7s-0.4,0.3-0.7,0.3
		s-0.6-0.1-0.8-0.4c-0.3-0.5-0.6-0.8-0.9-1c-0.4-0.3-0.8-0.4-1.3-0.4c-0.8,0-1.4,0.3-1.8,1c-0.3,0.5-0.5,1.2-0.5,1.9
		c0,0.8,0.2,1.4,0.5,1.9c0.4,0.7,1,1.1,1.8,1.1s1.5-0.3,1.9-1c0.3-0.5,0.5-0.8,0.6-0.9c0.2-0.2,0.4-0.3,0.6-0.3
		c0.3,0,0.5,0.1,0.7,0.4C140.3,50.2,140.4,50.4,140.4,50.6z"/>
	<path class="st0" d="M150.8,48.7c0,1.4-0.4,2.5-1.2,3.4s-2,1.4-3.4,1.4c-1.6,0-2.8-0.5-3.6-1.6c-0.7-0.9-1-1.9-1-3.2
		s0.4-2.4,1.1-3.3c0.8-1,2-1.5,3.5-1.5s2.6,0.5,3.5,1.5C150.4,46.3,150.8,47.4,150.8,48.7z M148.5,48.7c0-1-0.2-1.7-0.6-2.2
		c-0.4-0.5-1-0.8-1.7-0.8s-1.2,0.3-1.7,0.8c-0.4,0.5-0.6,1.3-0.6,2.2c0,1,0.2,1.7,0.6,2.2c0.4,0.5,0.9,0.8,1.6,0.8
		c0.7,0,1.3-0.3,1.7-0.8C148.3,50.4,148.5,49.7,148.5,48.7z"/>
	<path class="st0" d="M165.4,51.5c0,0.9-0.1,1.4-0.3,1.7c-0.2,0.2-0.5,0.3-0.8,0.3s-0.6-0.1-0.8-0.4c-0.2-0.2-0.3-0.8-0.3-1.6v-3.4
		c0-0.8-0.1-1.3-0.2-1.6c-0.2-0.5-0.6-0.7-1.1-0.7c-0.8,0-1.3,0.3-1.5,1c-0.2,0.4-0.3,1.1-0.3,2.1v2.6c0,0.9-0.1,1.4-0.3,1.7
		c-0.2,0.2-0.5,0.3-0.8,0.3c-0.5,0-0.8-0.2-1-0.6c-0.1-0.3-0.1-0.7-0.1-1.3v-3.2c0-0.9,0-1.5-0.1-1.8c-0.2-0.5-0.6-0.7-1.1-0.7
		c-0.8,0-1.4,0.3-1.7,1c-0.2,0.4-0.2,1.1-0.2,2v2.6c0,0.9-0.1,1.4-0.3,1.6c-0.2,0.2-0.5,0.4-0.8,0.4s-0.6-0.1-0.8-0.4
		c-0.2-0.2-0.4-0.8-0.4-1.6v-5.7c0-0.8,0.1-1.3,0.3-1.5s0.5-0.3,0.8-0.3c0.4,0,0.8,0.2,0.9,0.5c0.1,0.2,0.2,0.5,0.2,0.9
		c0.8-1,1.7-1.4,2.8-1.4s2,0.5,2.5,1.4c0.8-1,1.7-1.4,2.7-1.4s1.8,0.3,2.3,0.9c0.4,0.6,0.6,1.4,0.6,2.5v4.1H165.4z"/>
	<path class="st0" d="M170.1,52.2c0,0.4-0.1,0.7-0.4,0.9c-0.2,0.2-0.5,0.4-0.9,0.4s-0.7-0.1-0.9-0.4c-0.2-0.2-0.4-0.5-0.4-0.9
		s0.1-0.7,0.4-0.9c0.2-0.2,0.5-0.4,0.9-0.4c0.3,0,0.6,0.1,0.9,0.4C169.9,51.5,170.1,51.8,170.1,52.2z"/>
	<path class="st0" d="M177.8,52.3c0,0.8-0.8,1.1-2.4,1.1c-1.1,0-1.8-0.3-2.2-1c-0.2-0.4-0.3-1.1-0.3-2.1v-4.5h-0.3
		c-0.7,0-1-0.3-1-0.9c0-0.6,0.4-0.8,1.1-0.8h0.3v-1.4c0-0.7,0.1-1.2,0.2-1.4c0.2-0.4,0.5-0.5,1-0.5c0.4,0,0.8,0.2,1,0.5
		c0.1,0.2,0.2,0.7,0.2,1.2v1.6h0.5c0.5,0,0.8,0,1,0.1c0.3,0.1,0.4,0.4,0.4,0.7c0,0.6-0.5,0.9-1.4,0.9h-0.4v4.3c0,0.6,0,0.9,0.1,1.1
		c0.1,0.3,0.3,0.4,0.7,0.4c0.2,0,0.4,0,0.6-0.1c0.2,0,0.4-0.1,0.5-0.1c0.2,0,0.4,0.1,0.6,0.3C177.7,52,177.8,52.1,177.8,52.3z"/>
	<path class="st0" d="M190.9,45c0,0.2-0.1,0.6-0.3,1.1l-1.9,5.6c-0.2,0.7-0.4,1.2-0.6,1.4c-0.2,0.3-0.6,0.5-1,0.5
		c-0.5,0-0.8-0.2-1.1-0.5c-0.2-0.2-0.3-0.7-0.5-1.4l-1.3-4.5l-1.3,4.5c-0.1,0.4-0.2,0.7-0.3,0.9s-0.2,0.4-0.3,0.5
		c-0.2,0.3-0.6,0.5-1,0.5c-0.5,0-0.8-0.2-1-0.5c-0.1-0.2-0.3-0.6-0.6-1.4l-1.9-5.6c-0.2-0.5-0.3-0.9-0.3-1.1c0-0.2,0.1-0.5,0.3-0.7
		s0.4-0.3,0.7-0.3c0.4,0,0.6,0.1,0.8,0.4c0.1,0.2,0.2,0.5,0.4,1.1l1.5,5.2l1.4-4.8c0.1-0.5,0.2-0.8,0.3-0.9c0.1-0.2,0.2-0.4,0.3-0.5
		c0.2-0.3,0.6-0.5,1-0.5s0.8,0.2,1,0.5c0.1,0.2,0.3,0.6,0.5,1.4l1.4,4.8l1.5-5.2c0.1-0.5,0.3-0.9,0.4-1.1c0.2-0.3,0.5-0.4,0.8-0.4
		s0.5,0.1,0.7,0.3C190.8,44.5,190.9,44.7,190.9,45z"/>
</g>
<path class="st0" d="M38,34.8c-0.7,0-2.2-0.5-4.4-1.6s-4.3-2.3-6.1-3.7v4.8c0,1-0.7,1.5-2,1.5c-1.2,0-1.8-0.5-1.8-1.5v-4.9
	c-1.2,1.2-3,2.4-5.4,3.5c-2.4,1.2-4,1.7-4.8,1.7c-1.3,0-2-0.8-2-2.3c0-0.7,0.3-1.2,1-1.4c4.1-1.2,7.2-2.6,9.4-4.4h-7.2
	c-1,0-1.4-0.6-1.4-1.7s0.5-1.6,1.4-1.6h4.5c-1-1.2-1.6-1.9-1.9-2.3c-0.2-0.2-0.2-0.4-0.2-0.6c0-0.1,0-0.2,0-0.3
	c-1.7,1.1-2.8,1.7-3.2,1.7c-1.3,0-2-0.8-2-2.3c0-0.5,0.3-0.9,0.9-1.3c2.3-1,3.9-1.9,4.8-2.8l-2.3-1.1c-0.7,0.9-1.3,1.4-1.8,1.4
	c-1.3,0-2.1-0.6-2.2-1.8c-0.3,0.4-0.5,0.8-0.7,1.1c-0.3,0.4-0.6,0.8-0.8,1.1v3.2c0,0.8-0.1,1.8-0.2,3.2c3.1,3,4.6,4.8,4.6,5.5
	c0,0.5-0.3,1-0.8,1.4c-0.5,0.5-1,0.7-1.6,0.7c-0.5,0-1-0.3-1.4-0.8c-0.5-0.7-1.2-1.6-2.1-2.6c-2.4,5.7-4.2,8.6-5.6,8.6
	c-0.6,0-1.2-0.2-1.8-0.7c-0.5-0.5-0.8-1-0.8-1.5c0-0.4,0.2-0.8,0.5-1.2C4,27.4,5.8,23.2,5.8,19V2.7c0-1.3,0.7-1.9,2.1-1.9
	c1.3,0,2,0.6,2,1.8v7.7c0.6-1.7,1-3,1.1-3.6s0.6-1,1.4-1c1.6,0,2.4,0.6,2.4,1.8c0,0.7-0.7,2.3-2.1,4.7c1.5-1.7,2.6-3.2,3.2-4.6
	c0.2-0.6,0.8-0.9,1.6-0.9V1.3c0-0.9,0.6-1.3,1.9-1.3c1,0,1.6,0.4,1.6,1.3v0.8h3.4c0.9,0,1.4,0.5,1.4,1.6s-0.5,1.7-1.4,1.7H21v1.3
	h2.8c1.7,0,2.5,0.8,2.5,2.4c0,2.4-2.1,5.5-6.4,9.3c-0.2,0.2-0.3,0.3-0.5,0.4c0.1,0,0.1-0.1,0.2-0.1c0.3,0,0.9,0.5,1.8,1.6
	s1.3,1.7,1.3,2.1s-0.2,0.7-0.6,0.8h1.5v-4.5c0-0.5,0.2-0.8,0.6-1c-0.7-0.6-1.1-1.1-1.1-1.7s0.3-1.1,0.9-1.3c2.1-0.8,3.8-1.6,5.1-2.6
	c-1.8-2.7-2.7-4.3-2.7-4.8c0-1.1,0.7-1.6,2.1-1.6c0.5,0,0.9,0.2,1.1,0.6c1.1,1.9,1.9,3.2,2.3,3.7c1.7-1.8,2.6-3.2,2.6-4.4
	c0-0.2-0.1-0.3-0.4-0.3h-6.6c-1,0-1.5-0.6-1.5-1.8c0-1.1,0.5-1.7,1.5-1.7h8.9c1.6,0,2.4,0.8,2.4,2.3c0,3-1.4,5.8-4.3,8.5
	c1.6,1.2,3,2.3,4.4,3.1c0.5,0.3,0.7,0.7,0.7,1.4c0,0.5-0.2,1-0.6,1.5c-0.4,0.5-0.9,0.7-1.4,0.7c-0.4,0-1.6-0.7-3.4-2.2
	c-1.8-1.5-2.7-2.2-2.5-2.2c-1.7,1.2-3.3,2.2-5,3c0.4,0,0.7,0.4,0.7,1v4.5h2C29.2,23,29,22.7,29,22.3c0-0.2,0.1-0.5,0.2-0.7
	c1.2-1.2,2.3-2.4,3.2-3.6c0.2-0.3,0.6-0.5,1.1-0.5c1.5,0,2.3,0.6,2.3,1.8c0,0.5-0.9,1.8-2.8,3.9h5c0.9,0,1.4,0.5,1.4,1.6
	c0,1.2-0.5,1.7-1.4,1.7h-8.6c2.7,1.9,5.9,3.4,9.5,4.5c0.6,0.2,0.9,0.7,0.9,1.4C39.8,33.9,39.2,34.7,38,34.8z M4.6,19.7
	c0,1-0.7,1.5-2,1.5s-2-0.5-2-1.5c0-0.1,0-0.4,0-0.8c0-0.9,0-1.7,0-2.3c0-2.9-0.2-5.6-0.5-8.2c0-0.1,0-0.3,0-0.4
	c0-0.9,0.8-1.4,2.3-1.4c0.9,0,1.4,0.4,1.5,1.2C4,8.6,4.2,10,4.4,12.2C4.5,14.4,4.6,16.9,4.6,19.7z M22,10.3c0-0.2-0.1-0.3-0.3-0.3
	h-3c-0.3,0-0.5,0.1-0.6,0.4c-0.1,0.4-0.4,0.9-0.8,1.5l2.8,1.3C21.4,12,22,11,22,10.3z"/>
<path class="st0" d="M140.1,5.4c0,1.3-0.5,2-1.6,2h-13.4c-0.5,1.2-1.4,2.5-2.5,3.9s-1.9,2.1-2.5,2.1s-1.2-0.2-1.7-0.7
	s-0.8-1-0.8-1.5c0-0.4,0.1-0.7,0.4-1c0.4-0.4,0.9-0.9,1.3-1.4h-9.6v3.6h5.8c2.3,0,3.5,1,3.5,2.9c0,1.3,0,2.7,0,4.2
	c0,4.7-0.2,8.2-0.7,10.6s-1.1,3.9-1.8,4.4c-0.7,0.6-1.9,0.9-3.4,0.9c-3.9,0-5.8-0.7-5.8-2.1c0-1.6,0.5-2.3,1.6-2.3
	c0.1,0,0.2,0,0.3,0c1.4,0.4,2.3,0.6,2.9,0.6c1.6,0,2.4-4.2,2.4-12.6c0-0.7,0-1.4,0-1.9c0-0.6-0.5-0.9-1.5-0.9h-3.4
	c0,5.2-0.7,9.8-2.1,13.8c-0.4,1.2-0.9,2.5-1.6,3.9s-1.4,2.1-2.3,2.1c-1.9,0-2.8-0.7-2.8-2.1c0-0.2,0.1-0.4,0.2-0.6
	c2.8-5.4,4.3-10.6,4.3-15.5v-9h-2.5c-1.1,0-1.7-0.7-1.7-2s0.6-1.9,1.7-1.9h6.4V1.5c0-1,0.7-1.5,2.2-1.5c1.4,0,2.2,0.5,2.2,1.5v3.2
	h5.4c1,0,1.6,0.6,1.7,1.8c0.7-1.1,1.3-2.9,1.6-5.4C122.4,0.4,123,0,124,0c1.6,0,2.4,0.6,2.4,1.8c0,0.3-0.1,0.9-0.2,1.7h12.2
	C139.6,3.4,140.1,4.1,140.1,5.4z M139.9,32.3c0.4,0.5,0.6,1,0.6,1.4c0,1.4-0.8,2-2.5,2c-1.4,0-3.1-2.1-5.1-6.2
	c-2.1-4.1-3.2-9.2-3.6-15.3c-1,0.1-1.8,0.2-2.2,0.3c-0.6,0.1-0.9,0.4-0.9,1v13.8c2.5-1.1,3.9-1.6,4.2-1.6c1.3,0,1.9,0.8,1.9,2.3
	c0,0.8-1.8,1.9-5.4,3.3s-5.7,2.1-6.4,2.1c-1.2,0-1.8-0.8-1.8-2.5c0-0.9,1.1-1.6,3.2-2.1V13.7c0-1.7,0.8-2.6,2.4-2.7
	c5.9-0.5,10.3-1.3,13.2-2.4c0.2-0.1,0.5-0.1,0.8-0.1c1.3,0,2,0.7,2,2.2c0,0.8-0.7,1.4-2.1,1.9c-1.4,0.4-2.9,0.8-4.6,1.2
	c0.1,2.5,0.2,4.5,0.6,6c1.1-0.4,2.2-1.1,3.4-1.8c0.3-0.2,0.6-0.3,0.9-0.3c0.5,0,1,0.2,1.4,0.7s0.6,1,0.6,1.4c0,1-1.8,2.2-5.5,3.5
	C135.5,26,137.2,29,139.9,32.3z"/>
<path class="st0" d="M190.9,33c0,0.7-0.1,1.3-0.4,1.6c-0.3,0.3-2.1,0.4-5.5,0.4c-9.4,0-15.6-0.2-18.7-0.7c-3-0.5-5.5-1.4-7.4-2.9
	c-2.3,3-4.1,4.4-5.4,4.4c-0.6,0-1.2-0.2-1.7-0.7s-0.7-1-0.7-1.6s0.2-1,0.7-1.4c3-2.1,4.5-3.8,4.5-5.3v-5.5c0-0.6-0.4-0.8-1.1-0.8
	h-1.9c-1.3,0-2-0.7-2-2s0.7-2,2-2h4.5c1.9,0,2.8,0.8,2.8,2.5v7.3c0,3.2,5.7,4.9,17,4.9c4.2,0,8,0,11.6-0.1
	C190.4,31.1,191,31.7,190.9,33z M160.8,12c0,0.6-0.3,1.1-0.8,1.7c-0.5,0.6-1.1,0.8-1.7,0.8c-0.2,0-0.5-0.1-0.7-0.2
	c-1-0.7-1.8-1.3-2.4-1.6c-2-1-3-1.9-3-2.5s0.2-1.1,0.7-1.7c0.4-0.5,1-0.8,1.6-0.8c0.5,0,1.7,0.5,3.5,1.6
	C159.9,10.5,160.8,11.3,160.8,12z M175.5,6.4c0,1.2-0.6,1.8-1.8,1.8h-5.4v2.4h3.7c2.1,0,3.1,0.9,3.1,2.8v4.7
	c0,7.5-1.6,11.2-4.7,11.2c-0.1,0-0.1,0-0.1,0c-3-0.1-4.5-0.8-4.5-2.1c0-1.6,0.6-2.4,1.7-2.4c0.2,0,0.3,0,0.5,0.1
	c0.8,0.4,1.4,0.6,1.7,0.6c1,0,1.6-2.6,1.6-7.9v-2.3c0-0.6-0.3-1-0.9-1h-1.9c0,3.8-0.6,7-1.7,9.7c-1.1,2.7-2.1,4-3,4
	c-0.6,0-1.2-0.2-1.8-0.6s-0.9-0.9-0.9-1.5c0-0.3,0.1-0.7,0.3-1c2.1-3.2,3.2-7,3.2-11.5V8.2h-1.9c-1.1,0-1.6-0.5-1.7-1.5
	c-0.4,0.5-1,0.8-1.6,0.8c-0.3,0-0.6-0.1-0.8-0.2c-1.3-0.9-2.7-1.6-4.1-2.4c-1.1-0.6-1.6-1.2-1.6-1.7c0-0.6,0.2-1.1,0.7-1.6
	c0.4-0.5,1-0.8,1.6-0.8c0.5,0,1.6,0.5,3.5,1.6s2.8,1.9,2.9,2.4c0.4-0.2,0.7-0.3,1.1-0.3h3.7V1.3c0-0.9,0.7-1.3,2.1-1.3
	c1.4,0,2.1,0.5,2.1,1.5v3h3.3C174.8,4.4,175.5,5.1,175.5,6.4z M190.9,20.4c0,1.2-0.6,1.8-1.7,1.8h-2.5c0.3,0.9,0.4,1.9,0.4,2.8
	c0,3.6-1.7,5.4-5,5.4c-1.1,0-2.4-0.2-3.9-0.7s-2.3-1.2-2.3-2.1c0-1.5,0.6-2.2,1.8-2.2c0.2,0,0.4,0,0.6,0.1c1.5,0.7,2.6,1.1,3.2,1.1
	c0.8,0,1.3-0.5,1.3-1.4c0-0.2,0-0.3,0-0.5c0-0.9-0.1-1.7-0.3-2.5h-5.2c-1.1,0-1.6-0.6-1.6-1.9s0.6-1.9,1.8-1.9h3.2
	c-0.1-0.1-0.3-0.3-0.5-0.6c-0.4-0.5-0.6-0.9-0.6-1.2c0-0.5,0.3-1,0.8-1.3c1.8-1.2,2.7-1.8,2.7-2c0-0.1-0.1-0.1-0.2-0.1h-3.2
	c-1.1,0-1.7-0.6-1.7-1.8c0-0.1,0-0.2,0-0.3c-0.4,0.4-0.9,0.6-1.4,0.6s-1.1-0.2-1.6-0.6c-0.5-0.4-0.8-0.8-0.8-1.3
	c0-0.3,0.1-0.6,0.3-0.8c2.2-2.7,3.6-5.3,4.2-7.9c0.2-0.6,0.7-1,1.6-1c1.7,0,2.5,0.5,2.5,1.5c0,0.4-0.2,1.1-0.7,2.2h6.9
	c1.4,0,2.1,0.6,2.1,1.8s-0.7,1.8-2,1.8h-8.7c-0.2,0.4-0.4,0.7-0.5,0.9c-0.2,0.3-0.4,0.6-0.6,0.9h7.5c1.8,0,2.7,0.7,2.7,2.2
	c0,1-1.5,2.6-4.6,4.9c-0.2,0.1-0.3,0.2-0.3,0.4c0,0.1,0.1,0.3,0.2,0.5c0.3,0.4,0.5,0.8,0.7,1.1h3.8C190.4,18.3,191,19,190.9,20.4z"
	/>
<g>
	<path class="st0" d="M88.5,31.4H74v-2.7h11.2c1.1,0,1.7-0.7,1.7-2s-0.6-1.9-1.7-1.9H74v-2.3h12.8c1.1,0,1.6-0.7,1.6-2
		c0-1.2-0.6-1.8-1.7-1.8H74V16h5.5l-8.6-3.5L62.4,16l2.1-3.7h-4.7c-0.8,0-1.1-0.3-1.1-1V5.7c0-0.5,0.4-0.8,1.1-0.8h8.9l2.2-3.7h-14
		c-1.6,0-2.4,0.7-2.4,2.2v10.3c0,1.6,0.8,2.4,2.5,2.4h0.7c-1.4,2.3-3.4,4.7-6,7c-0.8,0.8-1.2,1.4-1.2,1.7c0,0.5,0.3,1,0.8,1.5
		c0.6,0.5,1.1,0.7,1.6,0.7c0.7,0,1.8-0.8,3.3-2.4c0.7-0.7,1.4-1.4,2-2.1h11.4v2.3H58c-1.1,0-1.7,0.6-1.7,1.9s0.6,1.9,1.7,1.9h11.5
		v2.7H52c-1.1,0-1.6,0.6-1.6,1.9s0.5,1.9,1.6,1.9h36.5c1.1,0,1.6-0.6,1.6-1.9C90.2,32,89.6,31.4,88.5,31.4z M69.5,18.8h-8.8
		c0.6-0.9,0.9-1.5,0.9-1.8s-0.2-0.6-0.5-0.9h8.4V18.8z"/>
	<path class="st0" d="M81.6,4.9c0.7,0,1,0.3,1,0.9v5.4c0,0.8-0.3,1.1-0.9,1.1h-4.3l2.1,3.7h5.1c1.6,0,2.4-0.7,2.4-2.1V3.4
		c0-1.5-0.8-2.2-2.4-2.2H70.9l2.2,3.7H81.6z"/>
</g>
<polygon class="st0" points="82.6,7.2 73.1,7.2 70.9,3.4 68.8,7.2 59.3,7.2 67.2,10 65,13.7 70.9,11.3 76.9,13.7 74.7,10 "/>
</svg>
