<?xml version="1.0" encoding="utf-8"?>
<!-- Generator: Adobe Illustrator 20.0.0, SVG Export Plug-In . SVG Version: 6.00 Build 0)  -->
<svg version="1.1" id="圖層_1" xmlns="http://www.w3.org/2000/svg" xmlns:xlink="http://www.w3.org/1999/xlink" x="0px" y="0px"
	 viewBox="0 0 549.9 62.4" style="enable-background:new 0 0 549.9 62.4;" xml:space="preserve">
<style type="text/css">
	.st0{fill:#BCDAEF;}
	.st1{fill:#D63E83;}
	.st2{fill:#278AC9;}
	.st3{fill:#F0DFEC;}
	.st4{fill:#E89DA0;}
	.st5{fill:#6EBFE2;}
	.st6{fill:#D2A8CA;}
	.st7{fill:#F4CE2E;}
	.st8{fill:#F5D95E;}
	.st9{fill:#9AC4C5;}
	.st10{fill:#A66AA2;}
	.st11{fill:#F1C16C;}
	.st12{fill:#CC2620;}
	.st13{fill:#A8C52F;}
	.st14{fill:#EBA61F;}
	.st15{fill:#D0D979;}
	.st16{fill:#F7E08D;}
	.st17{fill:#F2CC4E;}
	.st18{fill:#FFFFFF;}
</style>
<path class="st0" d="M155.2,27.4c0.8,0,1.8,0.3,2.2-0.1c2.9-2.8,5.7-1.5,8.5,0.1c0.5,0.5,1,1,1.5,1.5c-0.5,6.4-1.1,12.8-1.5,19.2
	c-0.2,2.8,0,5.6,0,8.4c-0.1,1.3,0.7,3.2-1.9,3.1c-0.4,0-0.8,1-1.2,1.5c-1.5,0-3.1,0-4.6,0c-0.5-1.5-1-3.1-1.5-4.6
	c-0.5-4.6,0.2-9.2-1.2-14C154.2,37.9,155.2,32.5,155.2,27.4z"/>
<path class="st0" d="M23.2,61.1c-0.5-1.5-1-3.1-1.5-4.6c-0.1-4.4-0.3-8.7-1.3-13.2c-1.1-5.1-0.2-10.6-0.2-15.9
	c1.1-0.3,2.2-0.6,3.2-1c3.7-1.2,4.4-1,7.5,2.5c1.2,4.6,1,9.2,0.1,13.9c-0.5,2.4-0.3,5.1,0,7.6c0.3,2.6,1,5.1,1.5,7.7
	c-1.5,1-3.1,2-4.6,3.1C26.3,61.1,24.8,61.1,23.2,61.1z"/>
<path class="st0" d="M290.3,27.4c2.5-2.1,5.5-1.4,8.3-1.5c0.8,1.1,1.6,2.1,2.4,3.1c0,4.6,1.2,9.5-0.3,13.6c-1.8,5.1-0.9,9.4,0.3,14
	c-1.5,1.5-3.1,3.1-4.6,4.6c-1.5,0-3.1,0-4.6,0c-0.5-1-1-2-1.5-3.1C290.3,47.8,290.3,37.6,290.3,27.4z"/>
<path class="st0" d="M426.9,61.1c-0.5-1.5-1-3.1-1.5-4.6c0-4.1,0-8.2,0-12.3c0.5-0.6,1.4-1.3,1.5-1.9c0.1-4.8,0.1-9.5,0.1-14.1
	c2.9-3.8,6.1-2.6,9.2-0.8c0,9.7,0,19.4,0,29.2c-1.5,1.5-3.1,3.1-4.6,4.6C430,61.1,428.4,61.1,426.9,61.1z"/>
<path class="st1" d="M67.7,25.8c1.5,0,2.9,0.1,4.4,0c2.4-0.2,4.2,0.5,4.8,3.1c0,8.7,0,17.4,0,26.1c0.3,2.7-1,4-3.4,4.7
	c-0.5,0.1-0.8,1-1.2,1.5c-1,0-2,0-3.1,0c-0.5-1-1-2-1.5-3.1C67.7,47.3,67.7,36.6,67.7,25.8z"/>
<path class="st1" d="M202.8,25.8c3.1,0.1,6.4-0.7,9.2,1.5c0,10.2,0,20.5,0,30.7c-0.4,0.5-0.7,1.1-1.2,1.5c-0.6,0.6-1.3,1-1.9,1.5
	c-1,0-2,0-3.1,0c-0.6-0.5-1.3-1-1.9-1.5c-0.5-0.4-0.8-1-1.2-1.5c0.5-0.8,0.9-1.6,1.4-2.4c-0.3-0.3-1-0.7-1-1
	C203.1,45,202.9,35.4,202.8,25.8z"/>
<path class="st2" d="M236.6,25.8c2,0,4.1,0,6.1,0c0,1,0.1,2,0,3c-0.4,4.6-0.1,9.2-1.2,13.9c-1.1,4.7-1.7,10.4,1.2,15.3
	c-2.3,0.1-1.3,1.9-1.5,3.1c-2,0-4.1,0-6.1,0c-0.5-1-1-2-1.5-3.1c0-6.8-0.1-13.7,0.1-20.5c0.1-2.6,0.7-5.2,1.2-8.1
	c-0.2-0.3-0.7-0.9-0.9-1.3C235,27.2,235.8,26.5,236.6,25.8z"/>
<path class="st2" d="M505.2,25.8c2,0,4.1,0,6.1,0c0,10.7,0,21.5,0,32.2c-0.5,1-1,2-1.5,3.1c-1.5,0-3.1,0-4.6,0c-0.5-1-1-2-1.5-3.1
	c-1.4-3.4-2.7-7.3-1.3-10.6c1.8-4.4,1-8.7,1.3-13c0.1-1.7-0.5-3.6,1.4-4.7C502.8,28.4,505.1,27.2,505.2,25.8z"/>
<path class="st3" d="M503.7,58.1c0.5,1,1,2,1.5,3.1c-8.7,0-17.4,0-26.1,0c0-0.5,0-1,0-1.5c2.1,0,1.5-1.6,1.5-2.7
	c0-9.8,0-19.7,0-29.5c1,0,2,0,3.1,0c0,9.5,0,19.1,0,28.1c1,1.2,1.6,1.9,2.2,2.6c2.5,0,4.7,0,7,0C496.5,58.1,500.1,58.1,503.7,58.1z"
	/>
<path class="st4" d="M0.2,22.8c2.5,0,4.9-0.1,7.3,0.1c0.7,0,1.2,1,1.9,1.5c-2.5,0-4.9,0-7.7,0c0,10.6,0,20.6,0,30.7
	c-0.5,0-1,0-1.5,0C0.2,44.3,0.2,33.5,0.2,22.8z"/>
<path class="st5" d="M368.6,61.1c0-0.5,0-1,0-1.5c2,0,3.9,0,6.1,0c0-5.8-0.1-11.1,0.1-16.4c0-0.7,1-1.3,1.5-2c0,5.6,0,11.3,0,16.9
	c0,1,0,2,0,3.1C373.7,61.1,371.1,61.1,368.6,61.1z"/>
<path class="st4" d="M548.2,24.3c0.5,0,1,0,1.5,0c0,4.1,0,8.2,0,12.3c-0.5,0-1,0-1.5,0C548.2,32.5,548.2,28.4,548.2,24.3z"/>
<path class="st4" d="M549.7,51.9c-0.5,0-1,0-1.5,0c0-3.6,0-7.2,0-10.7c0.5,0,1,0,1.5,0C549.7,44.8,549.7,48.3,549.7,51.9z"/>
<path class="st6" d="M345.6,59.6c0,0.5,0,1,0,1.5c-2.6,0-5.1,0-7.7,0c0-0.5,0-1,0-1.5C340.4,59.6,343,59.6,345.6,59.6z"/>
<path class="st5" d="M100,61.1c0-0.5,0-1,0-1.5c2,0,4.1,0,6.1,0c0,0.5,0,1,0,1.5C104.1,61.1,102,61.1,100,61.1z"/>
<path class="st6" d="M473,61.1c0-0.5,0-1,0-1.5c2,0,4.1,0,6.1,0c0,0.5,0,1,0,1.5C477,61.1,475,61.1,473,61.1z"/>
<path class="st7" d="M383.9,24.3c0-0.2-0.1-0.7,0-0.7c4.2-1.4,8.3-1.4,12.3,0.7c0,10.2,0,20.5,0,30.7c0,0.7,0,1.5,0,2.2
	c-3.9,2.6-8,3.7-12.3,0.9C383.9,46.8,383.9,35.6,383.9,24.3z"/>
<path class="st7" d="M531.3,56.5c-5.9,3.7-7.3,3.9-12.3,1.5c0.5-0.8,0.9-1.6,1.3-2.2c-0.4-0.9-1.2-1.8-1.2-2.6
	c-0.1-8.3-0.1-16.7,0-25c0-1.3,1-2.6,1.5-3.9c0-0.2-0.1-0.7,0-0.7c3.7-1.6,7.3-1.3,10.7,0.7c0,8.2,0,16.4,0,24.6
	c-2.1,1.5-2.1,3.1,0,4.6C531.3,54.5,531.3,55.5,531.3,56.5z"/>
<path class="st7" d="M261.1,55c0,0.7,0,1.5,0,2.2c-3.4,2.4-6.9,3.6-10.7,0.9c0-11.3,0-22.5,0-33.8c3.2-2,5.5-2,9.5-0.5
	c0.9,0.3,1.8,0.3,2.7,0.5c-0.1,2.6,0.6,5.4-1.6,7.5c2.2,3.2,2.2,6.3,0.1,9.4c-0.6,0.7-1.2,1.5-2.5,3.1c2.1,0,3.1,0,4,0
	c0,1.5,0,3.1,0,4.6c-1,0.1-2,0.3-2.6,0.4c0.4,1.7,0.8,3,1.1,4.2C261.1,54,261.1,54.5,261.1,55z"/>
<path class="st8" d="M462.2,58.1c-3.8,2.8-7.3,1.5-10.7-0.9c0-0.7,0-1.5,0-2.2c0-10.7,0-21.5,0-32.2c2.3,0,4.6,0.3,6.8-0.1
	c2.2-0.3,3.7,0.8,5.5,1.6c0.4,0.8,0.8,1.5,1.3,2.5c-0.3,0.2-0.8,0.4-1.3,0.6c-2.1,0-1.5,1.6-1.5,2.7
	C462.2,39.4,462.2,48.7,462.2,58.1z"/>
<path class="st8" d="M60.1,58.1c-3.2,0.6-6.4,1.2-9.3,1.7c-2.1-1.2-3.4-2.5-3-4.8c0-10.7,0-21.5,0-32.2c2.3,0,4.6-0.2,6.8,0.1
	c1.8,0.2,3.6,1,5.4,1.5c0,1,0,2,0,3.1c-0.5,0.4-1.5,0.8-1.5,1.2c-0.1,8.4-0.1,16.8,0,25.2c0,0.4,1,0.8,1.5,1.2
	C60.1,56,60.1,57,60.1,58.1z"/>
<path class="st8" d="M193.6,58.1c-2.7,0.6-5.4,1.2-7.7,1.8c-2.2-1.3-3.5-2.6-3-4.9c0-10.7,0-21.5,0-32.2c2.3,0,4.6,0.3,6.8-0.1
	c2.2-0.3,3.7,0.8,5.5,1.6c0,1,0,2,0,3.1c-2.1,0-1.5,1.6-1.5,2.7c0,8.3,0,16.6,0,24.9C193.6,56,193.6,57,193.6,58.1z"/>
<path class="st8" d="M327.1,58.1c-2.7,0-5.4,0-8.5,0c-0.6-0.9-1.4-2-2.2-3.1c0-10.7,0-21.5,0-32.2c2.3,0,4.6,0.3,6.8-0.1
	c2.2-0.3,3.7,0.8,5.5,1.6c0,1,0,2,0,3.1c-2.1,0-1.5,1.6-1.5,2.7C327.1,39.4,327.1,48.7,327.1,58.1z"/>
<path class="st9" d="M367,58.1c-3.1,0-6.1,0-9.2,0c-0.3-5.4,0.6-10.8-1.4-16.2c-1-2.7-0.4-6-0.1-9.1c0.2-2.9,1-5.7,1.5-8.5
	c2-0.6,4-1.1,5.9-1.7c2.6,0.5,3.3,4.2,6.4,3.2c-0.1,1.3-2.3,2.6-0.1,4c-2.9,3-0.1,7-1.6,9.9c-1.8,3.4-1.2,6.7-1.3,10
	C366.9,52.5,367,55.3,367,58.1z"/>
<path class="st9" d="M503.7,58.1c-3.6,0-7.2,0-10.7,0c-0.6-5.1,1.3-10.4-1.5-15.4c-0.4-0.8-0.4-2.2,0-3c2.8-4.9,0.9-10.3,1.5-15.4
	c2-0.6,4-1.1,5.9-1.7c2.6,0.5,3.3,4.2,6.4,3.2c0,1.3-2.4,2.6-0.1,4c-1.9,1.1-1.3,3-1.4,4.7c-0.3,4.3,0.5,8.6-1.3,13
	C501,50.7,502.2,54.6,503.7,58.1z"/>
<path class="st9" d="M98.4,58.1c-3.1,0-6.1,0-9.2,0C88.6,53,89.4,48,88,42.7c-1.2-4.6-1.3-10.1,0.4-14.3c-0.3-1.7-0.5-2.9-0.7-4
	c0.7,0,1.8,0.3,2.2-0.1c2.2-2.2,4-1.9,6.3,0c1.3,1.1,3.5,1.1,5.3,1.6c-1,0.8-2,1.6-3,2.3c0.5,0.5,1,1.1,1.5,1.7
	c-2.6,4.4-1.4,9.2-1.6,13.8C98.3,48.5,98.4,53.3,98.4,58.1z"/>
<path class="st7" d="M115.3,24.3c0.6-0.5,1.2-1.4,1.9-1.5c2.9-0.2,5.9-0.1,8.9-0.1c0,1.5,0,3.1,0,4.6c-0.5,0.4-1.5,0.8-1.5,1.2
	c-0.1,5.3-0.1,10.7,0,16c0,0.4,1,0.8,1.5,1.2c0,0.5,0,1,0,1.5c-2.1,1.9-2.1,4.2,0,6.1c0,0.5,0,1,0,1.5c0,0.7,0,1.5,0,2.2
	c-3.4,2.4-6.9,3.6-10.7,0.9C115.3,46.8,115.3,35.6,115.3,24.3z"/>
<path class="st9" d="M233.5,58.1c-3.1,0-6.1,0-9.2,0c-0.6-5.1,0.1-10.1-1.2-15.4c-1.2-4.9-1.5-10.8,1.1-15.9c-0.5-0.9-1-1.7-1.5-2.5
	c2.1-0.4,4.1-0.8,6.3-1.2c2.3,0.8,4.9,1.8,7.5,2.7c-0.8,0.7-1.6,1.3-2.8,2.3c0.3,0.4,0.7,1,0.9,1.3c-0.5,3-1.1,5.5-1.2,8.1
	C233.4,44.4,233.5,51.2,233.5,58.1z"/>
<path class="st10" d="M87.7,24.3c0.2,1.1,0.4,2.3,0.7,4c-1.7,4.3-1.6,9.8-0.4,14.3c1.4,5.3,0.6,10.3,1.2,15.4c-3.4,0-6.9,0-10.7,0
	c0-1.2,0-2.1,0-3.1c0.5-0.4,1.5-0.8,1.5-1.2c0-3.4-0.5-6.6-1.2-9.9c-1-4.8-0.3-10-0.3-15c0-1.2,0-2.5,0-4.2
	C81.4,23.8,84.6,24.5,87.7,24.3z"/>
<path class="st10" d="M222.8,24.3c0.5,0.8,1,1.6,1.5,2.5c-2.6,5-2.3,10.9-1.1,15.9c1.3,5.3,0.6,10.3,1.2,15.4c-3.1,0-6.1,0-9.2,0
	c-0.5-4.6,0-9.2-1.2-14c-1.4-5.2-0.3-11.1-0.3-16.7c0-0.7,0-1.5,0-2.6C216.5,23.9,219.7,24.5,222.8,24.3z"/>
<path class="st11" d="M328.7,27.4c0-1,0-2,0-3.1c4.8-2.5,6-2.3,9.2,1.5c-0.8,8.1,1.7,16.5-1.5,24.5c-0.3,0.8-0.1,2.2,0.5,2.8
	c1.6,1.5,0.8,3.3,1,5c-3.1,0-6.1,0-9.2,0C328.7,47.8,328.7,37.6,328.7,27.4z"/>
<path class="st11" d="M463.7,27.4c0.5-0.2,1-0.5,1.3-0.6c-0.5-1-0.9-1.7-1.3-2.5c2.2-1.7,4.7-1.8,7.7-1.3c0,1.6,0,3,0,4.4
	c0.2,1.2-0.8,2.9,1.5,3.1c0,9.2,0,18.4,0,27.6c-3.1,0-6.1,0-9.2,0C463.7,47.8,463.7,37.6,463.7,27.4z"/>
<path class="st12" d="M279.6,28.9c0,9.1,0,18.2,0,27.6c-3,0-5.5,0.1-8-0.1c-0.4,0-0.8-1-1.2-1.5c0-4.1,0-8.2,0-12.3
	c0-1.5,0-3.1,0-4.6c0-1,0-2,0-3.1c0-0.5,0-1,0-1.5s0-1,0-1.5c0-2.6,0-5.1,0-7.7c0-0.5,0-1,0-1.5c2.2,0,4.4,0,6.6,0
	c1.8,1,3.1,2.3,2.6,4.6C279.6,27.9,279.6,28.4,279.6,28.9z"/>
<path class="st12" d="M135.3,22.8c2.3,0,4.6,0,6.9,0c0.7,0.7,1.4,1.4,2.1,2.1c0,9.9,0,19.8,0,29.5c-0.7,0.7-1.3,1.3-2.2,2.2
	c-2-0.9-4.9,1.5-6.8-1.6c0-4.1,0-8.2,0-12.3c0-1.5,0-3.1,0-4.6c0-1,0-2,0-3.1c0-2,0-4.1,0-6.1c0-0.5,0-1,0-1.5c0-1,0-2,0-3.1
	C135.3,23.8,135.3,23.3,135.3,22.8z"/>
<path class="st6" d="M279.6,28.9c0-0.5,0-1,0-1.5c0.7-0.8,1.3-1.5,2.4-2.8c1.6,0,4,0,6.5,0c0.6,0.8,1.2,1.8,1.8,2.8
	c0,10.2,0,20.5,0,30.7c-2.3,0-4.5,0-6.8,0c-3.6-2.7-3-5.7-1-8.7c-0.5-2-1.3-3.8-1.4-5.6c-0.2-4.3,0-8.6-0.1-12.9
	C281,30.2,280.1,29.6,279.6,28.9z"/>
<path class="st10" d="M492.9,24.3c-0.6,5.1,1.3,10.4-1.5,15.4c-0.4,0.8-0.4,2.2,0,3c2.8,4.9,0.9,10.3,1.5,15.4c-2.3,0-4.5,0-7,0
	c-0.6-0.7-1.2-1.4-2.2-2.6c0-9,0-18.6,0-28.1c0-0.7,0-1.5,0-2.6C486.7,23.9,489.8,24.5,492.9,24.3z"/>
<path class="st12" d="M413.1,24.3c0,10.6,0,21.1,0,32.2c-3.3,0-6.4,0.8-9.2-1.5c0-9.7,0-19.4,0-29.2C406.7,23.6,410,24.4,413.1,24.3
	z"/>
<path class="st5" d="M40.1,55c-1.2,4.4-4.8,2.8-7.7,3.1c-0.5-2.6-1.2-5.1-1.5-7.7c-0.3-2.5-0.4-5.1,0-7.6c0.9-4.7,1.2-9.3-0.1-13.9
	c1.4-1.9,1.5-2.1,1.9-4.6c2.4,0,4.8,0,7.3,0C40.1,34.5,40.1,44.8,40.1,55z"/>
<path class="st5" d="M175.2,55c-3.2,3.8-4.4,4-9.2,1.5c0-2.8-0.2-5.6,0-8.4c0.4-6.4,1-12.8,1.5-19.2c-0.5-0.5-1-1-1.5-1.5
	c0-0.7,0-1.5,0-2.6c3-0.9,6.1-0.2,9.2-0.4C175.2,34.5,175.2,44.8,175.2,55z"/>
<path class="st13" d="M115.3,24.3c0,11.3,0,22.5,0,33.8c-3.1,0-6.1,0-9.2,0c-1.2-10.3,1.9-20.4,1.5-30.7c0-0.7,0-1.5,0-2.9
	C110.2,24.4,112.7,24.4,115.3,24.3z"/>
<path class="st10" d="M357.8,24.3c-0.5,2.8-1.2,5.7-1.5,8.5c-0.3,3-0.9,6.4,0.1,9.1c2,5.4,1.1,10.8,1.4,16.2c-2.5,0-4.9,0.1-7.3-0.1
	c-0.7,0-1.2-1-1.9-1.5c0-0.5,0-1,0-1.5c0-2.6,0-5.1,0-7.7c0-6.7,0-13.3,0-20c0-0.7,0-1.5,0-2.6C351.6,23.9,354.8,24.5,357.8,24.3z"
	/>
<path class="st13" d="M250.4,24.3c0,11.3,0,22.5,0,33.8c-2.6,0-5.1,0-7.7,0c-2.9-4.9-2.3-10.5-1.2-15.3c1.1-4.7,0.7-9.3,1.2-13.9
	c0.1-1,0-2,0-3c0.6-0.5,1.2-1.4,1.8-1.5C246.5,24.2,248.4,24.3,250.4,24.3z"/>
<path class="st6" d="M155.2,27.4c0,5.1-1.1,10.5,0.3,15.2c1.4,4.8,0.8,9.3,1.2,14c-2.1,1.7-4.5,1.7-7,1.5c-0.7-0.7-1.4-1.4-2-2
	c-1.3-4.7,1.5-9.7-1.7-14c2.3-4.1,1.9-8.3,0.3-12.2c0.5-1.6,0.9-3.2,1.6-5.2c1.9,0,4.3,0,7.2,0C155.2,25.5,155.2,26.4,155.2,27.4z"
	/>
<path class="st11" d="M193.6,58.1c0-1,0-2,0-3.1c2.1,0,1.5-1.6,1.5-2.7c0-8.3,0-16.6,0-24.9c0-1,0-2,0-3.1c1.2-3.3,3.7-0.8,5.7-1.5
	c0.7,1,1.3,2,2,3c0.1,9.6,0.2,19.2,0.4,28.8c0,0.4,0.7,0.7,1,1c-0.5,0.8-0.9,1.6-1.4,2.4C199.7,58.1,196.7,58.1,193.6,58.1z"/>
<path class="st6" d="M425.4,44.3c0,4.1,0,8.2,0,12.3c-2.9,1.4-5.8,3.1-9-0.6c-0.3-2.2-1.3-4.8,2.1-6.9c-1-1.2-2.2-1.9-2.2-2.6
	c-0.2-7.1-0.1-14.2-0.1-21.9c2.3-0.1,4.7-0.2,7.7-0.4c0,5.1,0.2,9.8-0.1,14.6C423.6,41,424.6,42.5,425.4,44.3z"/>
<path class="st5" d="M308.7,55c0,0.8,0,1.5,0,2.8c-2.1,0.1-4.3,0.3-6.5,0.2c-0.4,0-0.8-1-1.2-1.5c-1.2-4.6-2.1-9-0.3-14
	c1.5-4,0.3-9,0.3-13.6c0-1.4,0-2.9,0-4.6c2.8,0,5.3,0,7.7,0C308.7,34.5,308.7,44.8,308.7,55z"/>
<path class="st6" d="M20.2,27.4c0,5.3-0.8,10.9,0.3,16c0.9,4.4,1.2,8.7,1.3,13.2c-2.1,1.7-4.5,1.7-7,1.4c-0.7-0.7-1.4-1.4-2-2
	c0-10.6,0-21,0-31.5c2.5,0,4.7,0,7.4,0C20.2,25.5,20.2,26.4,20.2,27.4z"/>
<path class="st11" d="M60.1,58.1c0-1,0-2,0-3.1c0-9.2,0-18.4,0-27.6c0-1,0-2,0-3.1c1.2-3.3,3.7-0.8,5.7-1.5c0.7,1,1.3,2,2,3
	c0,10.7,0,21.5,0,32.2C65.2,58.1,62.6,58.1,60.1,58.1z"/>
<path class="st14" d="M531.3,56.5c0-1,0-2,0-3.1c0.9-0.1,1.8-0.1,0.9-1.5c-0.6-0.9-0.6-2.1-0.9-3.1c0-8.2,0-16.4,0-24.6
	c0-0.7,0-1.5,0-2.9c2.5-0.1,5.1-0.1,7.7-0.2c0,1.5,0,3.1,0,4.6c0,4.3,0,8.7,0,13c0.1,5.4-0.6,10.9,1.5,16.2
	C537.4,55.5,534.4,56,531.3,56.5z"/>
<path class="st2" d="M107.6,27.4c0.4,10.3-2.7,20.4-1.5,30.7c0,0.5,0,1,0,1.5c-2,0-4.1,0-6.1,0c-0.5-0.5-1-1-1.5-1.5
	c0-4.8-0.1-9.6,0-14.4c0.1-4.6-1-9.4,1.6-13.8c-0.5-0.6-1-1.1-1.5-1.7c1-0.8,2-1.6,3-2.3C103.7,25.7,105.8,25.9,107.6,27.4z"/>
<path class="st13" d="M520.5,24.3c-0.5,1.3-1.4,2.6-1.5,3.9c-0.1,8.3-0.1,16.7,0,25c0,0.9,0.8,1.7,1.2,2.6c-0.3,0.6-0.8,1.4-1.3,2.2
	c-2.6,0-5.1,0-7.7,0c0-10.7,0-21.5,0-32.2c0.6-0.5,1.2-1.4,1.9-1.5C515.6,24.2,518.1,24.3,520.5,24.3z"/>
<path class="st1" d="M337.9,58.1c-0.2-1.7,0.6-3.4-1-5c-0.6-0.5-0.8-2-0.5-2.8c3.2-8,0.7-16.4,1.5-24.5c2.7,0,5.4-0.5,7.7,1.5
	c0,10.2,0,20.5,0,30.7c0,0.5,0,1,0,1.5c-2.6,0-5.1,0-7.7,0C337.9,59.1,337.9,58.6,337.9,58.1z"/>
<path class="st14" d="M403.9,25.8c0,9.7,0,19.4,0,29.2c-0.5,0-1,0-1.5,0c-1.5,0-3.1,0-4.6,0c-0.5,0-1,0-1.5,0c0-10.2,0-20.5,0-30.7
	c0-0.8,0-1.5,0-2.8c2.1-0.1,4.3-0.3,6.5-0.2c0.4,0,0.8,1,1.2,1.5C403.9,23.8,403.9,24.8,403.9,25.8z"/>
<path class="st5" d="M443.8,55c0,0.8,0,1.5,0,2.8c-2.1,0.1-4.3,0.3-6.5,0.2c-0.4,0-0.8-1-1.2-1.5c0-9.7,0-19.4,0-29.2
	c0-0.7,0-1.5,0-2.9c2.5-0.1,5.1-0.1,7.7-0.2C443.8,34.5,443.8,44.8,443.8,55z"/>
<path class="st13" d="M383.9,24.3c0,11.3,0,22.5,0,33.8c-2.6,0-5.1,0-7.7,0c0-5.6,0-11.3,0-16.9c0-5.1,0-10.2,0-15.3
	c0.6-0.5,1.2-1.4,1.8-1.5C380,24.2,382,24.3,383.9,24.3z"/>
<path class="st14" d="M135.3,35c0,1,0,2,0,3.1c-2.1,1.5-2.1,3.1,0,4.6c0,4.1,0,8.2,0,12.3c-1.9,0.1-4-0.7-5.1,1.1
	c-1.5-0.4-2.8-0.8-4.1-1.1c0-0.5,0-1,0-1.5c0.5-0.4,1.5-0.8,1.5-1c-0.4-1.7-0.9-3.4-1.5-5.1c0-0.5,0-1,0-1.5
	c0.5-0.6,1.5-1.3,1.5-1.9c-0.2-4.6,1.2-9.4-1.4-13.7c-0.1-0.1,0.1-0.4,0.1-0.6c0.5-0.6,0.9-1.1,1.3-1.6c-0.6-0.2-1-0.4-1.5-0.6
	c0-1.5,0-3.1,0-4.6c0.5-0.5,1-1,1.5-1.5c1.9,0,3.9-0.1,5.8,0.1c0.7,0.1,1.2,1,1.8,1.5c0,0.5,0,1,0,1.5c-0.5,0.4-1,0.8-1.5,1.2
	c0.5,0.6,1,1.3,1.5,1.9c0,0.5,0,1,0,1.5C133.2,30.8,133.2,33.1,135.3,35z"/>
<path class="st15" d="M40.1,55c0-10.2,0-20.5,0-30.7c0-0.8,0-1.5,0-2.8c2.1-0.1,4.3-0.3,6.5-0.2c0.4,0,0.8,1,1.2,1.5
	c0,10.7,0,21.5,0,32.2C45.2,55,42.7,55,40.1,55z"/>
<path class="st15" d="M175.2,55c0-10.2,0-20.5,0-30.7c0.7-0.8,1.3-1.5,2.5-2.9c1.3,0.3,3.6-1.5,5.2,1.4c0,10.7,0,21.5,0,32.2
	C180.3,55,177.7,55,175.2,55z"/>
<path class="st15" d="M308.7,55c0-10.2,0-20.5,0-30.7c0.7-0.8,1.3-1.5,2.5-2.9c1.3,0.3,3.6-1.5,5.2,1.4c0,10.7,0,21.5,0,32.2
	C313.8,55,311.3,55,308.7,55z"/>
<path class="st15" d="M443.8,55c0-10.2,0-20.5,0-30.7c0.7-0.8,1.3-1.5,2.5-2.9c1.3,0.3,3.6-1.5,5.2,1.4c0,10.7,0,21.5,0,32.2
	C448.9,55,446.3,55,443.8,55z"/>
<path class="st2" d="M376.3,25.8c0,5.1,0,10.2,0,15.3c-0.5,0.7-1.5,1.3-1.5,2c-0.1,5.3-0.1,10.6-0.1,16.4c-2.2,0-4.2,0-6.1,0
	c-0.5-0.5-1-1-1.5-1.5c0-2.8-0.1-5.5,0-8.3c0.2-3.4-0.4-6.7,1.3-10c1.5-2.9-1.4-6.9,1.6-9.9c-2.2-1.4,0.1-2.6,0.1-4
	C372.2,25.8,374.2,25.8,376.3,25.8z"/>
<path class="st14" d="M270.3,42.7c0,4.1,0,8.2,0,12.3c-1.9,0.1-4-0.7-5.1,1.1c-1.5-0.4-2.8-0.8-4.1-1.1c0-0.5,0-1,0-1.5
	c3-0.7,1-3.1,1.5-4.6c0-1.5,0-3.1,0-4.6c-0.2-1.2,0.8-2.9-1.5-3.1c2.2-3.1,2.1-6.2-0.1-9.4c2.2-2.1,1.5-4.9,1.6-7.5
	c0-0.8,0-1.5,0-2.8c2.1-0.1,4.3-0.3,6.5-0.2c0.4,0,0.8,1,1.2,1.5c0,0.5,0,1,0,1.5c-2.2,2.5-2.2,5.2,0,7.7c0,0.5,0,1,0,1.5
	c-0.4,0.2-0.8,0.3-1.3,0.5c0.4,0.3,0.8,0.7,1.3,1c0,1,0,2,0,3.1C268.2,39.7,268.2,41.2,270.3,42.7z"/>
<path class="st1" d="M473,58.1c0-9.2,0-18.4,0-27.6c0-1,0-2,0-3.1c0.5,0,1,0,1.5,0c1.5,0,3.1,0,4.6,0c0.5,0,1,0,1.5,0
	c0,9.8,0,19.7,0,29.5c0,1.1,0.6,2.7-1.5,2.7c-2,0-4.1,0-6.1,0C473,59.1,473,58.6,473,58.1z"/>
<path class="st12" d="M1.7,55c0-10.1,0-20.1,0-30.7c2.7,0,5.2,0,7.7,0c0,8.9-0.1,17.8,0.1,26.8c0.1,2.2-0.8,3.7-1.6,5.5
	c-1.4,0-2.9,0.2-4.3-0.1C2.9,56.4,2.3,55.5,1.7,55z"/>
<path class="st6" d="M345.6,58.1c0-10.2,0-20.5,0-30.7c1,0,2,0,3.1,0c0,6.7,0,13.3,0,20c-2.2,2.5-2.2,5.2,0,7.7c0,0.5,0,1,0,1.5
	C347.6,57,346.6,57.6,345.6,58.1z"/>
<path class="st3" d="M213.6,27.4c0,5.6-1.1,11.5,0.3,16.7c1.3,4.8,0.8,9.3,1.2,14c-1,0-2,0-3.1,0c0-10.2,0-20.5,0-30.7
	C212.5,27.4,213,27.4,213.6,27.4z"/>
<path class="st3" d="M78.5,28.9c0,5-0.8,10.2,0.3,15c0.7,3.3,1.2,6.6,1.2,9.9c0,0.4-1,0.8-1.5,1.2c-0.5,0-1,0-1.5,0
	c0-8.7,0-17.4,0-26.1C77.5,28.9,78,28.9,78.5,28.9z"/>
<path class="st4" d="M7.9,56.5c0.8-1.7,1.7-3.3,1.6-5.5c-0.2-8.9-0.1-17.8-0.1-26.7c0.5,0.7,1.5,1.3,1.5,2C11,36.2,11,46.1,11,56.6
	C9.8,56.5,8.8,56.5,7.9,56.5z"/>
<path class="st4" d="M539,25.8c0-1.5,0-3.1,0-4.6c2,1.5,4.2,1.8,6.7,1.6c1.1-0.1,2.6-0.4,2.6,1.5C545,24.4,541.7,23.6,539,25.8z"/>
<path class="st4" d="M403.9,25.8c0-1,0-2,0-3.1c2.5,0,4.9-0.1,7.3,0.1c0.7,0,1.2,1,1.9,1.5C410,24.4,406.7,23.6,403.9,25.8z"/>
<path class="st11" d="M397.7,55c1.5,0,3.1,0,4.6,0C400.8,57.1,399.3,57.1,397.7,55z"/>
<path class="st4" d="M479.1,27.4c-1.5,0-3.1,0-4.6,0C476,25.3,477.6,25.3,479.1,27.4z"/>
<path class="st4" d="M473,27.4c0,1,0,2,0,3.1c-2.3-0.1-1.3-1.9-1.5-3.1C471.9,27.4,472.4,27.4,473,27.4z"/>
<path class="st7" d="M127.6,21.2c-0.5,0.5-1,1-1.5,1.5C126.6,22.3,127.1,21.7,127.6,21.2z"/>
<path class="st12" d="M539,25.8c2.8-2.3,6.1-1.4,9.2-1.5c0,4.1,0,8.2,0,12.3c0,1.5,0,3.1,0,4.6c0,3.6,0,7.2,0,10.7
	c0,1.3,0,2.5,0,4.4c-2.6-0.3-5.4,1.8-7.7-1.3c-2.2-5.2-1.5-10.7-1.5-16.2C538.9,34.5,539,30.2,539,25.8z"/>
<path class="st16" d="M328.7,27.4c0,10.2,0,20.5,0,30.7c-0.5,0-1,0-1.5,0c0-9.3,0-18.7,0-28C327.2,29,326.6,27.4,328.7,27.4z"/>
<path class="st16" d="M463.7,27.4c0,10.2,0,20.5,0,30.7c-0.5,0-1,0-1.5,0c0-9.3,0-18.7,0-28C462.2,29,461.7,27.4,463.7,27.4z"/>
<path class="st9" d="M367,58.1c0.5,0.5,1,1,1.5,1.5C368.1,59.1,367.6,58.6,367,58.1z"/>
<path class="st17" d="M531.3,48.9c0.3,1.1,0.4,2.2,0.9,3.1c0.9,1.4,0,1.4-0.9,1.5C529.2,51.9,529.2,50.4,531.3,48.9z"/>
<path class="st17" d="M261.1,41.2c2.3,0.1,1.3,1.9,1.5,3.1c-0.9,0-1.9,0-4,0C260,42.7,260.6,41.9,261.1,41.2z"/>
<path class="st17" d="M262.7,48.9c-0.6,1.5,1.4,3.9-1.5,4.6c-0.3-1.3-0.7-2.5-1.1-4.2C260.7,49.1,261.7,49,262.7,48.9z"/>
<path class="st16" d="M60.1,27.4c0,9.2,0,18.4,0,27.6c-0.5-0.4-1.5-0.8-1.5-1.2c-0.1-8.4-0.1-16.8,0-25.2
	C58.6,28.2,59.6,27.8,60.1,27.4z"/>
<path class="st16" d="M195.1,27.4c0,8.3,0,16.6,0,24.9c0,1.1,0.5,2.7-1.5,2.7c0-8.3,0-16.6,0-24.9C193.6,29,193.1,27.4,195.1,27.4z"
	/>
<path class="st17" d="M126.1,27.4c0.4,0.2,0.9,0.3,1.5,0.6c-0.4,0.5-0.8,1.1-1.3,1.6c0,0.1-0.2,0.4-0.1,0.6
	c2.6,4.3,1.2,9.1,1.4,13.7c0,0.6-0.9,1.3-1.5,1.9c-0.5-0.4-1.5-0.8-1.5-1.2c-0.1-5.3-0.1-10.7,0-16
	C124.6,28.2,125.6,27.8,126.1,27.4z"/>
<path class="st17" d="M126.1,47.3c0.5,1.7,1.1,3.4,1.5,5.1c0,0.2-0.9,0.7-1.5,1C124,51.5,124,49.3,126.1,47.3z"/>
<path class="st17" d="M270.3,32c-2.2-2.5-2.2-5.2,0-7.7C270.3,26.9,270.3,29.4,270.3,32z"/>
<path class="st17" d="M270.3,42.7c-2.1-1.5-2.1-3.1,0-4.6C270.3,39.7,270.3,41.2,270.3,42.7z"/>
<path class="st17" d="M270.3,35c-0.4-0.3-0.8-0.7-1.3-1c0.4-0.2,0.8-0.3,1.3-0.5C270.3,34,270.3,34.5,270.3,35z"/>
<path class="st17" d="M135.3,35c-2.1-1.9-2.1-4.2,0-6.1C135.3,31,135.3,33,135.3,35z"/>
<path class="st17" d="M135.3,42.7c-2.1-1.5-2.1-3.1,0-4.6C135.3,39.7,135.3,41.2,135.3,42.7z"/>
<path class="st17" d="M135.3,27.4c-0.5-0.6-1-1.3-1.5-1.9c0.5-0.4,1-0.8,1.5-1.2C135.3,25.3,135.3,26.3,135.3,27.4z"/>
<g>
	<path d="M258.4,3.4c0.4,0.3,0.6,0.5,0.8,0.5c0.1,0.1,0.2,0.3,0.4,0.7c0.1,0.3,0.1,0.6,0.1,0.9c0,0.1-0.1,0.2-0.4,0.4
		c-0.2,0.3-0.4,0.3-0.6,0.3c-0.2,0.3-0.5,0.6-0.7,0.9c0.1,0,0.2,0,0.3,0c1.6,0.7,3,1.6,4.2,2.8c1.9,1.2,3.5,2.1,5,2.8
		c0.3,0.1,0.4,0.3,0.4,0.5s-0.5,0.3-1.4,0.4c-1.3,0.1-2.1,0.1-2.2,0.1c-0.3,0-1.4-1-3.1-3.2c-0.8-1-1.8-1.7-3.1-2.3
		c-0.3,0-0.6-0.1-0.8-0.1c-0.5,0.6-1.1,1.4-1.6,2.1c-2,1.8-3.1,2.6-3.4,2.6c-0.1,0-0.3-0.1-0.4-0.2c-0.3-0.2-0.4-0.4-0.4-0.4
		c0-0.3,0-0.7,0.1-1.1c0.1,0,0.1,0.1,0.2,0.3c0,0.1,0.1,0.2,0.2,0.2c0.2,0,1.3-1.2,3.3-3.6c1.8-2.5,2.7-3.9,2.7-4.1
		s-0.1-0.4-0.1-0.6C258,3.3,258.2,3.3,258.4,3.4z"/>
	<path d="M283.1,8.3c0,0.4-1,0.6-3,0.6c-0.7,0.2-1.3,0.4-1.8,0.5c0.3,0.3,0.5,0.6,0.6,0.9c0,0.2,0,0.4-0.1,0.5
		c0.1,0,0.2-0.1,0.3-0.1c0.4-0.1,0.8-0.3,1.3-0.6c0.1-0.1,0.3-0.1,0.4-0.1c0.2,0.2,0.4,0.4,0.6,0.7v0.5c-0.6,0.2-1.2,0.4-1.8,0.6
		c-0.1,0.1-0.3,0.1-0.5,0.2c-0.1,0.1-0.3,0.1-0.5,0.1c-0.1,0.3-0.1,0.6-0.2,0.9c1,0.4,2.1,0.8,3.1,1.1c2.3,0.4,3.8,0.8,4.6,1.1
		c-0.1,0.5-0.3,0.8-0.8,0.9c-0.4,0-0.8-0.1-1.2-0.1c-0.4,0-0.8,0.1-1.2,0.1c-0.6-0.1-1.2-0.2-1.8-0.3c-0.8-0.4-1.9-1-3.2-1.7
		c-0.4-0.4-1-0.6-1.7-0.8c-0.5-0.1-1-0.1-1.5-0.2c-0.4,0.8-0.7,1.3-0.9,1.3c-0.4,0.6-0.8,0.8-1.2,0.9c-0.2,0-0.5-0.1-0.7-0.1
		c-0.2-0.1-0.3-0.2-0.4-0.3c-0.1-0.2-0.1-0.3-0.1-0.4c0.4,0.2,0.6,0.3,0.9,0.3c0.4-0.3,0.7-0.7,0.9-1.2c0.2-0.4,0.4-0.9,0.6-1.4
		c0.4-0.7,0.5-1.2,0.5-1.4v-0.1c-0.8,0.2-1.2,0.3-1.3,0.3c-0.3,0-0.8-0.2-1.3-0.5c-0.4-0.4-0.6-0.7-0.6-1.1c1,0,2.3-0.1,4.1-0.5
		c0.1-0.1,0.1-0.1,0.2-0.2c0.5-0.3,0.9-0.5,1.2-0.8c-0.2,0-0.4,0.1-0.6,0.1c-0.4-0.1-0.7-0.4-0.9-1c0-0.1,0.1-0.1,0.2-0.1l0,0
		c-0.1-0.3-0.2-0.6-0.2-0.8c0.1-0.1,0.1-0.5,0.2-1.2c0-1.4,0-2.2,0.1-2.4c0.2,0,0.4,0.1,0.6,0.3c0.1-0.5,0.3-1,0.8-1.3
		c0.6-0.4,1.2-0.6,1.9-0.6c0.3,0,0.7,0.1,1.2,0.3c0.3,0.2,0.5,0.4,0.6,0.7c0,0.2-0.1,0.3-0.1,0.5c-0.1,0.2-0.1,0.5-0.2,0.7
		c-0.1,1.6-0.2,2.8-0.3,3.6c-0.1,0.5-0.1,0.9-0.2,1.1c0.6-0.1,1.1-0.2,1.3-0.3C281.9,7.5,282.7,7.8,283.1,8.3z M277.4,10.6
		c0-0.3-0.1-0.6-0.2-0.8c-0.7,0.2-1.3,0.4-1.8,0.5c0.3,0.2,0.5,0.5,0.5,0.9c0,0.2-0.2,0.5-0.5,1.1l0,0c0.5,0,1.1,0.1,1.6,0.2
		c0.1,0,0.1,0.1,0.2,0.1C277.3,11.9,277.3,11.2,277.4,10.6z M278.8,7c-1,0.6-1.9,1.1-2.8,1.7c1.3-0.3,2.4-0.6,3.2-0.8
		C279,7.7,278.9,7.4,278.8,7z M276.3,2.8c0.1,0.3,0.2,0.7,0.2,1.2v0.1c0.2-0.1,0.5-0.3,0.9-0.5c0.5-0.1,0.8-0.1,1-0.1
		c0.1,0,0.1,0.1,0.2,0.2c0.1,0.2,0.1,0.3,0.1,0.5c0,0.1-0.2,0.2-0.5,0.4c-0.2,0.1-0.4,0.3-0.7,0.5c-0.4,0.3-0.8,0.5-1.1,0.7
		c0,0.3-0.1,0.5-0.1,0.7c0.8-0.3,1.4-0.5,2-0.7c0.1,0,0.3,0.1,0.4,0.1c0-0.1,0-0.1,0-0.1c0-0.4,0.1-1.2,0.1-2.4c0-0.3,0-0.6-0.1-0.9
		c0-0.2,0-0.4-0.1-0.5c-0.5,0-1,0.1-1.4,0.2C276.9,2.3,276.5,2.5,276.3,2.8C276.2,2.8,276.2,2.8,276.3,2.8z M276.4,5.3
		c0,0.1-0.1,0.3-0.1,0.4l0.1-0.1c0.1-0.1,0.3-0.2,0.4-0.4c-0.2,0-0.3-0.1-0.4-0.2C276.5,5.1,276.4,5.2,276.4,5.3z"/>
	<path d="M297.3,4.2c0,0.2-0.1,0.4-0.1,0.6c-0.1,1.9-0.5,2.8-0.9,2.8c-0.1,0-0.2-0.1-0.2-0.2C296,7.1,296,6.8,296,6.5
		c0-0.2,0-0.4,0.1-0.6c-0.3,0.3-0.6,0.7-1,1.2c-0.1,0.2-0.3,0.4-0.5,0.6c-0.4,0.4-0.7,0.6-0.9,0.6c-0.2,0-0.3-0.3-0.5-0.8
		c0-0.2,0.1-0.3,0.2-0.5c0.1-0.1,0.2-0.4,0.4-0.9c0-0.1-0.1-0.3-0.1-0.6c-0.3,0-0.6-0.1-0.8-0.2c0,0.1,0,0.1,0,0.2s-0.1,0.4-0.3,0.7
		c-0.2,0.4-0.4,0.9-0.5,1.6c-0.1,1-0.3,1.5-0.6,1.5c-0.3,0-0.5-0.5-0.6-1.4c0-0.5,0.2-1.1,0.6-1.7c0.1-0.3,0.3-0.7,0.5-1.3
		c0-0.1-0.1-0.2-0.1-0.3c0-0.2,0-0.3,0.1-0.4c0.3,0.1,0.4,0.2,0.4,0.3c0.1,0,0.2,0.1,0.3,0.4c0.5-0.4,1.7-0.7,3.7-1.1
		c-0.1-0.2-0.1-0.3-0.3-0.4l0,0c-0.7-0.2-0.9-0.1-0.9-0.1s0.1-0.2,0.4-0.4c-0.1-0.1-0.3-0.2-0.3-0.3c-0.1,0-0.1,0-0.1,0
		c-0.5-0.1-0.9-0.5-1-1.2c0-0.1,0.1-0.1,0.2-0.1s0.3,0.1,0.3,0.1c1.3-0.4,2.5-0.6,3.4-0.9c0.5,0.1,0.8,0.4,1,0.6
		c0,0.2-0.1,0.4-0.2,0.6c-0.6,0.3-1.2,0.6-1.7,0.8c0.2,0.2,0.3,0.4,0.4,0.7v0.1c0.4-0.1,0.9-0.1,1.4-0.2c1,0,1.9,0,2.7,0.1
		c0.9,0.1,1.4,0.6,1.7,1.7c0,0.4-0.2,0.7-0.7,0.8c-0.3,0-0.6-0.1-0.8-0.3c-0.6-0.1-1.4-0.1-2.3-0.1c0.7-0.4,1.3-0.8,1.7-1.3
		c-0.6-0.1-1.3-0.2-2.1-0.2c-0.1,0-0.1,0-0.2,0h0.1c0.1,0.2,0.2,0.4,0.4,0.5c0,0.1,0,0.1,0,0.2c-0.4,0.2-0.6,0.5-0.6,0.8
		c0.1-0.1,0.2-0.1,0.3-0.1c0.2,0.1,0.4,0.3,0.6,0.4c0.1,0.1,0.2,0.3,0.2,0.5c-0.4,0.2-0.8,0.4-1.2,0.7c-0.4,0.2-0.8,0.4-1.2,0.6
		c0.1-0.2,0.3-0.4,0.5-0.6c0.4-0.2,0.6-0.4,0.7-0.7c-0.2,0-0.3,0-0.4,0c-0.1-0.2-0.3-0.5-0.4-0.8c0.1-0.1,0.3-0.3,0.4-0.5
		c0.1-0.2,0.3-0.4,0.4-0.7c0-0.1,0-0.1,0-0.2C298,4,297.6,4.1,297.3,4.2z M292.8,11.2c0.1,0.3,0.3,0.6,0.3,1.1
		c0.2-0.3,0.5-0.6,0.7-0.8c0.1,0,0.1-0.1,0.2-0.1l0,0c-0.2,0-0.3-0.1-0.3-0.1c0.2-0.1,0.5-0.2,0.7-0.4s0.4-0.4,0.6-0.7
		c0,0,0-0.1,0.1-0.1c-0.5,0.1-0.9,0.2-1.1,0.2c-0.3,0-0.8-0.4-1.5-1.2c0.3,0,0.6,0,0.9-0.1c1.9-0.7,3.6-1.3,5-1.7h0.5
		c0.4,0.1,0.6,0.3,0.8,0.8c0,0.1-0.1,0.2-0.3,0.3c-0.2,0.1-0.7,0.3-1.4,0.6c-0.6,0.2-1.1,0.4-1.6,0.6c0.1,0.2,0.2,0.4,0.2,0.5
		c0,0,0,0.1-0.1,0.1c0.1,0,0.1,0,0.1,0s-0.1,0.1-0.2,0.2c0.2,0,0.4-0.1,0.6-0.1c-0.1,0-0.1-0.1-0.1-0.1c0.3-0.2,0.6-0.3,1-0.3
		C298,10,298,10,298.1,10c0.6-0.1,1.1-0.2,1.7-0.3c0.4,0,0.8,0.2,1.2,0.6c0.4,0.4,0.6,0.8,0.6,1.3c0,1.2-0.2,2.3-0.7,3.2
		c-0.6,1.1-1.1,1.6-1.4,1.6c-0.2,0-0.3,0-0.4,0c-0.4-0.2-0.9-0.8-1.4-1.7c-0.3,0.7-0.6,1.2-1,1.3c-0.1,0-0.2-0.1-0.2-0.1
		c0.1-0.2,0.2-0.7,0.4-1.7c0.1-0.3,0.1-0.8,0.2-1.5c0.1-0.5,0.1-0.9,0.2-1.3c-0.4,0.1-0.9,0.3-1.3,0.4c0,0.1,0,0.2,0.1,0.3
		c0,0.4,0.1,0.7,0.1,1.1c0,0.2-0.1,0.6-0.2,1.1c-0.1,0.7-0.1,1-0.3,1.1c-0.2,0-0.4-0.1-0.6-0.4c-0.1-0.2-0.2-0.6-0.3-1
		c0-0.2,0-0.4,0.1-0.7s0.2-0.6,0.3-0.8c0-0.1,0-0.2-0.1-0.3c-0.6,0.3-1.2,0.6-1.7,0.9c0.1,0.4,0.2,0.8,0.2,1.2
		c0,0.1,0.1,0.4,0.3,0.7c0.1,0.3,0.2,0.4,0.2,0.6h-0.2c-0.5,0-0.9-0.5-1.2-1.4c-0.1,0-0.2-0.2-0.2-0.6c0-0.2,0-0.4-0.1-0.6l-0.1-0.5
		c0-0.2,0.2-0.6,0.5-1.2l0,0V11.2z M294.3,5.3c0.1,0.3,0.2,0.6,0.2,0.9c0.3-0.2,0.7-0.4,1-0.6c0.1-0.1,0.3-0.2,0.5-0.3
		c0-0.2,0-0.5,0.1-0.7C295.3,4.8,294.8,5.1,294.3,5.3z M298.7,11.1c0,0.3-0.1,0.6-0.2,0.8s-0.2,0.6-0.3,1.1
		c-0.1,0.5-0.3,0.9-0.4,1.3c0.4,0.3,0.9,0.4,1.2,0.4c0.7-1.3,1.1-2.5,1.1-3.6c0-0.3-0.2-0.4-0.5-0.5c-0.4,0.1-0.7,0.2-1,0.3
		C298.6,11,298.7,11.1,298.7,11.1z"/>
	<path d="M320.1,5.7c-0.6,0.5-1.1,1.1-1.6,1.7h0.1c0.1,0.1,0.1,0.3,0.1,0.5s-0.2,0.4-0.5,0.4C317,8.4,316,8.6,315,8.8
		c-0.3,0.1-0.6,0.2-0.8,0.3c0.2,0.3,0.4,0.6,0.4,1.1c0.4-0.1,0.8-0.1,1.2-0.2c-0.1-0.1-0.2-0.4-0.2-0.6c0.7,0,1.2,0.1,1.5,0.4
		c2-0.3,3.3-0.5,3.9-0.5c1.2,0.6,1.9,1.2,1.9,1.8c0,0.3-0.1,0.4-0.4,0.4c-0.2,0-1.3-0.2-3.2-0.6c-0.6,0-1.2,0-1.8,0.1
		c-0.2,1-0.6,1.9-1.1,2.5c1.3,0.2,2.1,0.4,2.4,0.6c0.3,0.4,0.6,0.7,0.7,1c0.2,0.3,0.3,0.6,0.3,1c0,0.2-0.1,0.4-0.2,0.6
		c-0.3,0-0.7-0.2-1.2-0.6c-1-0.7-1.9-1.2-2.7-1.7h-0.1c-1,0.9-2.4,1.5-4.2,1.7c-0.9,0-1.4-0.4-1.6-0.9c1.6,0,2.7-0.2,3.4-0.7
		c0.4-0.1,0.7-0.3,1-0.5c-0.5-0.1-1-0.2-1.5-0.3c-0.3,0.1-0.5,0.1-0.7,0.1c-0.1-0.3-0.2-0.6-0.2-0.9c0-0.4,0.1-0.7,0.3-1
		c0.1,0,0.2,0,0.2,0.1c0.1-0.1,0.1-0.1,0.1-0.2c-0.1,0-0.2,0-0.2,0c-2.2,0.7-3.5,1.1-3.6,1.3c-1-0.1-1.6-0.4-1.7-1.1
		c0.3-0.3,2.3-0.8,6.1-1.5c0.1-0.3,0.1-0.6,0.2-0.9c0,0,0-0.1-0.1-0.1c-0.6,0.2-0.9,0.3-1,0.3c-0.3,0-0.6-0.2-0.9-0.6
		c-0.3-0.3-0.4-0.6-0.4-0.8c0.1,0,0.2,0,0.2,0.1c-0.1-0.3-0.3-0.6-0.4-1.1c-0.2-0.5-0.3-0.9-0.5-1.3c-0.1-0.2-0.2-0.4-0.2-0.6h0.3
		c0.4,0.2,0.9,0.5,1.2,0.8c0.4,0.7,0.6,1.3,0.6,1.5c0,0.2,0,0.5-0.1,0.7c0.3,0,0.7-0.1,1.1-0.2c0-0.6,0-1.3,0-1.9
		c-0.1,0.1-0.3,0.1-0.4,0.2c-0.7-0.1-1.2-0.4-1.4-0.9c0-0.1,0.5-0.3,1.6-0.6c-0.1-0.1-0.1-0.3-0.2-0.4c-0.5,0.2-0.8,0.3-0.9,0.3
		c0-0.1,0.2-0.3,0.7-0.6l0,0c0-0.1-0.1-0.1-0.1-0.1c0.1,0,0.2,0,0.3,0c0.5-0.3,0.9-0.5,1.2-0.8c-0.3,0.1-0.6,0.1-0.9,0.1
		c-0.6-0.1-1-0.6-1.2-1.4c0-0.1,0.1-0.1,0.2-0.1c0.2,0.1,0.3,0.1,0.4,0.1c1.5-0.5,2.8-0.9,3.8-1.2c0.5,0.1,0.9,0.4,1.2,0.7
		c0,0.2-0.1,0.4-0.2,0.6c-0.7,0.4-1.3,0.7-1.9,1c0.5,0.1,1,0.4,1.4,0.7v0.1c0.4-0.1,0.9-0.1,1.3-0.2C319.2,4.4,319.8,5,320.1,5.7z
		 M313.5,4.2c0.3,0.1,0.5,0.2,0.8,0.4c0.3-0.1,0.5-0.1,0.8-0.2c0.1,0,0.3-0.1,0.4-0.1V4.2c-0.2-0.3-0.3-0.6-0.4-0.9
		C314.6,3.7,314.1,4,313.5,4.2z M316,11.1c-0.6,0.1-1.2,0.2-1.8,0.3c-0.1,0.4-0.4,0.8-0.6,1.1c0.5,0.3,1,0.5,1.5,0.6
		C315.6,12.5,315.9,11.9,316,11.1z M315,7.7c0.1-0.8,0.2-1.5,0.4-2.3c-0.3,0.1-0.5,0.2-0.8,0.3c0,0.3-0.1,0.6-0.1,0.9
		c-0.1,0.5-0.2,0.9-0.3,1.3C314.5,7.9,314.7,7.8,315,7.7z M316.3,7.3c0.4-0.2,0.8-0.4,1-0.4c0.4-0.8,0.6-1.4,0.6-1.8
		c-0.1-0.2-0.1-0.3-0.3-0.4c-0.3,0.1-0.6,0.2-0.8,0.2c-0.1,0.3-0.1,0.5-0.2,0.8c-0.2,0.6-0.4,1.1-0.5,1.6
		C316.2,7.4,316.3,7.4,316.3,7.3z"/>
	<path d="M333.6,5.3c0,0.5-0.6,0.8-1.8,0.8c-0.4,0.3-0.8,0.5-1.2,0.7c0.2,0.1,0.3,0.3,0.4,0.4s0.1,0.2,0.1,0.2c0.1,0,0.2,0,0.3,0
		c0.2,0,0.5,0.2,0.9,0.6c0.4,0.5,0.5,0.9,0.5,1.2c0,0.4-0.1,0.9-0.2,1.5c-0.2,0.6-0.4,1.2-0.6,1.7c-0.2,0.4-0.4,0.8-0.6,1.2
		c-0.4,0.8-0.8,1.2-1,1.2c-0.6-0.6-1.1-1.3-1.6-2.3c0.4,0.2,0.8,0.3,1.2,0.4c0.3,0,0.6-0.5,0.9-1.6c0.3-0.8,0.4-1.7,0.4-2.5
		l-0.1-0.3l0,0c-0.1,0.2-0.2,0.4-0.4,0.6c-0.4,0.6-0.7,1.1-1,1.5s-0.5,0.8-0.8,1.2c-0.4,0.6-0.7,1-0.9,1.2c-0.1,0-0.2-0.1-0.3-0.2
		c-0.1,0-0.2-0.2-0.2-0.5s-0.1-0.5-0.1-0.7c0.2,0,0.5-0.3,0.8-0.9c0.3-0.4,0.6-0.9,0.9-1.3c0.2-0.2,0.4-0.6,0.5-1
		c0.2-0.4,0.3-0.7,0.4-1c-1.5,0.9-2.3,1.4-2.4,1.4c-0.4,0-0.8-0.2-1.3-0.5c-0.4-0.4-0.5-0.8-0.5-1.1c0.6,0,1.6-0.3,2.8-0.8
		c1.8-1,2.9-1.6,3.1-1.7C332.6,4.7,333.2,4.9,333.6,5.3z M331.7,2.2c0.5,0.4,0.8,0.9,0.8,1.6c0,0.4-0.2,0.5-0.7,0.5
		c-0.2-0.1-0.5-0.1-0.7-0.2c-0.4-0.1-0.8-0.3-1.4-0.5V3.5l0.7-0.4c-0.4-0.6-0.6-1.1-0.7-1.6C330.6,1.6,331.3,1.8,331.7,2.2z
		 M338.1,5.4c0.4,0.3,0.7,0.6,0.7,0.9c0,0.4-0.1,0.7-0.4,0.7s-0.5,0.1-0.7,0.1c-0.2,0.1-0.7,0.3-1.5,0.6c-0.2,0.1-0.5,0.2-0.7,0.3
		c0.1,0.3,0.1,0.6,0.1,1.1v0.1c0.4,0.2,0.8,0.5,1.1,0.9c0.1,0,0.1,0,0.2,0c0.3-0.1,0.5-0.2,0.6-0.4c0.1-0.1,0.3-0.3,0.4-0.5
		c0.2-0.2,0.4-0.4,0.4-0.5c-0.1-0.4-0.1-0.8-0.2-1.2c0.2,0.2,0.4,0.3,0.5,0.5c0.2,0,0.5,0.1,0.7,0.3c0.4,0.2,0.6,0.6,0.6,1
		c0,0.1-0.3,0.3-0.9,0.6c-0.4,0.3-0.6,0.5-0.8,0.5c-0.4,0.2-0.7,0.3-0.9,0.3c-0.1,0-0.1,0-0.2,0l0,0c2,2,3.7,3.1,5.1,3.2
		c0,0.4-0.3,0.5-0.8,0.6c-1.1,0-1.9-0.1-2.7-0.1c-0.3,0-0.8-0.4-1.4-1.2c-1.1,2-1.9,3-2.6,3c-0.8,0-1.1-0.6-1.1-1.9
		c0.3-0.6,0.4-1.8,0.6-3.7c0-0.4,0-0.7,0.1-1c-0.1,0-0.3,0-0.4,0c0.1-0.2,0.3-0.3,0.4-0.4c0.1-0.4,0.2-0.7,0.3-1c-0.1,0-0.3,0-0.4,0
		c-0.2,0-0.4-0.1-0.6-0.2c0.5-0.1,1-0.4,1.4-0.7c0.4-0.3,0.8-0.6,1.1-0.9c0.3-0.3,0.5-0.4,0.6-0.5c0.1-0.2,0.2-0.4,0.2-0.6
		C337.1,5.1,337.5,5.2,338.1,5.4z M337,1.3c0.4,0.2,0.6,0.5,0.6,0.9c-0.4,0.4-0.6,0.8-0.8,1.2c0.4,0,1.3-0.2,2.7-0.7
		c0.4,0.1,0.6,0.5,0.6,1.2c0,0.2-1.2,0.5-3.7,1.1c-1.2,0.5-2,0.8-2.4,0.8c-0.1-0.4-0.2-0.9-0.2-1.3c1.2-0.6,1.9-1.4,2-2.6
		c-0.4-0.3-0.6-0.6-0.7-0.9C335.8,1,336.4,1.1,337,1.3z M335.4,10.4c-0.1,0.5-0.1,0.8-0.3,1.1c-0.3,1-0.4,1.8-0.4,2.5
		c0.5,0,1.3-0.4,2.3-1.1C336.6,12.2,336,11.4,335.4,10.4z"/>
	<path d="M350.6,2.3c0.4,0.6,0.6,1,0.6,1.4c0,0.2-0.4,0.4-1.2,0.6c-0.3,0.1-0.5,0.3-0.7,0.5c0.4,0.3,0.6,0.5,0.8,0.7
		c0.2,0.4,0.4,0.8,0.4,1.1c-0.1,0.3-0.4,0.6-0.9,1.1c-0.3,0.3-0.6,0.6-0.8,0.9c0.1,0.3,0.1,0.6,0.1,0.8c-0.1,0.2-0.2,0.6-0.2,1.1
		c0,0.4,0,0.7,0,0.9c0.1,0,0.4-0.6,0.8-1.9c0.5-0.8,0.8-1.4,1.1-1.7c-0.3,0.8-0.6,2-1,3.7c-0.2,2.7-0.4,4.1-0.8,4.1
		c-0.3,0-0.6-0.3-0.9-1c-0.2-0.6-0.3-1.2-0.3-1.8c0.1-0.1,0.3-0.9,0.3-2.5V9.6c-0.3,0.3-0.6,0.6-0.9,0.9c-0.5,0.6-1,1-1.4,1.3
		c-0.1,0-0.2-0.1-0.3-0.2c-0.1,0-0.2-0.2-0.3-0.6c-0.1-0.3-0.1-0.6-0.1-0.8c0.3,0,0.7-0.3,1.2-1c0.4-0.4,0.9-0.9,1.3-1.3
		c0.3-0.2,0.5-0.6,0.8-1c0.4-0.5,0.5-0.9,0.5-1.2c-0.2-0.1-0.3-0.1-0.5-0.2c-0.1,0.1-0.3,0.2-0.4,0.2c-0.6,0.5-0.9,0.7-0.9,0.7
		c-0.1,0-0.2-0.2-0.3-0.6c-0.1-0.6-0.1-1.1-0.1-1.4c0.3-0.2,0.6-0.4,0.9-0.6c0.3-0.1,0.5-0.3,0.8-0.6c0.3-0.2,0.5-0.4,0.6-0.8
		c0.1-0.7,0.2-1.1,0.3-1.3C349.3,1.2,349.8,1.6,350.6,2.3z M352.4,9.1c-0.1,0-0.4-0.1-0.6-0.3c-0.2-0.1-0.4-0.3-0.5-0.5
		c-0.1,0-0.2-0.1-0.2-0.4C351,7.8,351,7.7,351,7.6c0,0.1,0.1,0.1,0.3,0.1c3.5-1,5.9-1.6,7.2-1.7c0.6,0,0.9,0.5,1.2,1.3
		c0,0.3-0.1,0.5-0.2,0.6c-0.2,0-1,0-2.2-0.1c-0.3,0-0.8,0.1-1.5,0.2c0.1,0.1,0.1,0.1,0.1,0.1c0.3,0.4,0.4,0.7,0.4,0.9
		c0,0.1,0,0.3-0.1,0.4c-0.1,0.1-0.2,0.3-0.2,0.3c0,0.1,0,1.1-0.1,2.8c0,1.8-0.1,2.7-0.1,2.9c0,0.1-0.1,0.3-0.2,0.6
		c-0.3,0.1-0.5,0.2-0.6,0.2s-0.6-0.3-1.6-1c-0.6-0.4-1.1-0.8-1.7-1.3c0.4,0.1,0.7,0.2,1,0.3c0.4,0.1,0.6,0.1,0.8,0.1
		c0.2,0,0.4,0,0.7-0.1c0.2,0,0.3-0.1,0.3-0.2c0.1-0.1,0.1-0.9,0.1-2.4c0-1.3,0.1-2.1,0.1-2.3c0-0.1-0.1-0.4-0.3-0.6
		c-0.2-0.1-0.4-0.3-0.5-0.4C353.1,8.9,352.5,9.1,352.4,9.1z M353.6,3.3c1-0.4,1.9-0.7,2.6-1c0.5,0.1,0.9,0.4,1.1,0.7
		c0,0.2-0.1,0.4-0.2,0.6c-1.2,0.8-2.4,1.5-3.5,2.3c-0.5,0.2-0.7,0.3-0.8,0.3c0-0.1,0.2-0.2,0.6-0.6c0.5-0.3,0.9-0.7,1.3-1
		c-0.2,0-0.3,0.1-0.5,0.1c-0.5-0.1-0.9-0.6-1.1-1.3c0-0.1,0.1-0.1,0.2-0.1C353.4,3.3,353.5,3.3,353.6,3.3z"/>
	<path d="M365.1,7.5c0.2,0.4,0.3,0.9,0.4,1.6c0-0.1,0.1-0.2,0.1-0.2c0.2-0.4,0.4-0.7,0.6-1c0.2-0.3,0.4-0.5,0.7-0.7
		c0.3-0.2,0.6-0.3,0.7-0.4c0.2,0,0.6,0.1,1.2,0.2c0.2,0.1,0.3,0.2,0.5,0.2c0.6-0.9,1.2-2,1.8-3.4c-0.1,0.9-0.5,2.1-1.4,3.7
		c0.1,0.1,0.1,0.1,0.1,0.1c0.1,0.1,0.1,0.2,0.2,0.4c0.1,0.2,0.2,0.4,0.2,0.4c0,0.2-0.1,0.6-0.1,1.3c0,0.5-0.1,1-0.1,1.6
		c0,0.4-0.1,0.9-0.1,1.3c-0.2,0.8-0.3,1.2-0.3,1.2c-0.1,0.1-0.2,0.3-0.4,0.4c-0.2,0.3-0.4,0.4-0.4,0.4c-0.3,0-0.7-0.1-1.2-0.5
		c-0.5-0.5-0.8-0.8-0.8-0.9c-0.3-0.6-0.5-1.2-0.6-1.7c-0.1-0.1-0.1-0.2-0.1-0.3c0-0.3,0-0.5,0.1-0.5c0.6-0.1,1.4-1,2.5-2.6
		C368.6,8,368.5,8,368.5,8c-0.1,0-0.3,0.1-0.6,0.3c-0.3,0.1-0.6,0.3-0.8,0.4c-0.3,0.2-0.6,0.3-1,0.5c-0.2,0.2-0.4,0.4-0.5,0.4
		c0.1,0.6,0.1,1.1,0.2,1.7c0,0.3,0.1,0.7,0.3,1.3c0.2,0.5,0.3,0.9,0.3,1.2h-0.2c-0.6,0-1-0.5-1.4-1.5c-0.1-0.1-0.2-0.7-0.2-1.7
		c0-0.3,0-0.6-0.1-1l-0.1-0.8c0-0.2,0.2-0.6,0.5-1.3C364.9,7.5,365.1,7.5,365.1,7.5z M368.1,3.2c0.5,0.4,0.7,0.7,0.7,0.9
		c0,0.2-0.2,0.5-0.7,0.7c-0.4,0.4-0.9,0.7-1.4,1c-0.5,0.4-1,0.7-1.4,0.9c0.1-0.2,0.4-0.6,0.7-1.1c0.5-0.7,0.7-1.2,0.8-1.4
		c0-0.3-0.1-0.6-0.3-0.8C366.2,3.1,366,3,366,2.8c0.1-0.1,0.4-0.1,0.8-0.2C367.4,2.8,367.8,3,368.1,3.2z M366.7,11.9L366.7,11.9
		c0,0.1,0.1,0.3,0.3,0.5c0.5,0.5,0.9,0.8,1.1,0.8c0,0,0.1-0.1,0.3-0.3c0.1-0.1,0.2-0.3,0.2-0.4c0.1,0,0.1-0.5,0.3-1.5
		c0.1-1,0.1-1.7,0.1-2C368,11,367.3,11.9,366.7,11.9z M372.8,2.3c0.4,0.2,0.6,0.3,0.7,0.4c0.1,0.1,0.2,0.2,0.3,0.5
		c0.1,0.3,0.1,0.5,0.1,0.7c0,0.1-0.3,0.5-0.9,1.2c-0.4,0.6-0.5,1-0.5,1.1c0.3-0.1,0.6-0.3,0.8-0.4c0.3,0,0.6,0,1,0
		c0.7,0,1.2,0,1.4,0.1c0.2,0.1,0.4,0.2,0.6,0.5c0.5,0.3,0.7,0.5,0.8,0.6c0,0.4-0.1,2-0.3,4.8c-0.3,1.7-0.4,2.7-0.5,2.8
		c0,0.1-0.2,0.3-0.7,0.7c-0.4,0.4-0.7,0.5-0.9,0.5c-0.4-0.2-1.2-0.7-2.3-1.4c-0.8-0.8-1.3-1.6-1.6-2.4c0.5,0.5,1,0.9,1.6,1.2
		c0.5,0.3,1,0.4,1.7,0.4c0.2,0,0.4-0.1,0.7-0.4c0.2-0.3,0.3-0.5,0.3-0.6c0.1-0.2,0.3-0.9,0.4-2.2c0.1-0.8,0.1-1.5,0.1-2
		c0-0.2-0.1-0.5-0.2-0.8s-0.2-0.5-0.3-0.6c-0.3,0-0.7,0-1,0c-0.5,0-1.1,0.3-1.8,0.9c-0.4,0.2-0.9,0.5-1.3,1.1c-0.1,0-0.2-0.3-0.4-1
		c0-0.4,0.1-0.8,0.2-1.3c0.4-0.2,0.7-0.6,1-1.4c0.3-0.7,0.5-1.4,0.5-2l-0.4-0.5c-0.1-0.3-0.1-0.5-0.3-0.5
		C372,2.2,372.4,2.2,372.8,2.3z M372.5,9.2c0.2,0,0.4,0.1,0.6,0.1s0.4,0.1,0.6,0.2c0.1,0.1,0.2,0.1,0.2,0.1c0.1,0.1,0.1,0.2,0.2,0.4
		c0.1,0.3,0.1,0.4,0.1,0.6c0,0.1-0.1,0.3-0.2,0.5c-0.2,0.1-0.4,0.2-0.5,0.2s-0.3-0.1-0.7-0.5c-0.3-0.2-0.6-0.4-0.7-0.5
		s-0.3-0.3-0.4-0.4c-0.3-0.3-0.5-0.5-0.7-0.6c0.1,0,0.2,0,0.3,0.1c0.1-0.1,0.4-0.2,0.9-0.2C372.2,9.2,372.3,9.2,372.5,9.2z"/>
	<path d="M391.2,10.6c-0.1,0.2-0.2,0.4-0.3,0.4c-0.3,0-0.8-0.4-1.5-1.1c-0.3-0.3-0.7-0.7-1.2-1.4c-0.7-0.8-1-1.2-1-1.4
		c0-0.1,0.1-0.1,0.2-0.1s0.6,0.1,1.4,0.4c0.9,0.3,1.4,0.6,1.7,0.8c0.2,0.2,0.4,0.5,0.6,0.9c0.1,0.3,0.2,0.6,0.2,0.7
		C391.3,10.1,391.3,10.3,391.2,10.6z"/>
	<path d="M406.8,3.4c0.4,0.3,0.6,0.5,0.8,0.5c0.1,0.1,0.2,0.3,0.4,0.7c0.1,0.3,0.1,0.6,0.1,0.9c0,0.1-0.1,0.2-0.4,0.4
		c-0.2,0.3-0.4,0.3-0.5,0.3c-0.2,0.3-0.5,0.6-0.7,0.9c0.1,0,0.2,0,0.3,0c1.6,0.7,3,1.6,4.2,2.8c1.9,1.2,3.5,2.1,5,2.8
		c0.3,0.1,0.4,0.3,0.4,0.5s-0.5,0.3-1.4,0.4c-1.3,0.1-2.1,0.1-2.2,0.1c-0.3,0-1.4-1-3.1-3.2c-0.8-1-1.8-1.7-3.1-2.3
		c-0.3,0-0.6-0.1-0.8-0.1c-0.5,0.6-1.1,1.4-1.6,2.1c-2,1.8-3.1,2.6-3.4,2.6c-0.1,0-0.3-0.1-0.4-0.2c-0.3-0.2-0.4-0.4-0.4-0.4
		c0-0.3,0-0.7,0.1-1.1c0.1,0,0.1,0.1,0.2,0.3c0,0.1,0.1,0.2,0.2,0.2c0.2,0,1.3-1.2,3.3-3.6c1.8-2.5,2.7-3.9,2.7-4.1
		s-0.1-0.4-0.1-0.6C406.4,3.3,406.6,3.3,406.8,3.4z"/>
	<path d="M431.5,8.3c0,0.4-1,0.6-3,0.6c-0.7,0.2-1.3,0.4-1.8,0.5c0.3,0.3,0.5,0.6,0.6,0.9c0,0.2,0,0.4-0.1,0.5
		c0.1,0,0.2-0.1,0.3-0.1c0.4-0.1,0.8-0.3,1.3-0.6c0.1-0.1,0.3-0.1,0.4-0.1c0.2,0.2,0.4,0.4,0.6,0.7v0.5c-0.6,0.2-1.2,0.4-1.8,0.6
		c-0.1,0.1-0.3,0.1-0.5,0.2c-0.1,0.1-0.3,0.1-0.5,0.1c-0.1,0.3-0.1,0.6-0.2,0.9c1,0.4,2.1,0.8,3.1,1.1c2.3,0.4,3.8,0.8,4.6,1.1
		c-0.1,0.5-0.3,0.8-0.8,0.9c-0.4,0-0.8-0.1-1.2-0.1c-0.4,0-0.8,0.1-1.2,0.1c-0.6-0.1-1.2-0.2-1.8-0.3c-0.8-0.4-1.9-1-3.2-1.7
		c-0.4-0.4-1-0.6-1.7-0.8c-0.5-0.1-1-0.1-1.5-0.2c-0.4,0.8-0.7,1.3-0.9,1.3c-0.4,0.6-0.8,0.8-1.2,0.9c-0.2,0-0.5-0.1-0.7-0.1
		c-0.2-0.1-0.3-0.2-0.4-0.3c-0.1-0.2-0.1-0.3-0.1-0.4c0.4,0.2,0.6,0.3,0.9,0.3c0.4-0.3,0.7-0.7,0.9-1.2c0.2-0.4,0.4-0.9,0.6-1.4
		c0.4-0.7,0.5-1.2,0.5-1.4v-0.1c-0.8,0.2-1.2,0.3-1.3,0.3c-0.3,0-0.8-0.2-1.3-0.5c-0.4-0.4-0.6-0.7-0.6-1.1c1,0,2.3-0.1,4.1-0.5
		c0.1-0.1,0.1-0.1,0.2-0.2c0.5-0.3,0.9-0.5,1.2-0.8c-0.2,0-0.4,0.1-0.6,0.1c-0.4-0.1-0.7-0.4-0.9-1c0-0.1,0.1-0.1,0.2-0.1l0,0
		c-0.1-0.3-0.2-0.6-0.2-0.8c0.1-0.1,0.1-0.5,0.2-1.2c0-1.4,0-2.2,0.1-2.4c0.2,0,0.4,0.1,0.6,0.3c0.1-0.5,0.3-1,0.8-1.3
		c0.6-0.4,1.2-0.6,1.9-0.6c0.3,0,0.7,0.1,1.2,0.3c0.3,0.2,0.5,0.4,0.6,0.7c0,0.2-0.1,0.3-0.1,0.5c-0.1,0.2-0.1,0.5-0.2,0.7
		c-0.1,1.6-0.2,2.8-0.3,3.6c-0.1,0.5-0.1,0.9-0.2,1.1c0.6-0.1,1.1-0.2,1.3-0.3C430.3,7.5,431.1,7.8,431.5,8.3z M425.8,10.6
		c0-0.3-0.1-0.6-0.2-0.8c-0.7,0.2-1.3,0.4-1.8,0.5c0.3,0.2,0.5,0.5,0.5,0.9c0,0.2-0.2,0.5-0.5,1.1l0,0c0.5,0,1.1,0.1,1.6,0.2
		c0.1,0,0.1,0.1,0.2,0.1C425.7,11.9,425.7,11.2,425.8,10.6z M427.2,7c-1,0.6-1.9,1.1-2.8,1.7c1.3-0.3,2.4-0.6,3.2-0.8
		C427.4,7.7,427.3,7.4,427.2,7z M424.7,2.8c0.1,0.3,0.2,0.7,0.2,1.2v0.1c0.2-0.1,0.5-0.3,0.9-0.5c0.5-0.1,0.8-0.1,1-0.1
		c0.1,0,0.1,0.1,0.2,0.2c0.1,0.2,0.1,0.3,0.1,0.5c0,0.1-0.2,0.2-0.5,0.4c-0.2,0.1-0.4,0.3-0.7,0.5c-0.4,0.3-0.8,0.5-1.1,0.7
		c0,0.3-0.1,0.5-0.1,0.7c0.8-0.3,1.4-0.5,2-0.7c0.1,0,0.3,0.1,0.4,0.1c0-0.1,0-0.1,0-0.1c0-0.4,0.1-1.2,0.1-2.4c0-0.3,0-0.6-0.1-0.9
		c0-0.2,0-0.4-0.1-0.5c-0.5,0-1,0.1-1.4,0.2C425.3,2.3,424.9,2.5,424.7,2.8C424.6,2.8,424.6,2.8,424.7,2.8z M424.9,5.3
		c0,0.1-0.1,0.3-0.1,0.4l0.1-0.1c0.1-0.1,0.3-0.2,0.4-0.4c-0.2,0-0.3-0.1-0.4-0.2C424.9,5.1,424.9,5.2,424.9,5.3z"/>
	<path d="M445.7,4.2c0,0.2-0.1,0.4-0.1,0.6c-0.1,1.9-0.5,2.8-0.9,2.8c-0.1,0-0.2-0.1-0.2-0.2c-0.1-0.3-0.1-0.6-0.1-0.9
		c0-0.2,0-0.4,0.1-0.6c-0.3,0.3-0.6,0.7-1,1.2c-0.1,0.2-0.3,0.4-0.5,0.6c-0.4,0.4-0.7,0.6-0.9,0.6c-0.2,0-0.3-0.3-0.5-0.8
		c0-0.2,0.1-0.3,0.2-0.5c0.1-0.1,0.2-0.4,0.4-0.9c0-0.1-0.1-0.3-0.1-0.6c-0.3,0-0.6-0.1-0.8-0.2c0,0.1,0,0.1,0,0.2s-0.1,0.4-0.3,0.7
		c-0.2,0.4-0.4,0.9-0.5,1.6c-0.1,1-0.3,1.5-0.6,1.5c-0.3,0-0.5-0.5-0.6-1.4c0-0.5,0.2-1.1,0.6-1.7c0.1-0.3,0.3-0.7,0.5-1.3
		c0-0.1-0.1-0.2-0.1-0.3c0-0.2,0-0.3,0.1-0.4c0.3,0.1,0.4,0.2,0.4,0.3c0.1,0,0.2,0.1,0.3,0.4c0.5-0.4,1.7-0.7,3.7-1.1
		c-0.1-0.2-0.1-0.3-0.3-0.4l0,0c-0.4,0.1-0.6,0.2-0.6,0.2s0.1-0.2,0.4-0.4C444.2,3.1,444,3,444,2.9c-0.1,0-0.1,0-0.1,0
		c-0.5-0.1-0.9-0.5-1-1.2c0-0.1,0.1-0.1,0.2-0.1s0.3,0.1,0.3,0.1c1.3-0.4,2.5-0.6,3.4-0.9c0.5,0.1,0.8,0.4,1,0.6
		c0,0.2-0.1,0.4-0.2,0.6c-0.6,0.3-1.2,0.6-1.7,0.8c0.2,0.2,0.3,0.4,0.4,0.7v0.1c0.4-0.1,0.9-0.1,1.4-0.2c1,0,1.9,0,2.7,0.1
		c0.9,0.1,1.4,0.6,1.7,1.7c0,0.4-0.2,0.7-0.7,0.8c-0.3,0-0.6-0.1-0.8-0.3c-0.6-0.1-1.4-0.1-2.3-0.1c0.7-0.4,1.3-0.8,1.7-1.3
		c-0.6-0.1-1.3-0.2-2.1-0.2c-0.1,0-0.1,0-0.2,0h0.1c0.1,0.2,0.2,0.4,0.4,0.5c0,0.1,0,0.1,0,0.2c-0.4,0.2-0.6,0.5-0.6,0.8
		c0.1-0.1,0.2-0.1,0.3-0.1c0.2,0.1,0.4,0.3,0.6,0.4c0.1,0.1,0.2,0.3,0.2,0.5c-0.4,0.2-0.8,0.4-1.2,0.7c-0.4,0.2-0.8,0.4-1.2,0.6
		c0.1-0.2,0.3-0.4,0.5-0.6c0.4-0.2,0.6-0.4,0.7-0.7c-0.2,0-0.3,0-0.4,0c-0.1-0.2-0.3-0.5-0.4-0.8c0.1-0.1,0.3-0.3,0.4-0.5
		c0.1-0.2,0.3-0.4,0.4-0.7c0-0.1,0-0.1,0-0.2C446.4,4,446,4.1,445.7,4.2z M441.2,11.2c0.1,0.3,0.3,0.6,0.3,1.1
		c0.2-0.3,0.5-0.6,0.7-0.8c0.1,0,0.1-0.1,0.2-0.1l0,0c-0.2,0-0.3-0.1-0.3-0.1c0.2-0.1,0.5-0.2,0.7-0.4s0.4-0.4,0.6-0.7
		c0,0,0-0.1,0.1-0.1c-0.5,0.1-0.9,0.2-1.1,0.2c-0.3,0-0.8-0.4-1.5-1.2c0.3,0,0.6,0,0.9-0.1c1.9-0.7,3.6-1.3,5-1.7h0.5
		c0.4,0.1,0.6,0.3,0.8,0.8c0,0.1-0.1,0.2-0.3,0.3c-0.2,0.1-0.7,0.3-1.4,0.6c-0.6,0.2-1.1,0.4-1.6,0.6c0.1,0.2,0.2,0.4,0.2,0.5
		c0,0,0,0.1-0.1,0.1c0.1,0,0.1,0,0.1,0s-0.1,0.1-0.2,0.2c0.2,0,0.4-0.1,0.6-0.1c-0.1-0.1-0.2-0.1-0.2-0.2c0.3-0.2,0.6-0.3,1-0.3
		c0.1,0.1,0.1,0.1,0.2,0.1c0.6-0.1,1.1-0.2,1.7-0.3c0.4,0,0.8,0.2,1.2,0.6c0.4,0.4,0.6,0.8,0.6,1.3c0,1.2-0.2,2.3-0.7,3.2
		c-0.6,1.1-1.1,1.6-1.4,1.6c-0.2,0-0.3,0-0.4,0c-0.4-0.2-0.9-0.8-1.4-1.7c-0.3,0.7-0.6,1.2-1,1.3c-0.1,0-0.2-0.1-0.2-0.1
		c0.1-0.2,0.2-0.7,0.4-1.7c0.1-0.3,0.1-0.8,0.2-1.5c0.1-0.5,0.1-0.9,0.2-1.3c-0.4,0.1-0.9,0.3-1.3,0.4c0,0.1,0,0.2,0.1,0.3
		c0,0.4,0.1,0.7,0.1,1.1c0,0.2-0.1,0.6-0.2,1.1c-0.1,0.7-0.1,1-0.3,1.1c-0.2,0-0.4-0.1-0.6-0.4c-0.1-0.2-0.2-0.6-0.3-1
		c0-0.2,0-0.4,0.1-0.7s0.2-0.6,0.3-0.8c0-0.1,0-0.2-0.1-0.3c-0.6,0.3-1.2,0.6-1.7,0.9c0.1,0.4,0.2,0.8,0.2,1.2
		c0,0.1,0.1,0.4,0.3,0.7c0.1,0.3,0.2,0.4,0.2,0.6h-0.2c-0.5,0-0.9-0.5-1.2-1.4c-0.1,0-0.2-0.2-0.2-0.6c0-0.2,0-0.4-0.1-0.6l-0.1-0.5
		c0-0.2,0.2-0.6,0.5-1.2C441.1,11.2,441.2,11.2,441.2,11.2z M442.8,5.3c0.1,0.3,0.2,0.6,0.2,0.9c0.3-0.2,0.7-0.4,1-0.6
		c0.1-0.1,0.3-0.2,0.5-0.3c0-0.2,0-0.5,0.1-0.7C443.8,4.8,443.2,5.1,442.8,5.3z M447.1,11.1c0,0.3-0.1,0.6-0.2,0.8s-0.2,0.6-0.3,1.1
		c-0.1,0.5-0.3,0.9-0.4,1.3c0.4,0.3,0.9,0.4,1.2,0.4c0.7-1.3,1.1-2.5,1.1-3.6c0-0.3-0.2-0.4-0.5-0.5c-0.4,0.1-0.7,0.2-1,0.3
		C447.1,11,447.1,11.1,447.1,11.1z"/>
	<path d="M468.5,5.7c-0.6,0.5-1.1,1.1-1.6,1.7h0.1c0.1,0.1,0.1,0.3,0.1,0.5s-0.2,0.4-0.5,0.4c-1.2,0.1-2.2,0.3-3.2,0.5
		c-0.3,0.1-0.6,0.2-0.8,0.3c0.2,0.3,0.4,0.6,0.4,1.1c0.4-0.1,0.8-0.1,1.2-0.2c-0.1-0.1-0.2-0.4-0.2-0.6c0.7,0,1.2,0.1,1.5,0.4
		c2-0.3,3.3-0.5,3.9-0.5c1.2,0.6,1.9,1.2,1.9,1.8c0,0.3-0.1,0.4-0.4,0.4c-0.2,0-1.3-0.2-3.2-0.6c-0.6,0-1.2,0-1.8,0.1
		c-0.2,1-0.6,1.9-1.1,2.5c1.3,0.2,2.1,0.4,2.4,0.6c0.3,0.4,0.6,0.7,0.7,1c0.2,0.3,0.3,0.6,0.3,1c0,0.2-0.1,0.4-0.2,0.6
		c-0.3,0-0.7-0.2-1.2-0.6c-1-0.7-1.9-1.2-2.7-1.7H464c-1,0.9-2.4,1.5-4.2,1.7c-0.9,0-1.4-0.4-1.6-0.9c1.6,0,2.7-0.2,3.4-0.7
		c0.4-0.1,0.7-0.3,1-0.5c-0.5-0.1-1-0.2-1.5-0.3c-0.3,0.1-0.5,0.1-0.7,0.1c-0.1-0.3-0.2-0.6-0.2-0.9c0-0.4,0.1-0.7,0.3-1
		c0.1,0,0.2,0,0.2,0.1c0.1-0.1,0.1-0.1,0.1-0.2c-0.1,0-0.2,0-0.2,0c-2.2,0.7-3.5,1.1-3.6,1.3c-1-0.1-1.6-0.4-1.7-1.1
		c0.3-0.3,2.3-0.8,6.1-1.5c0.1-0.3,0.1-0.6,0.2-0.9c0,0,0-0.1-0.1-0.1c-0.6,0.2-0.9,0.3-1,0.3c-0.3,0-0.6-0.2-0.9-0.6
		c-0.3-0.3-0.4-0.6-0.4-0.8c0.1,0,0.2,0,0.2,0.1c-0.1-0.3-0.3-0.6-0.4-1.1c-0.2-0.5-0.3-0.9-0.5-1.3c-0.1-0.2-0.2-0.4-0.2-0.6h0.3
		c0.4,0.2,0.9,0.5,1.2,0.8c0.4,0.7,0.6,1.3,0.6,1.5c0,0.2,0,0.5-0.1,0.7c0.3,0,0.7-0.1,1.1-0.2c0-0.6,0-1.3,0-1.9
		c-0.1,0.1-0.3,0.1-0.4,0.2c-0.7-0.1-1.2-0.4-1.4-0.9c0-0.1,0.5-0.3,1.6-0.6c-0.1-0.1-0.1-0.3-0.2-0.4c-0.5,0.2-0.8,0.3-0.9,0.3
		c0-0.1,0.2-0.3,0.7-0.6l0,0c0-0.1-0.1-0.1-0.1-0.1c0.1,0,0.2,0,0.3,0c0.5-0.3,0.9-0.5,1.2-0.8c-0.3,0.1-0.6,0.1-0.9,0.1
		c-0.6-0.1-1-0.6-1.2-1.4c0-0.1,0.1-0.1,0.2-0.1c0.2,0.1,0.3,0.1,0.4,0.1c1.5-0.5,2.8-0.9,3.8-1.2c0.5,0.1,0.9,0.4,1.2,0.7
		c0,0.2-0.1,0.4-0.2,0.6c-0.7,0.4-1.3,0.7-1.9,1c0.5,0.1,1,0.4,1.4,0.7v0.1c0.4-0.1,0.9-0.1,1.3-0.2C467.6,4.4,468.2,5,468.5,5.7z
		 M461.9,4.2c0.3,0.1,0.5,0.2,0.8,0.4c0.3-0.1,0.5-0.1,0.8-0.2c0.1,0,0.3-0.1,0.4-0.1V4.2c-0.2-0.3-0.3-0.6-0.4-0.9
		C463,3.7,462.5,4,461.9,4.2z M464.4,11.1c-0.6,0.1-1.2,0.2-1.8,0.3c-0.1,0.4-0.4,0.8-0.6,1.1c0.5,0.3,1,0.5,1.5,0.6
		C464,12.5,464.3,11.9,464.4,11.1z M463.4,7.7c0.1-0.8,0.2-1.5,0.4-2.3c-0.3,0.1-0.5,0.2-0.8,0.3c0,0.3-0.1,0.6-0.1,0.9
		c-0.1,0.5-0.2,0.9-0.3,1.3C462.9,7.9,463.1,7.8,463.4,7.7z M464.8,7.3c0.4-0.2,0.8-0.4,1-0.4c0.4-0.8,0.6-1.4,0.6-1.8
		c-0.1-0.2-0.1-0.3-0.3-0.4c-0.3,0.1-0.6,0.2-0.8,0.2c-0.1,0.3-0.1,0.5-0.2,0.8c-0.2,0.6-0.4,1.1-0.5,1.6
		C464.6,7.4,464.7,7.4,464.8,7.3z"/>
	<path d="M482,0.9c0.7,0.2,1.2,0.5,1.6,0.8c0.3,0.3,0.4,0.7,0.4,1.2c0,0.3-0.7,0.6-2.2,0.9c-0.9,0.3-1.8,0.6-2.5,0.8
		c-0.1,0.2-0.2,0.3-0.3,0.4c-0.5,0.2-0.9,0.6-1.3,1.2c0,0.2,0.1,0.3,0.2,0.4c1-0.3,1.9-0.7,2.9-1.2c1.7-0.9,2.7-1.3,3-1.3
		c0.4,0,0.7,0.1,0.9,0.4c0.2,0.3,0.3,0.6,0.3,0.9c-0.6,0.4-1.1,0.9-1.7,1.4s-1.1,1-1.7,1.5c0.8,0,1.6-0.1,2.4-0.1
		c0.4,0.1,0.8,0.3,1,0.5c0.2,0.3,0.3,0.6,0.3,0.9c-0.1,0.5-0.5,1.1-1.1,1.7c-0.3,0.3-0.5,0.6-0.8,0.9c0.9,0.3,1.7,0.6,2.3,1
		c1.9,1,2.9,2.1,2.9,3.5c-0.9,0-2.1-0.5-3.5-1.4c-1-0.8-2-1.4-3-2c-0.7,0.6-1.5,1.1-2.5,1.5c-0.4,0.3-0.9,0.5-1.4,0.5
		c-0.8,0-1.4-0.2-1.9-0.6c-0.4-0.4-0.8-1-1-1.7c0.5,0.6,1.4,1,2.5,1.2c0.9-0.2,1.7-0.5,2.5-0.9c0.2-0.1,0.4-0.2,0.5-0.3
		c-1.6-0.6-3.3-0.9-5.1-0.9c0.8-0.4,1.7-0.5,2.7-0.5c1.3,0.2,2.4,0.4,3.5,0.6c0.1-0.1,0.3-0.3,0.4-0.5c0.6-0.7,0.9-1.2,1-1.7
		c-0.4,0-0.9,0.2-1.5,0.5c-0.5,0.2-1,0.5-1.5,0.8c-0.4,0-0.7-0.1-0.9-0.4c-0.2-0.2-0.4-0.6-0.4-1.1c0.2-0.4,0.6-0.8,1.2-1.1
		c0.6-0.4,1.1-0.7,1.5-1.1c0.4-0.4,0.8-0.7,1-1.1c0-0.2-0.1-0.3-0.1-0.3c-0.3,0.1-0.9,0.6-1.9,1.4c-0.7,0.5-1.4,0.9-2,1.2
		c-0.9-0.2-1.4-0.6-1.5-1.4c0-0.4,0.1-0.8,0.2-1.1c0.5-0.7,1.2-1.3,2.1-1.8v0.1c0.8-0.6,1.6-1.2,2.3-1.8c-0.4-0.3-0.7-0.6-1-1
		c-0.4-0.4-0.6-0.7-0.6-1C480.5,0.6,481.1,0.7,482,0.9z M487.5,6.8c0.6,0.4,0.9,0.9,0.9,1.7c0,0.3-0.2,0.5-0.6,0.5
		c-0.3-0.1-0.5-0.1-0.7-0.2c-0.4-0.1-0.9-0.2-1.4-0.4V8.3l0.9-0.4c-0.8-0.6-1.3-1.2-1.5-1.7C486.1,6.2,486.9,6.5,487.5,6.8z"/>
	<path d="M496.7,4.6c-0.1,0.3-0.2,0.6-0.2,0.9l0,0l0,0c0.9,0,1.6,0.2,2,0.5c0-0.4,0-0.9,0-1.3c0-0.8,0-1.3,0-1.5
		c-0.6,0-1.1,0.2-1.5,0.5c-0.2,0-0.4-0.2-0.4-0.8c0.3-0.6,0.9-0.9,1.7-1c1,0,1.5,0.4,1.5,1.1c-0.3,1-0.4,2.3-0.4,3.7
		c0,2,0.1,3.8,0.2,5.6c0,1.9-0.4,2.8-1.1,3c-0.7-0.1-1.4-1-2-2.9c0.4,0.4,0.8,0.6,1.2,0.6c0.4,0,0.7-1.3,0.7-3.8
		c-0.2,0.3-0.5,0.6-0.7,0.9c-0.6,0.8-1,1.2-1.2,1.2c-0.2-0.1-0.4-0.3-0.5-0.5c-0.4,2.6-1.1,3.8-2.1,3.8c0.8-1.7,1.2-5,1.2-9.8
		c0-0.6-0.1-1.1-0.3-1.4C496,3.7,496.6,4,496.7,4.6z M497.9,7.6c-0.6,0.5-1.1,0.9-1.5,1.1v0.2c0,0.3,0,0.6-0.1,0.9l0.1-0.1l0.1,0.1
		c0.4-0.2,0.8-0.4,1.2-0.6c0.3-0.1,0.5-0.2,0.8-0.4V8.7c0-0.4,0-0.8,0-1.3C498.3,7.5,498.1,7.5,497.9,7.6z M497.3,7.2
		c-0.4-0.2-0.7-0.4-0.9-0.6c0,0.6-0.1,1.2-0.1,1.8C496.8,7.9,497.2,7.5,497.3,7.2z M502.5,4.1c-0.1,0.3-0.2,0.6-0.2,1
		c0,0.1,0,0.3,0,0.4h0.1c1.1,0,1.9,0.3,2.4,0.8c0-0.5,0-1.1-0.1-1.7c0-0.9,0-1.4,0-1.6c-0.7,0-1.3,0.2-1.8,0.7
		c-0.2,0-0.4-0.2-0.4-0.8c0.3-0.7,1-1,2-1.2c1.1,0,1.7,0.4,1.8,1.3c-0.3,1.1-0.4,2.4-0.4,3.9c0,2.1,0.1,4.1,0.4,6c0,2-0.4,3-1.3,3.2
		c-0.9-0.1-1.7-1.1-2.5-3.2c0.5,0.7,1.1,1,1.6,1c0.4,0,0.6-1,0.6-3l-0.1,0.1c-0.2,0.1-0.4,0.2-0.6,0.2c-0.1,0-0.3-0.2-0.7-0.6
		c-0.4-0.2-0.6-0.4-0.8-0.6s-0.3-0.3-0.4-0.4c0,0-0.1,0-0.1-0.1c-0.3,4-1.2,5.9-2.5,5.9c1-1.9,1.5-5.6,1.5-11c0-0.6-0.1-1.1-0.3-1.4
		C501.8,3.1,502.4,3.5,502.5,4.1z M503.4,7.2c-0.6-0.3-0.9-0.6-1.2-0.8c0,0.7-0.1,1.4-0.1,2.2C502.8,8.1,503.2,7.6,503.4,7.2z
		 M502.4,8.8c0,0,0.2,0,0.4,0.1c0.2,0,0.5,0.1,0.7,0.1s0.4,0.1,0.6,0.2c0.2,0.1,0.3,0.1,0.3,0.1c0,0.1,0.1,0.2,0.3,0.5l0,0
		c0-0.3,0-0.6,0-1c0-0.5,0-1,0-1.6c-0.2,0.2-0.5,0.3-0.8,0.4c-0.6,0.5-1.2,0.9-1.7,1.1C502.3,8.8,502.3,8.8,502.4,8.8z"/>
	<path d="M520.7,2c-0.1,0.5-0.2,0.9-0.3,1.3c0.2-0.1,0.3-0.1,0.4-0.2c1,0,1.7,0.3,2.2,0.7c0,0.6-0.7,0.9-1.9,1
		c-0.7,0.5-1.4,0.9-1.9,1.3c-0.5,1.2-1.1,2.4-1.7,3.6c-0.2,0.4-0.4,0.8-0.6,1.1c0.1,0,0.3,0,0.4,0c0,0,0.1,0,0.3,0.1
		c0-0.4,0-0.8,0.1-1.1c1.2-0.9,2.3-1.6,3.5-2c0.1-0.2,0.2-0.4,0.4-0.5c0.9,0,1.4,0.5,1.5,1.3c-0.3,0.7-0.6,1.4-0.9,2.2
		c-0.3,0.9-0.5,1.5-0.8,2.1l0,0c1.9,0.9,3.1,1.5,3.7,1.6c0.8,0.3,1.4,0.5,2,0.6c0.3,0.1,0.5,0.3,0.5,0.5c-0.1,0.1-0.5,0.3-1.3,0.5
		c-1.2,0.2-1.9,0.4-2.2,0.4c-0.6-0.1-1.5-0.7-2.7-1.8c-0.3-0.2-0.5-0.5-0.7-0.7c-0.2,0.2-0.4,0.3-0.5,0.4c-0.9,0.4-1.6,0.7-2.2,0.7
		c-1-0.3-1.8-0.8-2.4-1.4c-0.6,0.9-1.2,1.6-2,2.3c-0.1-0.2-0.2-0.3-0.2-0.5c0.4-1,1.1-2.3,2.1-3.8c0.6-1.3,1.1-2.5,1.7-3.6
		c0.1-0.3,0.3-0.5,0.4-0.8c-0.6,0.4-1,0.6-1,0.6c-0.4,0-0.9-0.2-1.4-0.6c-0.4-0.4-0.6-0.8-0.6-1.2c0.7,0,1.7-0.3,3-1
		c0.5-0.3,0.9-0.6,1.3-0.8c0.3-0.9,0.4-1.8,0.5-2.7c-0.2-0.1-0.4-0.2-0.6-0.2c-0.1,0.1-0.1,0.2-0.2,0.3c-0.2,0-0.4-0.1-0.4-0.5
		c0.2-0.4,0.6-0.6,1.1-0.6C520,0.8,520.6,1.2,520.7,2z M517.4,14.1c0.7,0,1.4-0.4,1.9-0.9c-0.5-0.4-1-0.8-1.5-1.1
		c-0.1-0.1-0.4-0.1-0.7-0.2c-0.4,0-0.6,0-0.7-0.1c-0.3,0.5-0.5,1-0.7,1.4c-0.1,0.1-0.1,0.3-0.2,0.4C516,13.9,516.6,14.1,517.4,14.1z
		 M521,9.3c-0.6,0.3-1.2,0.6-1.8,0.8c-0.6,0.1-1.2,0.4-1.7,0.9c0.5,0.2,1.3,0.6,2.4,1.3C520.4,11.5,520.7,10.5,521,9.3z"/>
	<path d="M532,7.5c0.2,0.4,0.3,0.9,0.4,1.6c0-0.1,0.1-0.2,0.1-0.2c0.2-0.4,0.4-0.7,0.6-1c0.2-0.3,0.4-0.5,0.7-0.7s0.6-0.3,0.7-0.4
		c0.2,0,0.6,0.1,1.2,0.2c0.2,0.1,0.3,0.2,0.5,0.2c0.6-0.9,1.2-2,1.8-3.4c-0.1,0.9-0.5,2.1-1.4,3.7c0.1,0.1,0.1,0.1,0.1,0.1
		c0.1,0.1,0.1,0.2,0.2,0.4c0.3,0.2,0.3,0.4,0.3,0.4c0,0.2-0.1,0.6-0.1,1.3c0,0.5-0.1,1-0.1,1.6c0,0.4-0.1,0.9-0.1,1.3
		c-0.2,0.8-0.3,1.2-0.3,1.2c-0.1,0.1-0.2,0.3-0.4,0.4c-0.2,0.3-0.4,0.4-0.4,0.4c-0.3,0-0.7-0.1-1.2-0.5c-0.5-0.5-0.8-0.8-0.8-0.9
		c-0.3-0.6-0.5-1.2-0.6-1.7c-0.1-0.1-0.1-0.2-0.1-0.3c0-0.3,0-0.5,0.1-0.5c0.6-0.1,1.4-1,2.5-2.6C535.6,8,535.5,8,535.5,8
		c-0.1,0-0.3,0.1-0.6,0.3c-0.3,0.1-0.6,0.3-0.8,0.4c-0.3,0.2-0.6,0.3-1,0.5c-0.2,0.2-0.4,0.4-0.5,0.4c0.1,0.6,0.1,1.1,0.2,1.7
		c0,0.3,0.1,0.7,0.3,1.3c0.2,0.5,0.3,0.9,0.3,1.2h-0.2c-0.6,0-1-0.5-1.4-1.5c-0.1-0.1-0.2-0.7-0.2-1.7c0-0.3,0-0.6-0.1-1l-0.1-0.8
		C531.4,8.6,531.6,8.2,532,7.5C531.9,7.5,532,7.5,532,7.5z M535,3.2c0.5,0.4,0.7,0.7,0.7,0.9c0,0.2-0.2,0.5-0.7,0.7
		c-0.4,0.4-0.9,0.7-1.4,1c-0.5,0.4-1,0.7-1.4,0.9c0.1-0.2,0.4-0.6,0.7-1.1c0.5-0.7,0.7-1.2,0.8-1.4c0-0.3-0.1-0.6-0.3-0.8
		c-0.3-0.3-0.5-0.4-0.5-0.6c0.1-0.1,0.4-0.1,0.8-0.2C534.3,2.8,534.7,3,535,3.2z M533.7,11.9C533.7,11.9,533.6,11.9,533.7,11.9
		c0,0.1,0.1,0.3,0.3,0.5c0.5,0.5,0.9,0.8,1.1,0.8c0,0,0.1-0.1,0.3-0.3c0.1-0.1,0.2-0.3,0.2-0.4c0.1,0,0.1-0.5,0.3-1.5
		c0.1-1,0.1-1.7,0.1-2C535,11,534.2,11.9,533.7,11.9z M539.8,2.3c0.4,0.2,0.6,0.3,0.7,0.4c0.1,0.1,0.2,0.2,0.3,0.5s0.1,0.5,0.1,0.7
		c0,0.1-0.3,0.5-0.9,1.2c-0.4,0.6-0.5,1-0.5,1.1c0.3-0.1,0.6-0.3,0.8-0.4c0.3,0,0.6,0,1,0c0.7,0,1.2,0,1.4,0.1s0.4,0.2,0.6,0.5
		c0.5,0.3,0.7,0.5,0.8,0.6c0,0.4-0.1,2-0.3,4.8c-0.3,1.7-0.4,2.7-0.5,2.8c0,0.1-0.2,0.3-0.7,0.7c-0.4,0.4-0.7,0.5-0.9,0.5
		c-0.4-0.2-1.2-0.7-2.3-1.4c-0.8-0.8-1.3-1.6-1.6-2.4c0.5,0.5,1,0.9,1.6,1.2c0.5,0.3,1,0.4,1.7,0.4c0.2,0,0.4-0.1,0.7-0.4
		c0.2-0.3,0.3-0.5,0.3-0.6c0.1-0.2,0.3-0.9,0.4-2.2c0.1-0.8,0.1-1.5,0.1-2c0-0.2-0.1-0.5-0.2-0.8c-0.1-0.3-0.2-0.5-0.3-0.6
		c-0.3,0-0.7,0-1,0c-0.5,0-1.1,0.3-1.8,0.9c-0.4,0.2-0.9,0.5-1.3,1.1c-0.1,0-0.2-0.3-0.4-1c0-0.4,0.1-0.8,0.2-1.3
		c0.4-0.2,0.7-0.6,1-1.4c0.3-0.7,0.5-1.4,0.5-2l-0.4-0.5c-0.1-0.3-0.1-0.5-0.3-0.5C538.9,2.2,539.3,2.2,539.8,2.3z M539.5,9.2
		c0.2,0,0.4,0.1,0.6,0.1c0.2,0,0.4,0.1,0.6,0.2c0.1,0.1,0.2,0.1,0.2,0.1c0.1,0.1,0.1,0.2,0.2,0.4c0.1,0.3,0.1,0.4,0.1,0.6
		c0,0.1-0.1,0.3-0.2,0.5c-0.2,0.1-0.4,0.2-0.5,0.2s-0.3-0.1-0.7-0.5c-0.3-0.2-0.6-0.4-0.7-0.5c-0.1-0.1-0.3-0.3-0.4-0.4
		c-0.3-0.3-0.5-0.5-0.7-0.6c0.1,0,0.2,0,0.3,0.1c0.1-0.1,0.4-0.2,0.9-0.2C539.1,9.2,539.3,9.2,539.5,9.2z"/>
</g>
<g>
	<path d="M8.2,9.9l-0.1,0.2c-0.5,1-0.8,1.7-0.8,2.3c0,0.2,0.1,0.3,0.2,0.5c-0.1,0-0.3,0.1-0.7,0.2c-0.2,0.1-0.3,0.1-0.5,0.1
		c-0.3,0-0.4-0.1-0.4-0.4c0-0.6,0.4-1.5,1.1-2.7l0.2-0.3H6.9c-0.7,0-1.3,0.1-1.6,0.3C5.5,9.4,6,9,6.9,9h0.8l0.2-0.3
		c0.7-1,1.7-2.3,3-4c0.5-0.6,0.8-0.9,1-1.1c0.2-0.1,0.7-0.3,1.3-0.4C13.1,4,13,4.7,13,5.3c0,1.7,0.2,3.5,0.6,5.2
		c0.2,1,0.5,1.6,1,1.9c-0.4,0.4-0.7,0.6-1,0.6c-0.7,0-1.2-1.1-1.5-3.4c-0.7,0.1-1.4,0.1-2.1,0.1L8.2,9.9z M8.7,9.2H10
		c0.9,0,1.5,0,2-0.1c-0.2-1.5-0.3-2.7-0.3-3.6V5c-0.2,0.2-0.5,0.5-1,1.1c-0.9,1.1-1.5,2-1.9,2.8L8.7,9.2z"/>
	<path d="M18.3,10.7c1.5-3.1,2.8-4.7,4-4.7c0.9,0,1.4,0.9,1.4,2.8v0.8c0,0.9,0,1.5,0.1,1.8s0.3,0.5,0.5,0.5c0.4,0,0.8-0.3,1.2-0.9
		s1.2-1.7,2.2-3.5l0.5,0.3c-0.9,1.7-1.7,3-2.5,3.9c-0.7,0.8-1.4,1.3-2,1.3c-0.5,0-0.9-0.3-1.1-0.8s-0.3-1.4-0.3-2.7V9
		c0-0.7,0-1.2-0.1-1.4c-0.1-0.3-0.2-0.4-0.5-0.4c-0.6,0-1.4,1.1-2.7,3.3c-0.3,0.5-0.5,0.9-0.6,1c-0.3,0.6-0.5,1-0.5,1.2
		c0,0.1,0,0.2,0.1,0.3c-0.2,0.1-0.4,0.2-0.6,0.2c-0.4,0-0.6-0.2-0.6-0.7c0-0.1,0.1-0.7,0.2-1.8l0.1-1.4c0.1-0.6,0.1-1,0.1-1.3
		c0-0.4-0.1-0.8-0.3-1c0.1,0,0.2-0.1,0.4-0.2c0.3-0.1,0.5-0.1,0.6-0.1c0.3,0,0.5,0.2,0.5,0.7c0,0.3,0,0.7-0.1,1.3c0,0.1,0,0.3,0,0.4
		L18.3,10.7z"/>
	<path d="M29.2,13c-0.2-1.1-0.5-2.2-1-3.3s-1-1.9-1.5-2.5c0.3-0.3,0.6-0.4,1-0.4c0.3,0,0.5,0.1,0.7,0.4s0.4,0.8,0.7,1.5
		c0.4,1.2,0.8,2.3,1,3.3c1.4-2.2,2.2-4.2,2.3-5.9c0.7,0.1,1.1,0.4,1.1,0.7c0,0.4-0.3,1.2-1,2.5c-0.7,1.2-1.4,2.4-2.1,3.4
		c-0.9,1.2-1.7,2.1-2.6,2.8c-0.9,0.7-1.6,1-2.2,1s-0.8-0.2-0.8-0.7c0-0.2,0-0.4,0.1-0.7c0.2,0.1,0.5,0.2,0.9,0.2
		C27,15.4,28.1,14.6,29.2,13z"/>
	<path d="M45,8.4c0,0.1,0,0.2,0,0.3c0,1.2-0.4,2.3-1.2,3.2s-1.8,1.3-2.9,1.3c-0.8,0-1.5-0.3-2.1-0.8c-0.5-0.5-0.8-1.2-0.8-2.1
		c0-1,0.3-1.8,1-2.5s1.5-1.1,2.4-1.1c0.1,0,0.3,0,0.5,0.1c-0.1-0.2-0.2-0.3-0.2-0.5s0.1-0.4,0.2-0.6c1,0.1,1.9,0.6,2.5,1.6
		C45.1,7.8,45.8,8,46.6,8c0.5,0,1-0.2,1.6-0.5L48.5,8c-0.7,0.5-1.3,0.7-2,0.7C46.1,8.7,45.6,8.6,45,8.4z M43.6,7.8
		c-0.3-0.1-0.7-0.3-1-0.5c-0.2,0-0.4-0.1-0.5-0.1c-0.7,0-1.3,0.3-1.9,1c-0.5,0.6-0.8,1.4-0.8,2.2c0,0.6,0.2,1.1,0.5,1.5
		s0.8,0.6,1.3,0.6c0.7,0,1.3-0.4,1.8-1.1c0.5-0.7,0.8-1.6,0.8-2.5C43.8,8.5,43.7,8.2,43.6,7.8z"/>
	<path d="M49,10.7C50.5,7.6,51.8,6,53,6c0.9,0,1.4,0.9,1.4,2.8v0.8c0,0.9,0,1.5,0.1,1.8s0.3,0.5,0.5,0.5c0.4,0,0.8-0.3,1.2-0.9
		s1.2-1.7,2.2-3.5l0.5,0.3c-0.9,1.7-1.7,3-2.5,3.9c-0.7,0.8-1.4,1.3-2,1.3c-0.5,0-0.9-0.3-1.1-0.8c-0.2-0.5-0.3-1.4-0.3-2.7V9
		c0-0.7,0-1.2-0.1-1.4c-0.1-0.3-0.2-0.4-0.5-0.4c-0.6,0-1.4,1.1-2.7,3.3c-0.3,0.5-0.5,0.9-0.6,1c-0.3,0.6-0.5,1-0.5,1.2
		c0,0.1,0,0.2,0.1,0.3c-0.2,0.1-0.4,0.2-0.6,0.2c-0.4,0-0.6-0.2-0.6-0.7c0-0.1,0.1-0.7,0.2-1.8l0.1-1.4c0.1-0.6,0.1-1,0.1-1.3
		c0-0.4-0.1-0.8-0.3-1c0.1,0,0.2-0.1,0.4-0.2c0.3-0.1,0.5-0.1,0.6-0.1c0.3,0,0.5,0.2,0.5,0.7c0,0.3,0,0.7-0.1,1.3c0,0.1,0,0.3,0,0.4
		L49,10.7z"/>
	<path d="M58.5,10.4c0,1.2,0.5,1.8,1.6,1.8c0.9,0,1.9-0.4,3-1.3c1.1-0.9,2.1-2,2.9-3.4l0.5,0.3c-0.8,1.5-1.9,2.8-3.2,3.8
		c-1.3,1-2.6,1.5-3.7,1.5c-0.8,0-1.3-0.2-1.8-0.7c-0.4-0.5-0.7-1.1-0.7-2c0.1-1.2,0.5-2.2,1.3-3.1S60.1,6,61.3,6
		c0.5,0,1,0.1,1.3,0.4s0.5,0.6,0.5,1.1c0,0.7-0.5,1.4-1.3,2C60.7,10.1,59.7,10.4,58.5,10.4z M58.6,9.8c0.9,0,1.6-0.3,2.2-0.7
		c0.6-0.5,0.9-1,0.9-1.6c0-0.5-0.2-0.8-0.7-0.8c-0.6,0-1.1,0.3-1.6,0.9C59,8.2,58.7,8.9,58.6,9.8z"/>
	<path d="M69.7,14.8c-0.7,0-1-0.2-1-0.6c0-0.1,0.1-0.5,0.2-1.1l1.6-8c0.2-0.8,0.3-1.4,0.3-1.8c0-0.2,0-0.3-0.1-0.5
		c0.7,0.1,1,0.3,1,0.7c0,0.2-0.1,0.6-0.2,1.2c-0.1,0.2-0.1,0.4-0.1,0.5l-1.6,8c-0.1,0.5-0.2,0.9-0.2,1.2
		C69.6,14.6,69.6,14.7,69.7,14.8z"/>
	<path d="M79,9.9l-0.1,0.2c-0.5,1-0.8,1.7-0.8,2.3c0,0.2,0.1,0.3,0.2,0.5c-0.1,0-0.3,0.1-0.7,0.2c-0.1,0.1-0.3,0.1-0.4,0.1
		c-0.3,0-0.4-0.1-0.4-0.4c0-0.6,0.4-1.5,1.1-2.7l0.2-0.3h-0.3c-0.7,0-1.2,0.1-1.6,0.3C76.4,9.4,76.9,9,77.8,9h0.8l0.2-0.3
		c0.7-1,1.7-2.3,3-4c0.5-0.6,0.8-0.9,1-1.1c0.2-0.1,0.7-0.3,1.3-0.4C84,4,83.9,4.7,83.9,5.3c0,1.7,0.2,3.5,0.6,5.2
		c0.2,1,0.5,1.6,1,1.9c-0.4,0.4-0.7,0.6-1,0.6c-0.7,0-1.2-1.1-1.5-3.4c-0.7,0.1-1.4,0.1-2.1,0.1L79,9.9z M79.5,9.2h1.3
		c0.9,0,1.5,0,2-0.1c-0.2-1.5-0.3-2.7-0.3-3.6V5c-0.1,0.2-0.4,0.6-0.9,1.1c-0.9,1.1-1.5,2-1.9,2.8L79.5,9.2z"/>
	<path d="M89.2,10.7C90.7,7.6,92,6,93.2,6c0.9,0,1.4,0.9,1.4,2.8v0.8c0,0.9,0,1.5,0.1,1.8s0.3,0.5,0.5,0.5c0.4,0,0.8-0.3,1.2-0.9
		s1.2-1.7,2.2-3.5l0.6,0.4c-0.9,1.7-1.7,3-2.5,3.9c-0.7,0.8-1.4,1.3-2,1.3c-0.5,0-0.9-0.3-1.1-0.8s-0.3-1.4-0.3-2.7V9.1
		c0-0.7,0-1.2-0.1-1.4c-0.1-0.3-0.2-0.4-0.5-0.4c-0.6,0-1.4,1.1-2.7,3.3c-0.3,0.5-0.5,0.9-0.6,1c-0.3,0.6-0.5,1-0.5,1.2
		c0,0.1,0,0.2,0.1,0.3c-0.2,0.1-0.4,0.2-0.6,0.2c-0.4,0-0.6-0.2-0.6-0.7c0-0.1,0.1-0.7,0.2-1.8l0.1-1.4c0.1-0.7,0.1-1.1,0.1-1.5
		c0-0.4-0.1-0.8-0.3-1c0.1,0,0.2-0.1,0.4-0.2c0.3-0.1,0.5-0.1,0.6-0.1c0.3,0,0.5,0.2,0.5,0.7c0,0.3,0,0.7-0.1,1.3c0,0.1,0,0.3,0,0.4
		L89.2,10.7z"/>
	<path d="M100.1,13c-0.2-1.1-0.5-2.2-1-3.3s-1-1.9-1.5-2.5c0.3-0.3,0.6-0.4,1-0.4c0.3,0,0.5,0.1,0.7,0.4S99.7,8,100,8.7
		c0.4,1.2,0.8,2.3,1,3.3c1.4-2.2,2.2-4.2,2.3-5.9c0.7,0.1,1.1,0.4,1.1,0.7c0,0.4-0.3,1.2-1,2.5c-0.7,1.2-1.4,2.4-2.1,3.4
		c-0.9,1.2-1.7,2.1-2.6,2.8c-0.9,0.7-1.6,1-2.2,1s-0.8-0.2-0.8-0.7c0-0.2,0-0.4,0.1-0.7c0.2,0.1,0.5,0.2,0.9,0.2
		C97.8,15.4,98.9,14.6,100.1,13z"/>
	<path d="M113.9,10.5c0.1,0.2,0.2,0.4,0.2,0.5c0,0.4-0.3,0.9-1,1.4s-1.3,0.7-1.9,0.7c-0.5,0-0.9-0.2-1.2-0.7c-0.3-0.4-0.5-1-0.5-1.7
		c0-0.8,0.2-1.9,0.6-3.4l0.3-1.1h-1.1c-0.4,0-0.8,0.1-1.1,0.2c0.2-0.4,0.4-0.7,0.6-0.8c0.2-0.1,0.4-0.2,0.8-0.2h0.9l0.1-0.4
		c0.2-0.6,0.4-1.1,0.7-1.3c0.3-0.2,0.7-0.4,1.2-0.4c0.1,0,0.2,0,0.3,0c-0.3,0.4-0.7,1.1-1,2.1h3.3c0.6,0,1-0.1,1.3-0.2
		c-0.1,0.4-0.2,0.7-0.4,0.8c-0.2,0.1-0.5,0.2-1,0.2h-3.5c0,0.1-0.1,0.2-0.1,0.3c-0.5,1.7-0.8,3-0.8,3.9c0,1,0.3,1.5,1,1.5
		c0.4,0,0.8-0.2,1.2-0.5C113.4,11.2,113.7,10.9,113.9,10.5z"/>
	<path d="M122.2,7.9c-0.9,1.7-1.9,2.9-2.9,3.9c-1,0.9-1.8,1.4-2.6,1.4c-0.5,0-0.8-0.2-1.1-0.5c-0.3-0.3-0.4-0.7-0.4-1.2
		c0-0.2,0-0.5,0.1-0.9l0.1-0.7c0.2-1,0.3-1.7,0.3-2.1c0-0.2-0.1-0.4-0.2-0.6c0.5-0.1,0.9-0.2,1-0.2c0.3,0,0.5,0.2,0.5,0.7
		c0,0.3-0.1,0.8-0.2,1.4l-0.2,1.2c-0.1,0.6-0.2,1-0.2,1.1c0,0.5,0.2,0.8,0.7,0.8s1.2-0.4,2.1-1.3s1.7-2,2.5-3.3L122.2,7.9z
		 M116.6,4.7L116.6,4.7c0.4,0,0.8-0.1,1.3-0.4s0.9-0.5,1.2-0.8c-0.2,0.6-0.5,1.1-1,1.4c-0.7,0.6-1.2,0.9-1.4,0.9
		c-0.2,0-0.3-0.1-0.3-0.3C116.5,5.2,116.5,4.9,116.6,4.7z"/>
	<path d="M122.5,10.8c1.5-3.2,2.8-4.8,4-4.8c0.5,0,0.8,0.4,0.8,1.1c0,0.3-0.1,1-0.3,2.1l-0.4,1.9c0.7-1.5,1.5-2.8,2.3-3.7
		S130.4,6,131,6s1,0.4,1,1.1c0,0.3-0.1,0.9-0.3,1.8l-0.2,1c-0.1,0.6-0.2,1-0.2,1.3c0,0.5,0.2,0.8,0.5,0.8c0.8,0,2-1.5,3.7-4.5
		l0.5,0.3c-1.8,3.5-3.4,5.3-4.7,5.3c-0.9,0-1.3-0.6-1.3-1.7c0-0.4,0.1-1,0.3-1.8l0.2-0.9c0.1-0.6,0.2-0.9,0.2-1.1s-0.1-0.3-0.3-0.3
		c-0.5,0-1.3,0.9-2.4,2.7c-1.1,1.6-1.6,2.6-1.6,2.8v0.1c-0.1,0-0.2,0-0.3,0.1c-0.1,0-0.2,0-0.3,0c-0.4,0-0.6-0.2-0.6-0.6
		c0-0.1,0.1-0.5,0.2-1c0-0.2,0.1-0.4,0.1-0.7l0.3-1.3c0.2-1,0.3-1.5,0.3-1.7c0-0.3-0.1-0.4-0.3-0.4c-0.5,0-1.1,0.8-2,2.4
		s-1.3,2.6-1.3,2.9c0,0.1,0,0.2,0.1,0.3c-0.2,0.1-0.4,0.2-0.6,0.2c-0.4,0-0.7-0.2-0.7-0.7c0-0.1,0.1-0.7,0.2-1.8l0.1-1.3
		c0-0.5,0.1-0.9,0.1-1.3c0-0.5-0.1-0.9-0.3-1.1c0.5-0.2,0.8-0.3,1-0.3c0.4,0,0.6,0.2,0.6,0.7c0,0.2,0,0.7-0.2,1.7L122.5,10.8z"/>
	<path d="M135.5,10.4c0,1.2,0.5,1.8,1.6,1.8c0.9,0,1.9-0.4,3-1.3c1.1-0.9,2.1-2,2.9-3.4l0.5,0.3c-0.8,1.5-1.9,2.8-3.2,3.8
		s-2.6,1.5-3.7,1.5c-0.8,0-1.3-0.2-1.8-0.7c-0.4-0.5-0.7-1.1-0.7-2c0-1.2,0.4-2.2,1.2-3.1S137,6,138.2,6c0.5,0,1,0.1,1.3,0.4
		S140,7,140,7.5c0,0.7-0.5,1.4-1.3,2C137.7,10.1,136.7,10.4,135.5,10.4z M135.6,9.8c0.9,0,1.6-0.3,2.2-0.7c0.6-0.5,0.9-1,0.9-1.6
		c0-0.5-0.2-0.8-0.7-0.8c-0.6,0-1.1,0.3-1.6,0.9C136,8.2,135.7,8.9,135.6,9.8z"/>
	<path d="M146.7,14.8c-0.7,0-1-0.2-1-0.6c0-0.1,0.1-0.5,0.2-1.1l1.6-8c0.2-0.8,0.3-1.4,0.3-1.8c0-0.2,0-0.3-0.1-0.5
		c0.7,0.1,1,0.3,1,0.7c0,0.2-0.1,0.6-0.2,1.2c-0.1,0.2-0.1,0.4-0.1,0.5l-1.6,7.9c-0.1,0.5-0.2,0.9-0.2,1.2S146.6,14.7,146.7,14.8z"
		/>
	<path d="M156,9.9l-0.1,0.2c-0.5,1-0.8,1.7-0.8,2.3c0,0.2,0.1,0.3,0.2,0.5c-0.1,0-0.3,0.1-0.7,0.2c-0.2,0.1-0.3,0.1-0.5,0.1
		c-0.3,0-0.4-0.1-0.4-0.4c0-0.6,0.4-1.5,1.1-2.7l0.2-0.3h-0.3c-0.7,0-1.2,0.1-1.6,0.3c0.2-0.7,0.7-1.1,1.6-1.1h0.8l0.2-0.3
		c0.7-1,1.7-2.3,3-4c0.5-0.6,0.8-0.9,1-1.1c0.2-0.1,0.7-0.3,1.3-0.4c-0.1,0.8-0.2,1.5-0.2,2.1c0,1.7,0.2,3.5,0.6,5.2
		c0.2,1,0.5,1.6,1,1.9c-0.4,0.4-0.7,0.6-1,0.6c-0.7,0-1.2-1.1-1.5-3.4c-0.7,0.1-1.4,0.1-2.1,0.1L156,9.9z M156.5,9.2h1.3
		c0.9,0,1.5,0,2-0.1c-0.2-1.5-0.3-2.7-0.3-3.6V5c-0.1,0.2-0.4,0.6-0.9,1.1c-0.9,1.1-1.5,2-1.9,2.8L156.5,9.2z"/>
	<path d="M166.1,10.7c1.5-3.1,2.8-4.7,4-4.7c0.9,0,1.4,0.9,1.4,2.8v0.8c0,0.9,0,1.5,0.1,1.8s0.3,0.5,0.5,0.5c0.4,0,0.8-0.3,1.2-0.9
		c0.5-0.6,1.2-1.7,2.2-3.5l0.5,0.3c-0.9,1.7-1.7,3-2.5,3.9c-0.7,0.8-1.4,1.3-2,1.3c-0.5,0-0.9-0.3-1.1-0.8c-0.2-0.5-0.3-1.4-0.3-2.7
		V9c0-0.7,0-1.2-0.1-1.4c-0.1-0.3-0.2-0.4-0.5-0.4c-0.6,0-1.4,1.1-2.7,3.3c-0.3,0.5-0.5,0.9-0.6,1c-0.3,0.6-0.5,1-0.5,1.2
		c0,0.1,0,0.2,0.1,0.3c-0.2,0.1-0.4,0.2-0.6,0.2c-0.4,0-0.6-0.2-0.6-0.7c0-0.1,0.1-0.7,0.2-1.8l0.1-1.4c0.1-0.6,0.1-1,0.1-1.3
		c0-0.4-0.1-0.8-0.3-1c0.1,0,0.2-0.1,0.4-0.2c0.3-0.1,0.5-0.1,0.6-0.1c0.3,0,0.5,0.2,0.5,0.7c0,0.3,0,0.7-0.1,1.3c0,0.1,0,0.3,0,0.4
		L166.1,10.7z"/>
	<path d="M177,13c-0.2-1.1-0.5-2.2-1-3.3s-1-1.9-1.5-2.5c0.3-0.3,0.6-0.4,1-0.4c0.3,0,0.5,0.1,0.7,0.4s0.4,0.8,0.7,1.5
		c0.4,1.2,0.8,2.3,1,3.3c1.4-2.2,2.2-4.2,2.3-5.9c0.7,0.1,1.1,0.4,1.1,0.7c0,0.4-0.3,1.2-1,2.5c-0.7,1.2-1.4,2.4-2.1,3.4
		c-0.9,1.2-1.7,2.1-2.6,2.8c-0.9,0.7-1.6,1-2.2,1c-0.6,0-0.8-0.2-0.8-0.7c0-0.2,0-0.4,0.1-0.7c0.2,0.1,0.5,0.2,0.9,0.2
		C174.8,15.4,175.9,14.6,177,13z"/>
	<path d="M187.3,13.1c0.1-0.4,0.2-0.8,0.2-1.3c0-1.2-0.1-2.3-0.4-3.5s-0.6-1.9-1.1-2.4c0.4-0.2,0.7-0.3,1-0.3c0.4,0,0.8,0.5,1.1,1.6
		s0.5,2.5,0.6,4.4c0.6-0.8,1.1-1.6,1.6-2.5c0.4-0.9,0.6-1.6,0.6-2.1c0,0,0-0.1,0-0.2c0.4-0.1,0.6-0.2,0.8-0.2c0.4,0,0.5,0.1,0.5,0.4
		c0,0.1-0.1,0.5-0.2,1.4c0,0.2-0.1,0.4-0.1,0.5v0.4c0,0.3,0,0.7,0,1.1c0,1.2,0.3,1.7,0.8,1.7s0.9-0.4,1.3-1.3
		c0.4-0.8,0.6-1.8,0.6-2.9c0-0.8-0.2-1.3-0.6-1.4c0.4-0.3,0.7-0.4,1-0.4c0.5,0,0.8,0.4,0.8,1.2c0,1.1-0.4,2.5-1.2,4
		c-0.7,1.3-1.5,2-2.3,2c-0.9,0-1.4-0.8-1.4-2.4V9.4c-0.5,1.1-1,2-1.5,2.7C188.9,12.8,188.2,13.1,187.3,13.1z"/>
	<path d="M198.3,10.2c1.2-2.8,2.5-4.2,3.8-4.2c0.5,0,0.9,0.2,1.1,0.6c0.2,0.4,0.3,1.1,0.3,2.1v0.8c0,1.3,0.2,2,0.6,2
		c0.3,0,0.8-0.4,1.5-1.1c0.7-0.8,1.3-1.7,2-2.9l0.5,0.3c-0.7,1.3-1.4,2.5-2.3,3.4c-0.8,0.9-1.6,1.4-2.1,1.4s-0.9-0.2-1.1-0.7
		c-0.2-0.5-0.3-1.3-0.3-2.4V9c0-1.3-0.2-1.9-0.7-1.9c-0.6,0-1.4,0.8-2.3,2.5c-1,1.7-1.4,2.7-1.4,3c0,0.1,0,0.2,0.1,0.3
		c-0.2,0.1-0.4,0.2-0.7,0.2c-0.4,0-0.6-0.2-0.6-0.5c0-0.2,0.1-0.9,0.4-2.1c0,0,0.1-0.3,0.2-0.8l1.3-6.5c-0.3,0.1-0.6,0.2-0.8,0.2
		c-0.8,0-1.2-0.5-1.2-1.4c0.4,0.3,0.9,0.5,1.4,0.5c0.7,0,1.5-0.1,2.2-0.5l-1,5.2c0,0.1-0.2,0.8-0.6,2.3
		C198.5,9.6,198.4,9.9,198.3,10.2z"/>
	<path d="M207.7,10.4c0,1.2,0.5,1.8,1.6,1.8c0.9,0,1.9-0.4,3-1.3c1.1-0.9,2.1-2,2.9-3.4l0.5,0.3c-0.8,1.5-1.9,2.8-3.2,3.8
		s-2.6,1.5-3.7,1.5c-0.8,0-1.3-0.2-1.8-0.7c-0.4-0.5-0.7-1.1-0.7-2c0-1.2,0.4-2.2,1.2-3.1s1.7-1.3,2.9-1.3c0.5,0,1,0.1,1.3,0.4
		s0.5,0.6,0.5,1.1c0,0.7-0.5,1.4-1.3,2C209.9,10.1,208.9,10.4,207.7,10.4z M207.8,9.8c0.9,0,1.6-0.3,2.2-0.7c0.6-0.5,0.9-1,0.9-1.6
		c0-0.5-0.2-0.8-0.7-0.8c-0.6,0-1.1,0.3-1.6,0.9C208.2,8.2,207.9,8.9,207.8,9.8z"/>
	<path d="M215.5,12.9c-0.3,0.1-0.5,0.2-0.7,0.2c-0.4,0-0.6-0.2-0.6-0.6c0-0.2,0.1-0.7,0.2-1.4l0.3-1.6c0.2-0.9,0.3-1.6,0.3-2.1
		c0-0.2-0.1-0.4-0.2-0.6c0.4-0.2,0.8-0.2,1.1-0.2s0.4,0.2,0.4,0.6c0,0.2-0.1,0.8-0.3,1.8l-0.4,1.8c0.8-1.5,1.6-2.7,2.4-3.6
		s1.5-1.3,2.2-1.3c0.2,0,0.4,0.1,0.6,0.2c0.2,0.1,0.3,0.3,0.3,0.5c0,0.3-0.3,0.7-1,1.2c-0.2-0.3-0.4-0.5-0.7-0.5
		c-0.5,0-1.2,0.6-2,1.7c-0.5,0.7-1,1.4-1.3,2.2s-0.6,1.3-0.6,1.6V12.9z"/>
	<path d="M222.2,10.4c0,1.2,0.5,1.8,1.6,1.8c0.9,0,1.9-0.4,3-1.3c1.1-0.9,2.1-2,2.9-3.4l0.5,0.3c-0.8,1.5-1.9,2.8-3.2,3.8
		s-2.6,1.5-3.7,1.5c-0.8,0-1.3-0.2-1.8-0.7c-0.4-0.5-0.7-1.1-0.7-2c0-1.2,0.4-2.2,1.2-3.1s1.7-1.3,2.9-1.3c0.5,0,1,0.1,1.3,0.4
		s0.5,0.6,0.5,1.1c0,0.7-0.5,1.4-1.3,2C224.4,10.1,223.4,10.4,222.2,10.4z M222.2,9.8c0.9,0,1.6-0.3,2.2-0.7c0.6-0.5,0.9-1,0.9-1.6
		c0-0.5-0.2-0.8-0.7-0.8c-0.6,0-1.1,0.3-1.6,0.9C222.7,8.2,222.4,8.9,222.2,9.8z"/>
	<path d="M233.3,14.8c-0.7,0-1-0.2-1-0.6c0-0.1,0.1-0.5,0.2-1.1l1.6-8c0.2-0.8,0.3-1.4,0.3-1.8c0-0.2,0-0.3-0.1-0.5
		c0.7,0.1,1,0.3,1,0.7c0,0.2-0.1,0.6-0.2,1.2C235,4.9,235,5.1,235,5.2l-1.6,7.9c-0.1,0.5-0.2,0.9-0.2,1.2
		C233.3,14.6,233.3,14.7,233.3,14.8z"/>
</g>
<g>
	<path class="st18" d="M515,38.6c0,0.7,0.3,0.9,0.9,0.8c0.5-0.2,1.1-0.6,1.7-1.2c0.6-0.7,1.2-1.5,1.6-2.4l0.3,0.1
		c-0.5,1-1.1,1.9-1.8,2.7c-0.7,0.8-1.4,1.3-2.1,1.5c-0.4,0.1-0.8,0.1-1-0.1c-0.2-0.2-0.4-0.5-0.4-1c0-0.7,0.2-1.3,0.7-1.9
		c0.4-0.6,1-1,1.6-1.2c0.3-0.1,0.5-0.1,0.7,0c0.2,0.1,0.3,0.3,0.3,0.5c0,0.4-0.3,0.9-0.8,1.3C516.2,38.1,515.7,38.4,515,38.6z
		 M515,38.3c0.5-0.2,0.9-0.4,1.3-0.8s0.5-0.7,0.5-1c0-0.3-0.1-0.4-0.4-0.3c-0.3,0.1-0.6,0.4-0.9,0.8C515.3,37.3,515.1,37.8,515,38.3
		z"/>
	<path class="st18" d="M519.7,37.4c0.8-2,1.6-3.1,2.3-3.3c0.5-0.2,0.8,0.3,0.8,1.3l0,0.4c0,0.5,0,0.8,0.1,1c0,0.2,0.1,0.2,0.3,0.2
		c0.2-0.1,0.4-0.3,0.7-0.7c0.3-0.4,0.7-1.2,1.3-2.3l0.3,0.1c-0.5,1.1-1,2-1.4,2.6c-0.4,0.6-0.8,0.9-1.1,1c-0.3,0.1-0.5,0-0.6-0.2
		c-0.1-0.3-0.2-0.7-0.2-1.5l0-0.3c0-0.4,0-0.6-0.1-0.8c0-0.1-0.1-0.2-0.3-0.2c-0.3,0.1-0.8,0.9-1.5,2.3c-0.2,0.4-0.3,0.6-0.3,0.7
		c-0.2,0.4-0.3,0.6-0.3,0.8c0,0.1,0,0.1,0,0.1c-0.1,0.1-0.3,0.2-0.3,0.2c-0.2,0.1-0.4,0-0.4-0.3c0-0.1,0-0.4,0.1-1l0.1-0.8
		c0-0.3,0.1-0.6,0.1-0.8c0-0.2-0.1-0.4-0.2-0.5c0,0,0.1-0.1,0.2-0.2c0.1-0.1,0.3-0.2,0.4-0.2c0.2-0.1,0.3,0.1,0.3,0.3
		c0,0.1,0,0.4-0.1,0.7c0,0.1,0,0.2,0,0.2L519.7,37.4z"/>
	<path class="st18" d="M522.7,39.1c0,0.1,0,0.1,0,0.1c0,0.2,0.1,0.3,0.2,0.4c0.1,0.1,0.2,0.1,0.4,0.1c0.3-0.1,0.6-0.4,0.8-0.9
		c0.1-0.2,0.2-0.8,0.4-1.6l0.3-1.6c0.1-0.6,0.2-1,0.2-1.2c0-0.1,0-0.2-0.1-0.3c0.3-0.2,0.5-0.3,0.6-0.3c0.2-0.1,0.3,0,0.3,0.3
		c0,0.2,0,0.4-0.1,0.8l-0.4,2.2c-0.2,0.9-0.4,1.5-0.6,1.9c-0.4,0.6-0.9,1-1.4,1.2c-0.2,0.1-0.4,0.1-0.6,0c-0.2,0-0.2-0.1-0.2-0.3
		C522.2,39.7,522.4,39.4,522.7,39.1z M525.4,32.3L525.4,32.3c0.2-0.1,0.4-0.2,0.7-0.5c0.3-0.2,0.5-0.5,0.7-0.7
		c-0.1,0.4-0.3,0.7-0.6,1c-0.4,0.5-0.7,0.7-0.8,0.7c-0.1,0-0.1,0-0.1-0.1C525.3,32.7,525.3,32.5,525.4,32.3z"/>
	<path class="st18" d="M530.2,33c0,0.1,0,0.1,0,0.1c0,0.7-0.2,1.3-0.7,2s-1,1.1-1.6,1.2c-0.5,0.1-0.9,0.1-1.2-0.1
		c-0.3-0.2-0.4-0.6-0.4-1c0-0.5,0.2-1.1,0.6-1.6c0.4-0.5,0.8-0.9,1.4-1c0.1,0,0.2,0,0.3,0c-0.1-0.1-0.1-0.2-0.1-0.2
		c0-0.1,0-0.2,0.1-0.4c0.6-0.1,1.1,0,1.4,0.5c0.4,0.1,0.8,0.2,1.2,0c0.3-0.1,0.6-0.3,0.9-0.5l0.2,0.2c-0.4,0.4-0.8,0.6-1.2,0.7
		C530.8,33,530.5,33,530.2,33z M529.4,32.9c-0.2,0-0.4,0-0.5-0.1c-0.1,0-0.2,0-0.3,0.1c-0.4,0.1-0.8,0.4-1.1,0.9
		c-0.3,0.5-0.5,0.9-0.5,1.4c0,0.3,0.1,0.6,0.3,0.7c0.2,0.2,0.4,0.2,0.7,0.1c0.4-0.1,0.7-0.4,1-0.9c0.3-0.5,0.4-1,0.4-1.6
		C529.5,33.3,529.5,33.1,529.4,32.9z"/>
	<path class="st18" d="M532.7,34.8c-0.1-0.6-0.3-1.2-0.5-1.7c-0.3-0.5-0.5-0.9-0.8-1.2c0.2-0.2,0.4-0.3,0.5-0.4c0.2,0,0.3,0,0.4,0.1
		c0.1,0.1,0.2,0.4,0.4,0.7c0.2,0.6,0.4,1.2,0.6,1.7c0.8-1.5,1.2-2.7,1.3-3.7c0.4-0.1,0.6,0,0.6,0.2c0,0.2-0.2,0.7-0.6,1.6
		c-0.4,0.8-0.8,1.6-1.2,2.3c-0.5,0.8-1,1.5-1.5,2c-0.5,0.5-0.9,0.9-1.3,1c-0.3,0.1-0.5,0-0.5-0.3c0-0.1,0-0.2,0.1-0.4
		c0.1,0,0.3,0,0.5,0C531.5,36.6,532.1,35.9,532.7,34.8z"/>
</g>
<g>
	<path class="st18" d="M525.8,42.3c-0.1,0.3-0.1,0.6-0.2,0.9c0,0.4-0.1,0.7-0.1,1v1.5c0,0.3,0,0.7,0.1,1c0,0.3,0.1,0.7,0.1,1.1
		c0,0.1,0,0.2-0.1,0.3c-0.1,0.1-0.2,0.2-0.3,0.2c-0.3,0-0.4-0.4-0.4-1.2c0-0.8-0.1-1.3,0-1.6v-0.7c0-0.2,0-0.4,0-0.6
		c0-0.2,0-0.4,0.1-0.6c0,0,0-0.1,0-0.2c0-0.1,0-0.1,0.1-0.2l0,0c-0.1,0-0.2,0.1-0.4,0.2c-0.2,0.1-0.3,0.2-0.4,0.3c0,0,0,0-0.1,0
		l-0.1,0c0,0,0,0,0-0.1c0,0,0,0,0-0.1c0-0.1,0.2-0.4,0.6-0.7c0.4-0.3,0.6-0.5,0.8-0.6l0.2,0L525.8,42.3
		C525.7,42.3,525.7,42.3,525.8,42.3z"/>
	<path class="st18" d="M531,43.9c0,0.7-0.2,1.4-0.6,2c-0.4,0.6-1,1.1-1.8,1.4c-0.8,0.2-1.4,0-1.8-0.5c-0.4-0.5-0.6-1.2-0.6-1.9
		c0-0.8,0.2-1.5,0.6-2.2c0.4-0.7,1-1.2,1.8-1.4c0.9-0.3,1.6-0.1,1.9,0.5C530.8,42.3,531,43,531,43.9z M530.4,43.6
		c0-0.6-0.1-1.1-0.4-1.4c-0.3-0.3-0.7-0.4-1.4-0.3c-0.7,0.2-1.1,0.6-1.4,1.2c-0.3,0.6-0.4,1.1-0.4,1.7c0,0.6,0.1,1.1,0.5,1.5
		c0.3,0.4,0.8,0.5,1.5,0.3c0.6-0.2,1-0.7,1.2-1.3C530.3,44.7,530.4,44.1,530.4,43.6z"/>
	<path class="st18" d="M536.2,42.3c0,0.7-0.2,1.4-0.6,2c-0.4,0.6-1,1.1-1.8,1.4c-0.8,0.2-1.4,0-1.8-0.5c-0.4-0.5-0.6-1.2-0.6-1.9
		c0-0.8,0.2-1.5,0.6-2.2c0.4-0.7,1-1.2,1.8-1.4c0.9-0.3,1.6-0.1,1.9,0.5C536.1,40.8,536.2,41.5,536.2,42.3z M535.6,42.1
		c0-0.6-0.1-1.1-0.4-1.4c-0.3-0.3-0.7-0.4-1.4-0.3c-0.7,0.2-1.1,0.6-1.4,1.2c-0.3,0.6-0.4,1.1-0.4,1.7c0,0.6,0.1,1.1,0.5,1.5
		c0.3,0.4,0.8,0.5,1.5,0.3c0.6-0.2,1-0.7,1.2-1.3C535.5,43.1,535.6,42.6,535.6,42.1z"/>
	<path class="st18" d="M538.8,39.4c0,0.3-0.1,0.5-0.3,0.8c-0.2,0.3-0.5,0.5-0.7,0.5c-0.3,0.1-0.6,0.1-0.8,0
		c-0.2-0.1-0.3-0.3-0.3-0.6c0-0.4,0.1-0.7,0.3-1c0.2-0.3,0.5-0.5,0.9-0.6c0.3-0.1,0.6-0.1,0.8,0.1C538.7,38.9,538.8,39.1,538.8,39.4
		z M538.3,39.5c0-0.1,0-0.3-0.1-0.4c0-0.1-0.1-0.2-0.2-0.2c0,0-0.1,0-0.1,0c0,0-0.1,0-0.1,0c-0.3,0.1-0.5,0.2-0.5,0.4
		c-0.1,0.2-0.1,0.4-0.1,0.6c0,0.2,0.1,0.4,0.3,0.3c0.2,0,0.3,0,0.4,0l0,0c0.1-0.1,0.2-0.2,0.3-0.3C538.3,39.8,538.3,39.6,538.3,39.5
		z M540.3,37.7c-0.1,0.2-0.3,1.1-0.7,2.6c-0.4,1.5-0.6,2.4-0.7,3c-0.1,0.1-0.1,0.3-0.2,0.8c-0.1,0.4-0.2,0.7-0.5,0.8
		c0,0-0.1,0-0.1,0c0,0,0,0-0.1,0c0-0.1,0-0.1,0-0.2c0-0.1,0-0.1,0-0.2c0-0.3,0.3-1.4,0.8-3.2c0.5-1.8,0.8-2.9,0.9-3.3v-0.1
		c0-0.1,0.1-0.1,0.1-0.2c0-0.1,0.1-0.1,0.2-0.1c0,0,0.1,0,0.1,0c0,0,0.1,0,0.1,0L540.3,37.7C540.2,37.7,540.2,37.7,540.3,37.7z
		 M541.5,42.3c0,0.3-0.1,0.6-0.3,0.8c-0.2,0.3-0.4,0.4-0.7,0.5l-0.3,0.1c-0.2,0.1-0.5,0-0.6-0.2c-0.2-0.1-0.3-0.3-0.3-0.6
		c0-0.4,0.1-0.7,0.3-1c0.2-0.3,0.5-0.5,0.9-0.6c0.3-0.1,0.6-0.1,0.7,0.1C541.4,41.8,541.5,42,541.5,42.3z M541,42.4
		c0-0.2,0-0.3-0.1-0.4c-0.1-0.1-0.2-0.1-0.3-0.1v0c-0.3,0.1-0.5,0.2-0.5,0.4c-0.1,0.2-0.2,0.4-0.1,0.6c0,0.1,0,0.2,0.1,0.3
		c0.1,0.1,0.2,0.1,0.3,0.1c0,0,0,0,0.1,0c0,0,0,0,0,0c0,0,0,0,0.1,0l0.1,0c0,0,0,0,0,0l0,0v0c0.2-0.1,0.3-0.2,0.3-0.3
		C540.9,42.8,541,42.6,541,42.4z"/>
</g>
</svg>
