<?xml version="1.0" encoding="utf-8"?>
<!-- Generator: Adobe Illustrator 16.0.0, SVG Export Plug-In . SVG Version: 6.00 Build 0)  -->
<!DOCTYPE svg PUBLIC "-//W3C//DTD SVG 1.1//EN" "http://www.w3.org/Graphics/SVG/1.1/DTD/svg11.dtd">
<svg version="1.1" id="圖層_1" xmlns="http://www.w3.org/2000/svg" xmlns:xlink="http://www.w3.org/1999/xlink" x="0px" y="0px"
	 width="30px" height="30px" viewBox="0 0 30 30" enable-background="new 0 0 30 30" xml:space="preserve">
<g>
	<path fill="#FFFFFF" d="M6.02,7.976L6.012,21.361l10.164,1.732V6.239L6.02,7.976z M12.807,17.711l-1.182-0.121
		c-0.123-0.678-0.258-1.311-0.391-1.973l-0.459-1.951l-0.858,3.847l-1.045-0.059l-1.036-5.563l0.996-0.013l0.676,3.843l0.799-3.966
		l1.127-0.065l0.834,4.182l0.803-4.317l1.107-0.043L12.807,17.711z"/>
	<path fill="#FFFFFF" d="M23.163,8.179h-6.577l-0.01,1.654h5.434v0.701h-5.434v1.052h5.434v0.701h-5.434v1.052h5.434v0.701h-5.434
		v1.051h5.434v0.7h-5.434v1.053h5.434v0.701h-5.434v1.053h5.434v0.699h-5.434l0.01,1.859h6.577c0.353,0.041,0.416-0.141,0.411-0.352
		v-0.117V8.589C23.588,8.235,23.518,8.165,23.163,8.179z"/>
</g>
</svg>
